<svg width="641" height="502" viewBox="0 0 641 502" fill="none" xmlns="http://www.w3.org/2000/svg">
<ellipse cx="320.5" cy="369" rx="320.5" ry="133" fill="black" fill-opacity="0.02"/>
<g clip-path="url(#clip0_888_8264)">
<path d="M138.05 406.712L142.246 409.111C143 409.49 143.832 409.687 144.675 409.687C145.519 409.687 146.351 409.49 147.104 409.111L341.005 297.181C341.298 297.081 341.552 296.893 341.733 296.641C341.913 296.39 342.01 296.088 342.01 295.779C342.01 295.47 341.913 295.168 341.733 294.917C341.552 294.665 341.298 294.477 341.005 294.377L336.831 292C336.077 291.621 335.245 291.424 334.402 291.424C333.558 291.424 332.726 291.621 331.972 292L138.038 403.919C137.744 404.017 137.488 404.205 137.308 404.456C137.127 404.708 137.03 405.01 137.031 405.319C137.033 405.629 137.132 405.931 137.315 406.181C137.497 406.431 137.755 406.616 138.05 406.712Z" fill="#E0E0E0"/>
<path d="M459.829 437.529C436.715 450.19 399.239 450.19 376.136 437.529C353.033 424.868 353.033 404.335 376.136 391.673C399.239 379.012 436.726 379.012 459.829 391.673C482.932 404.335 482.932 424.868 459.829 437.529Z" fill="#E0E0E0"/>
<path d="M518.624 351.458C500.806 361.226 471.891 361.226 454.073 351.458C436.255 341.691 436.244 325.856 454.073 316.077C471.902 306.298 500.806 306.309 518.624 316.077C536.442 325.845 536.498 341.691 518.624 351.458Z" fill="#E0E0E0"/>
<path d="M143.278 403.885L142.426 403.392C141.706 402.927 141.108 402.299 140.679 401.558C140.25 400.817 140.002 399.985 139.957 399.131V111.751C140.002 110.896 140.25 110.065 140.679 109.324C141.108 108.583 141.706 107.955 142.426 107.49L327.686 0.594354C328.45 0.201834 329.296 -0.00292969 330.155 -0.00292969C331.013 -0.00292969 331.86 0.201834 332.623 0.594354L333.476 1.07657C334.193 1.54586 334.79 2.17698 335.219 2.9191C335.648 3.66123 335.896 4.49363 335.944 5.34925V292.695C335.896 293.549 335.648 294.38 335.219 295.12C334.79 295.861 334.193 296.49 333.476 296.956L148.204 403.885C147.441 404.273 146.597 404.474 145.741 404.474C144.885 404.474 144.041 404.273 143.278 403.885Z" fill="#E6AB04"/>
<path opacity="0.4" d="M335.922 4.95674C335.754 3.6783 334.721 3.2073 333.476 3.92502L148.204 110.832C147.476 111.284 146.874 111.913 146.454 112.66L140.687 109.295C141.096 108.541 141.695 107.907 142.426 107.456L327.686 0.594354C328.45 0.201834 329.296 -0.00292969 330.155 -0.00292969C331.013 -0.00292969 331.86 0.201834 332.623 0.594354L333.476 1.07657C334.138 1.51075 334.699 2.08182 335.121 2.75121C335.543 3.4206 335.816 4.17272 335.922 4.95674Z" fill="white"/>
<path opacity="0.1" d="M147.789 404.087C147.069 404.372 146.297 404.501 145.523 404.467C144.75 404.432 143.992 404.234 143.301 403.886L142.437 403.403C141.721 402.933 141.126 402.301 140.7 401.559C140.273 400.817 140.026 399.985 139.979 399.131V111.763C140.008 110.902 140.259 110.064 140.709 109.329L146.476 112.693C146.039 113.433 145.792 114.269 145.758 115.127V402.473C145.736 403.874 146.622 404.536 147.789 404.087Z" fill="black"/>
<path d="M167.582 299.96L166.729 299.467C166.013 298.997 165.417 298.366 164.991 297.623C164.564 296.881 164.317 296.049 164.271 295.194V243.541C164.317 242.685 164.564 241.851 164.993 241.109C165.422 240.366 166.021 239.736 166.74 239.268L334.934 142.13C335.698 141.737 336.544 141.532 337.403 141.532C338.261 141.532 339.108 141.737 339.871 142.13L340.724 142.612C341.441 143.081 342.039 143.712 342.467 144.454C342.896 145.196 343.144 146.029 343.192 146.884V198.493C343.144 199.349 342.896 200.181 342.467 200.923C342.039 201.665 341.441 202.296 340.724 202.766L172.519 299.96C171.753 300.348 170.908 300.55 170.05 300.55C169.192 300.55 168.347 300.348 167.582 299.96Z" fill="#EBEBEB"/>
<path d="M343.159 146.493C342.991 145.215 341.958 144.744 340.724 145.462L172.519 242.612C171.79 243.078 171.188 243.717 170.768 244.473L165.001 241.109C165.413 240.354 166.012 239.717 166.74 239.259L334.934 142.12C335.698 141.727 336.544 141.522 337.403 141.522C338.261 141.522 339.108 141.727 339.871 142.12L340.724 142.602C341.386 143.038 341.945 143.611 342.366 144.283C342.786 144.954 343.056 145.708 343.159 146.493Z" fill="#FAFAFA"/>
<path d="M172.103 300.153C171.384 300.439 170.612 300.57 169.839 300.537C169.065 300.504 168.307 300.308 167.615 299.962L166.751 299.468C166.035 298.999 165.44 298.367 165.013 297.625C164.586 296.883 164.34 296.051 164.294 295.196V243.542C164.319 242.685 164.57 241.849 165.023 241.12L170.791 244.484C170.354 245.22 170.107 246.052 170.072 246.907V298.571C170.05 299.939 170.936 300.601 172.103 300.153Z" fill="#E0E0E0"/>
<path d="M196.306 239.146C205.9 233.618 213.675 237.924 213.675 248.768C213.675 259.612 205.889 272.812 196.284 278.239C186.679 283.667 178.892 279.361 178.903 268.606C178.915 257.852 186.713 244.686 196.306 239.146Z" fill="#E6AB04"/>
<path d="M167.582 369.951L166.729 369.469C166.013 368.998 165.418 368.367 164.992 367.625C164.565 366.883 164.318 366.051 164.271 365.196V313.543C164.317 312.687 164.564 311.853 164.993 311.111C165.422 310.368 166.021 309.738 166.74 309.27L334.934 212.12C335.699 211.733 336.545 211.531 337.403 211.531C338.26 211.531 339.106 211.733 339.871 212.12L340.724 212.614C341.441 213.083 342.039 213.714 342.467 214.456C342.896 215.198 343.144 216.031 343.192 216.886V268.54C343.144 269.394 342.896 270.225 342.467 270.965C342.038 271.705 341.441 272.334 340.724 272.801L172.519 369.951C171.753 370.338 170.908 370.54 170.05 370.54C169.192 370.54 168.347 370.338 167.582 369.951Z" fill="#EBEBEB"/>
<path d="M343.159 216.493C342.991 215.215 341.958 214.744 340.724 215.45L172.519 312.612C171.793 313.071 171.191 313.703 170.768 314.451L165.001 311.087C165.413 310.331 166.012 309.694 166.74 309.236L334.934 212.086C335.7 211.699 336.545 211.497 337.403 211.497C338.261 211.497 339.106 211.699 339.871 212.086L340.724 212.58C341.388 213.018 341.95 213.595 342.37 214.27C342.79 214.946 343.059 215.704 343.159 216.493Z" fill="#FAFAFA"/>
<path d="M172.103 370.153C171.383 370.437 170.611 370.567 169.838 370.532C169.064 370.497 168.307 370.299 167.615 369.951L166.751 369.468C166.036 368.998 165.441 368.366 165.014 367.624C164.587 366.882 164.341 366.05 164.294 365.196V313.542C164.319 312.685 164.57 311.849 165.023 311.12L170.791 314.484C170.354 315.22 170.107 316.052 170.072 316.907V368.571C170.05 369.939 170.936 370.601 172.103 370.153Z" fill="#E0E0E0"/>
<path d="M196.306 309.146C205.9 303.606 213.675 307.913 213.675 318.768C213.675 329.624 205.889 342.812 196.284 348.24C186.679 353.667 178.892 349.361 178.903 338.607C178.915 327.852 186.713 314.686 196.306 309.146Z" fill="#E6AB04"/>
<path d="M167.582 182.895L166.729 182.402C166.012 181.933 165.415 181.302 164.988 180.56C164.561 179.817 164.316 178.984 164.271 178.129V126.543C164.316 125.687 164.563 124.853 164.992 124.11C165.421 123.367 166.02 122.737 166.74 122.27L334.934 25.1203C335.699 24.733 336.545 24.5312 337.403 24.5312C338.26 24.5312 339.106 24.733 339.871 25.1203L340.724 25.6137C341.443 26.0817 342.041 26.7125 342.47 27.4549C342.899 28.1973 343.146 29.0303 343.192 29.8864V81.4725C343.146 82.3285 342.899 83.1616 342.47 83.904C342.041 84.6464 341.443 85.2772 340.724 85.7451L172.519 182.895C171.753 183.282 170.908 183.484 170.05 183.484C169.192 183.484 168.347 183.282 167.582 182.895Z" fill="#EBEBEB"/>
<path d="M343.159 29.4261C342.991 28.1476 341.958 27.6878 340.724 28.3943L172.519 125.601C171.795 126.059 171.195 126.686 170.768 127.428L165.001 124.064C165.415 123.316 166.014 122.687 166.74 122.236L334.934 25.0861C335.7 24.6989 336.545 24.4971 337.403 24.4971C338.261 24.4971 339.106 24.6989 339.871 25.0861L340.724 25.5795C341.381 26.0096 341.939 26.5755 342.359 27.239C342.779 27.9025 343.052 28.6483 343.159 29.4261Z" fill="#FAFAFA"/>
<path d="M172.103 183.086C171.384 183.372 170.612 183.503 169.839 183.471C169.065 183.438 168.307 183.242 167.615 182.895L166.751 182.402C166.034 181.933 165.438 181.302 165.011 180.559C164.584 179.817 164.338 178.984 164.294 178.129V126.543C164.318 125.682 164.57 124.842 165.023 124.109L170.791 127.474C170.354 128.213 170.107 129.049 170.072 129.907V181.561C170.05 182.884 170.936 183.546 172.103 183.086Z" fill="#E0E0E0"/>
<path d="M196.306 122.091C205.9 116.551 213.675 120.857 213.675 131.713C213.675 142.568 205.889 155.745 196.284 161.173C186.679 166.601 178.892 162.294 178.903 151.551C178.915 140.807 186.713 127.619 196.306 122.091Z" fill="#E6AB04"/>
<path d="M179.408 248.477L178.555 247.983C177.838 247.514 177.241 246.883 176.812 246.141C176.383 245.398 176.135 244.566 176.087 243.711V192.057C176.135 191.203 176.383 190.372 176.812 189.632C177.241 188.892 177.838 188.263 178.555 187.796L346.761 90.6457C347.526 90.2584 348.372 90.0566 349.229 90.0566C350.087 90.0566 350.933 90.2584 351.698 90.6457L352.539 91.1391C353.258 91.604 353.857 92.2325 354.286 92.9733C354.715 93.714 354.963 94.5458 355.008 95.4006V147.054C354.963 147.91 354.715 148.744 354.286 149.486C353.857 150.229 353.259 150.859 352.539 151.327L184.345 248.477C183.58 248.864 182.734 249.066 181.877 249.066C181.019 249.066 180.173 248.864 179.408 248.477Z" fill="#37474F"/>
<path d="M354.986 95.0081C354.817 93.7296 353.785 93.2698 352.54 93.9763L184.334 191.138C183.607 191.587 183.008 192.217 182.595 192.966L176.816 189.601C177.235 188.859 177.837 188.237 178.567 187.796L346.761 90.6457C347.526 90.2584 348.372 90.0566 349.23 90.0566C350.087 90.0566 350.933 90.2584 351.698 90.6457L352.54 91.1391C353.201 91.571 353.762 92.14 354.184 92.8076C354.606 93.4751 354.879 94.2256 354.986 95.0081Z" fill="#455A64"/>
<path d="M183.919 248.668C183.2 248.956 182.428 249.088 181.654 249.055C180.88 249.022 180.122 248.825 179.431 248.477L178.567 247.984C177.849 247.515 177.253 246.884 176.826 246.141C176.399 245.399 176.153 244.566 176.109 243.711V192.125C176.133 191.265 176.381 190.427 176.827 189.691L182.606 193.056C182.165 193.794 181.915 194.63 181.877 195.489V247.053C181.865 248.466 182.763 249.116 183.919 248.668Z" fill="#263238"/>
<path d="M208.122 187.672C217.715 182.132 225.491 186.438 225.491 197.283C225.491 208.127 217.704 221.326 208.11 226.754C198.517 232.182 190.719 227.876 190.719 217.132C190.719 206.389 198.528 193.201 208.122 187.672Z" fill="#F5F5F5"/>
<path d="M208.469 218.871C208.166 219.1 207.801 219.233 207.421 219.253C207.041 219.273 206.664 219.179 206.338 218.983L198.764 213.208C197.743 212.445 197.877 210.314 199.055 208.453C200.234 206.591 202.006 205.728 203.027 206.49L208.346 210.516L223.112 178.791C224.032 176.806 225.794 175.426 227.05 175.819C228.307 176.211 228.576 178.062 227.656 180.013L210.826 216.235C210.363 217.276 209.616 218.166 208.671 218.804L208.469 218.871Z" fill="#E6AB04"/>
<path d="M354.974 171.714L350.094 168.899C347.973 167.688 345.381 168.899 344.012 169.729L340.96 167.98C337.269 165.737 332.141 170.413 330.985 171.535L329.672 170.772C325.756 168.417 318.643 174.731 318.643 174.731V151.248L321.728 149.745L316.814 146.908C316.108 146.589 315.33 146.463 314.56 146.541C313.789 146.62 313.053 146.901 312.427 147.357C310.604 148.546 309.088 150.147 308 152.031C306.912 153.915 306.284 156.029 306.166 158.201V212.658C301.677 209.294 296.886 207.286 292.701 208.026C289.372 208.795 286.46 210.799 284.555 213.634C282.479 217.278 285.901 219.566 290.3 224.59C294.698 229.614 298.502 235.58 302.474 239.281C304.433 241.271 306.761 242.86 309.33 243.957V251.056L314.166 253.837L346.11 229.827V222.728C346.11 222.728 350.677 204.539 352.136 196.935C353.538 189.612 354.829 177.949 352.416 171.882L355.019 171.703L354.974 171.714Z" fill="#E6AB04"/>
<path opacity="0.4" d="M354.974 171.714L350.094 168.899C347.973 167.688 345.381 168.899 344.012 169.729L340.96 167.98C337.269 165.737 332.141 170.413 330.985 171.535L329.672 170.772C325.756 168.417 318.643 174.731 318.643 174.731V151.248L321.728 149.745L316.814 146.908C316.108 146.589 315.33 146.463 314.56 146.541C313.789 146.62 313.053 146.901 312.427 147.357C310.604 148.546 309.088 150.147 308 152.031C306.912 153.915 306.284 156.029 306.166 158.201V212.658C301.677 209.294 296.886 207.286 292.701 208.026C289.372 208.795 286.46 210.799 284.555 213.634C282.479 217.278 285.901 219.566 290.3 224.59C294.698 229.614 298.502 235.58 302.474 239.281C304.433 241.271 306.761 242.86 309.33 243.957V251.056L314.166 253.837L346.11 229.827V222.728C346.11 222.728 350.677 204.539 352.136 196.935C353.538 189.612 354.829 177.949 352.416 171.882L355.019 171.703L354.974 171.714Z" fill="white"/>
<path d="M318.934 234.381L294.765 220.43L284.185 214.318C282.838 217.615 286.103 219.926 290.244 224.647C294.597 229.637 298.446 235.637 302.418 239.338C304.376 241.328 306.705 242.917 309.273 244.014V251.113L314.109 253.894L321.167 248.589C320.247 242.5 318.934 234.381 318.934 234.381Z" fill="#E6AB04"/>
<path d="M310.956 160.96L306.12 158.179V215.305L310.956 215.428V160.96Z" fill="#E6AB04"/>
<path d="M348.859 175.381L352.607 172.623C352.529 172.376 352.45 172.129 352.36 171.894L353.718 171.804L350.722 171.669L345.751 168.899C345.169 169.134 344.606 169.416 344.068 169.74L345.628 170.66L348.859 175.381Z" fill="#E6AB04"/>
<path d="M335.586 174.563L339.109 171.894L334.251 168.956C333.077 169.707 331.983 170.575 330.985 171.547L334.351 173.487L335.586 174.563Z" fill="#E6AB04"/>
<path d="M328.247 174.305L323.456 171.502L323.478 171.457V177.535L329.066 175.483L328.247 174.305Z" fill="#E6AB04"/>
<g opacity="0.15">
<path d="M318.934 234.38L294.765 220.429L284.185 214.317C282.838 217.614 286.103 219.925 290.244 224.646C294.597 229.636 298.446 235.636 302.418 239.337C304.376 241.327 306.705 242.916 309.273 244.013V251.112L314.109 253.893L321.167 248.588C320.247 242.499 318.934 234.38 318.934 234.38Z" fill="black"/>
<path d="M310.956 160.96L306.12 158.179V215.305L310.956 215.428V160.96Z" fill="black"/>
<path d="M348.859 175.381L352.607 172.623C352.529 172.376 352.45 172.129 352.36 171.894L353.718 171.804L350.722 171.669L345.751 168.899C345.169 169.134 344.606 169.416 344.068 169.74L345.628 170.66L348.859 175.381Z" fill="black"/>
<path d="M335.586 174.563L339.109 171.894L334.251 168.956C333.077 169.707 331.983 170.575 330.985 171.547L334.351 173.487L335.586 174.563Z" fill="black"/>
<path d="M328.247 174.304L323.456 171.501L323.478 171.456V177.534L329.066 175.482L328.247 174.304Z" fill="black"/>
</g>
<path d="M314.109 253.838V246.717C311.543 245.621 309.214 244.037 307.254 242.051C303.282 238.351 299.399 232.351 295.079 227.361C290.76 222.37 287.225 220.038 289.335 216.393C291.24 213.559 294.152 211.554 297.481 210.786C301.677 210.034 306.457 212.087 310.945 215.417V160.96C311.064 158.79 311.693 156.678 312.781 154.796C313.869 152.914 315.385 151.315 317.206 150.127C320.662 148.131 323.467 149.746 323.467 153.738V177.535C323.467 177.535 332.084 169.876 335.574 174.575C335.574 174.575 344.045 165.693 347.917 173.195C347.917 173.195 354.133 168.171 356.893 174.003C359.653 179.834 358.34 192.136 356.893 199.728C355.445 207.321 350.867 225.521 350.867 225.521V232.62L314.109 253.838Z" fill="#E6AB04"/>
<path d="M323.478 187.739C323.478 187.739 324.264 176.895 328.247 174.282H328.112C326.455 175.171 324.902 176.239 323.478 177.467V177.254C323.45 177.322 323.45 177.399 323.478 177.467V187.739Z" fill="#455A64"/>
<path d="M335.585 174.563V184.499C335.585 184.499 336.707 174.283 338.951 171.815C337.737 172.613 336.609 173.533 335.585 174.563Z" fill="#455A64"/>
<path d="M347.883 173.195V183.153C347.883 183.153 348.489 173.116 350.654 171.636C349.661 172.021 348.728 172.546 347.883 173.195Z" fill="#455A64"/>
<path d="M312.348 140.483C311.574 140.931 310.945 140.662 310.945 139.888V132.038C310.987 131.581 311.135 131.139 311.379 130.749C311.622 130.36 311.954 130.033 312.348 129.795C313.122 129.347 313.75 129.616 313.75 130.39V138.24C313.709 138.697 313.561 139.139 313.317 139.529C313.073 139.918 312.741 140.245 312.348 140.483Z" fill="#EBEBEB"/>
<path d="M300.566 152.908C300.016 153.861 299.13 154.366 298.58 154.029L294.025 151.394C293.475 151.08 293.475 150.059 294.025 149.151C294.563 148.198 295.461 147.682 296.011 148.03L300.566 150.665C301.116 150.923 301.116 151.955 300.566 152.908Z" fill="#EBEBEB"/>
<path d="M295.686 169.202V169.427C295.633 169.917 295.465 170.388 295.196 170.801C294.927 171.214 294.564 171.558 294.137 171.804L287.899 175.415C287.057 175.886 286.384 175.606 286.384 174.776V174.552C286.43 174.062 286.591 173.591 286.855 173.176C287.118 172.761 287.476 172.414 287.899 172.163L294.137 168.563C295.012 168.081 295.686 168.373 295.686 169.202Z" fill="#EBEBEB"/>
<path d="M329.01 150.206V149.981C329.057 149.494 329.217 149.023 329.478 148.609C329.739 148.194 330.094 147.846 330.513 147.593L336.774 143.993C337.605 143.511 338.278 143.802 338.278 144.632V144.856C338.231 145.344 338.071 145.814 337.81 146.229C337.549 146.644 337.194 146.992 336.774 147.245L330.525 150.845C329.683 151.327 329.01 151.035 329.01 150.206Z" fill="#EBEBEB"/>
<path d="M324.129 139.316C323.579 138.991 323.579 137.971 324.129 137.073L328.685 129.223C329.234 128.27 330.132 127.754 330.682 128.102C331.22 128.416 331.22 129.436 330.682 130.345L326.115 138.195C325.554 139.114 324.679 139.63 324.129 139.316Z" fill="#EBEBEB"/>
<path d="M501.626 324.095V322.861C501.121 324.364 498.787 330.801 495.241 334.076C492.425 336.644 488.588 339.604 487.611 342.475C486.635 345.346 492.952 346.445 495.589 345.985C498.641 345.447 502.591 343.742 504.745 341.062C506.26 339.201 507.225 337.003 508.313 335.545C509.401 334.087 511.881 332.45 512.465 330.756C512.79 329.825 512.408 327.796 511.948 326.069C511.488 324.342 511.096 322.704 510.557 322.906C510.557 323.097 510.557 323.882 510.557 323.882C509.277 324.882 507.693 325.412 506.069 325.385C504.779 325.396 501.614 325.138 501.626 324.095Z" fill="#263238"/>
<path d="M492.739 336.296C493.614 335.511 494.489 334.748 495.286 334.053C497.766 331.81 499.651 327.975 500.728 325.362C501.346 323.872 501.667 322.276 501.67 320.663V315.583H510.647V323.859V324.083C510.209 325.934 506.159 330.812 503.791 334.087C502.231 336.24 499.303 338.987 495.724 339.458C492.144 339.929 490.495 338.83 492.739 336.296Z" fill="#FFA8A7"/>
<path d="M466.798 315.337V314.069C466.293 315.561 463.959 322.009 460.413 325.284C457.597 327.852 453.759 330.812 452.783 333.672C451.807 336.532 458.124 337.653 460.761 337.182C463.813 336.644 467.774 334.939 469.928 332.27C471.432 330.409 472.396 328.211 473.485 326.742C474.573 325.272 477.053 323.646 477.636 321.964C477.962 321.033 477.58 318.992 477.132 317.277C476.683 315.561 476.268 313.912 475.729 314.114V315.079C474.451 316.083 472.866 316.618 471.241 316.593C469.95 316.593 466.786 316.335 466.798 315.337Z" fill="#263238"/>
<path d="M457.866 327.46C458.741 326.686 459.617 325.923 460.413 325.217C462.893 322.974 464.778 319.127 465.866 316.526C466.481 315.035 466.797 313.439 466.798 311.827V306.735H475.774V315.023V315.236C475.336 317.097 471.286 322.032 468.918 325.239C467.359 327.403 464.43 330.14 460.851 330.611C457.271 331.082 455.712 330.039 457.866 327.46Z" fill="#FFA8A7"/>
<path d="M508.773 185.451C515.696 200.568 508.526 253.792 508.526 253.792C508.728 256.248 511.533 261.07 512.588 271.858C513.822 284.609 510.646 316.626 510.646 316.626C509.292 317.409 507.766 317.85 506.203 317.913C504.639 317.975 503.083 317.657 501.67 316.985C501.67 316.985 493.154 268.763 491.572 256.091C490.169 245.022 487.488 220.698 487.488 220.698L479.88 256.023C480.991 259.59 481.798 263.244 482.292 266.946C483.011 274.404 475.785 309.123 475.785 309.123C475.785 309.123 472.699 310.245 466.808 309.393C466.808 309.393 464.25 263.324 463.577 254.341C462.455 239.247 466.449 192.18 469.187 183.242L508.773 185.451Z" fill="#37474F"/>
<path d="M487.431 220.699L485.187 206.658C485.187 206.658 475.684 204.696 471.375 200.647C474.347 204.13 478.233 206.713 482.595 208.105L485.12 218.916L480.699 251.628L487.431 220.699Z" fill="#263238"/>
<path d="M481.788 132.554C479.619 132.364 477.437 132.731 475.45 133.62C473.463 134.509 471.736 135.891 470.433 137.634L453.187 160.063C453.187 160.063 432.99 149.97 432.036 148.781C431.083 147.592 431.599 145.17 431.868 143.847C432.137 142.523 432.597 139.563 432.889 138.733C433.416 137.275 431.262 137.668 430.005 139.025C428.749 140.381 428.177 143.028 427.548 143.51C426.92 143.992 422.117 138.453 419.795 135.784C417.472 133.115 416.373 131.298 414.813 132.419C413.691 133.215 414.409 134.785 416.081 137.073C416.862 138.032 417.582 139.04 418.235 140.09C418.437 140.494 417.82 140.819 417.573 141.043C417.124 141.447 416.317 142.165 416.26 142.736C416.295 143.08 416.295 143.425 416.26 143.768C416.036 144.531 415.138 144.89 414.835 145.63C414.645 146.168 414.835 146.751 414.746 147.323C414.678 147.693 414.476 148.018 414.42 148.377C414.396 148.738 414.449 149.1 414.577 149.439C414.705 149.778 414.904 150.085 415.161 150.34C416.799 152.28 419.032 153.02 421.175 154.209C422.959 155.196 424.799 155.622 426.853 156.541C428.906 157.461 452.66 173.946 456.474 171.871C460.289 169.797 479.701 147.2 479.701 147.2C485.266 137.825 481.788 132.554 481.788 132.554Z" fill="#FFA8A7"/>
<path d="M496.565 132.958C505.44 133.574 506.057 137.858 508.279 142.535C509.909 146.146 510.062 150.251 508.705 153.973L502.523 171.849C502.523 171.849 505.418 178.847 508.773 185.452C493.255 194.11 473.877 189.557 469.209 183.209C469.019 181.875 470.219 171.4 470.949 164.549C468.222 157.697 467.493 153.334 468.648 148.848C470.791 140.438 479.106 132.251 482.775 132.543L496.565 132.958Z" fill="#F5F5F5"/>
<path d="M488.038 125.601H491.483C496.283 125.586 500.882 123.67 504.272 120.274C507.662 116.877 509.567 112.276 509.57 107.478C509.567 102.646 507.645 98.0126 504.226 94.5957C500.808 91.1788 496.172 89.2579 491.337 89.2549H488.083C483.248 89.2579 478.612 91.1788 475.193 94.5957C471.775 98.0126 469.853 102.646 469.85 107.478C469.851 109.862 470.323 112.223 471.238 114.425C472.153 116.626 473.494 118.626 475.184 120.309C476.873 121.993 478.878 123.326 481.084 124.234C483.289 125.142 485.652 125.607 488.038 125.601Z" fill="#263238"/>
<path d="M519.332 135.167C516.49 135.167 513.764 134.038 511.755 132.03C509.745 130.021 508.616 127.297 508.616 124.457V101.523C511.458 101.523 514.184 102.652 516.193 104.66C518.203 106.669 519.332 109.393 519.332 112.233V135.167Z" fill="#263238"/>
<path d="M510.58 97.4531L507.887 101.771C508.161 101.961 508.471 102.094 508.799 102.161C509.126 102.228 509.464 102.228 509.791 102.161C510.118 102.094 510.428 101.961 510.703 101.771C510.977 101.58 511.21 101.336 511.387 101.053C511.742 100.464 511.857 99.7616 511.706 99.0911C511.556 98.4205 511.152 97.8338 510.58 97.4531Z" fill="#263238"/>
<path d="M476.424 97.2842C474.326 98.5178 471.734 103.8 471.936 114.846C472.16 124.221 475.201 126.531 476.716 127.182C478.231 127.832 481.204 127.44 484.054 126.969V132.576C484.054 132.576 480.093 137.163 480.351 139.742C480.609 142.321 486.051 142.927 489.754 140.415C492.153 138.688 494.211 136.532 495.824 134.056V120.498C496.125 120.867 496.496 121.173 496.916 121.397C497.336 121.621 497.796 121.76 498.27 121.805C498.744 121.85 499.223 121.8 499.677 121.658C500.132 121.517 500.554 121.286 500.918 120.98C504.071 118.883 504.195 113.702 502.355 111.829C500.514 109.956 496.565 110.562 495.824 113.13C495.824 113.13 491.269 113.298 485.187 109.968C482.834 108.688 480.815 106.873 479.293 104.67C477.77 102.467 476.788 99.9368 476.424 97.2842Z" fill="#FFA8A7"/>
<path d="M483.505 112.503C483.494 112.66 483.515 112.819 483.565 112.968C483.616 113.118 483.696 113.256 483.8 113.375C483.904 113.494 484.031 113.591 484.173 113.66C484.315 113.73 484.469 113.771 484.627 113.781C484.938 113.788 485.241 113.676 485.472 113.467C485.703 113.259 485.847 112.97 485.872 112.66C485.887 112.347 485.777 112.042 485.567 111.811C485.356 111.579 485.063 111.441 484.75 111.426C484.438 111.411 484.132 111.521 483.901 111.731C483.669 111.942 483.531 112.235 483.516 112.548L483.505 112.503Z" fill="#263238"/>
<path d="M482.135 120.442L479.397 121.317C479.448 121.5 479.534 121.671 479.652 121.82C479.769 121.969 479.916 122.092 480.082 122.183C480.249 122.274 480.432 122.331 480.621 122.35C480.81 122.369 481 122.349 481.182 122.293C481.549 122.167 481.853 121.904 482.031 121.559C482.209 121.214 482.246 120.814 482.135 120.442Z" fill="#F28F8F"/>
<path d="M473.833 108.88L476.223 107.231C476.123 107.07 475.991 106.931 475.836 106.822C475.68 106.714 475.504 106.638 475.319 106.599C475.133 106.56 474.941 106.559 474.755 106.597C474.569 106.634 474.393 106.709 474.237 106.816C473.922 107.046 473.705 107.386 473.63 107.769C473.555 108.151 473.628 108.548 473.833 108.88Z" fill="#263238"/>
<path d="M474.382 111.65C474.367 111.962 474.477 112.268 474.688 112.499C474.898 112.731 475.192 112.869 475.504 112.884C475.817 112.899 476.122 112.789 476.354 112.579C476.585 112.368 476.724 112.075 476.738 111.762C476.751 111.604 476.731 111.446 476.681 111.295C476.631 111.145 476.551 111.006 476.447 110.887C476.342 110.768 476.215 110.671 476.072 110.602C475.93 110.532 475.775 110.492 475.616 110.484C475.459 110.479 475.302 110.506 475.154 110.562C475.007 110.618 474.872 110.703 474.757 110.811C474.643 110.92 474.551 111.05 474.486 111.193C474.422 111.337 474.387 111.493 474.382 111.65Z" fill="#263238"/>
<path d="M480.139 110.966L479.959 118.065L476.223 116.909L480.139 110.966Z" fill="#F28F8F"/>
<path d="M484.1 126.991C487.107 126.587 493.312 124.815 494.277 122.359C493.892 123.602 493.132 124.695 492.1 125.488C490.248 127.069 484.1 128.852 484.1 128.852V126.991Z" fill="#F28F8F"/>
<path opacity="0.1" d="M492.593 187.134C493.808 186.855 494.956 186.337 495.969 185.609C496.982 184.881 497.838 183.958 498.49 182.895C499.141 181.832 499.573 180.649 499.761 179.417C499.948 178.184 499.888 176.927 499.583 175.718C499.541 175.55 499.488 175.386 499.426 175.224C499.212 174.575 498.786 174.017 498.216 173.638C497.646 173.26 496.966 173.084 496.284 173.139C497.281 172.482 498.137 171.633 498.802 170.641C499.467 169.649 499.927 168.535 500.155 167.363L502.052 156.149C502.273 154.322 502.108 152.469 501.569 150.71L507.808 143.499L508.93 144.306C509.875 147.47 509.789 150.851 508.683 153.962L502.5 171.838C502.5 171.838 505.395 178.835 508.75 185.441C503.705 188.161 498.135 189.768 492.415 190.155C486.696 190.542 480.96 189.699 475.594 187.684C481.244 188.579 487.012 188.392 492.593 187.134Z" fill="black"/>
<path d="M524.661 177.467C516.605 144.553 510.647 133.574 500.851 133.731C498.001 137.095 498.787 147.446 503.309 153.704C503.309 153.704 513.407 174.933 514.978 182.48C516.392 189.119 517.985 197.451 517.884 203.159C517.859 204.168 517.459 205.132 516.762 205.862C514.922 207.858 514.91 209.462 513.721 211.671C512.79 213.387 511.769 214.037 512.06 214.419C512.445 214.826 512.968 215.074 513.526 215.116C514.085 215.157 514.638 214.989 515.079 214.643C515.932 214.009 516.688 213.253 517.323 212.4C517.007 214.512 516.395 216.57 515.505 218.512C513.441 223.166 513.946 225.543 520.24 223.883C524.179 222.852 526.647 219.566 527.242 210.101C527.526 206.613 527.56 203.109 527.343 199.616C526.557 190.644 525.951 182.794 524.661 177.467Z" fill="#FFA8A7"/>
<path d="M444.726 271.567C445.59 239.539 443.02 231.857 434.481 225.992L431.171 244.552C431.171 244.552 435.065 266.431 434.65 273.709C434.28 280.113 433.651 288.12 432.148 293.29C431.876 294.222 431.269 295.022 430.442 295.532C428.277 296.889 427.39 298.291 425.763 300.018C424.473 301.364 423.384 301.7 423.519 302.127C423.769 302.595 424.185 302.953 424.686 303.129C425.186 303.306 425.735 303.288 426.223 303.08C427.311 302.641 428.346 302.08 429.309 301.409C428.554 303.377 427.485 305.21 426.145 306.837C423.104 310.56 422.969 312.859 429.118 312.915C432.978 312.915 436.052 310.571 438.947 302.082C440.078 298.973 440.986 295.787 441.663 292.549C443.166 284.083 444.58 276.726 444.726 271.567Z" fill="#B16668"/>
<path d="M427.301 223.558C429.922 223.098 432.622 223.497 434.998 224.695C437.374 225.894 439.298 227.827 440.485 230.208C444.064 236.601 444.973 247.602 445.354 258.536C445.354 258.536 438.241 264.479 429.724 261.553L427.301 223.558Z" fill="#E6AB04"/>
<path opacity="0.1" d="M427.301 223.558C429.922 223.098 432.622 223.497 434.998 224.695C437.374 225.894 439.298 227.827 440.485 230.208C444.064 236.601 444.973 247.602 445.354 258.536C445.354 258.536 438.241 264.479 429.724 261.553L427.301 223.558Z" fill="black"/>
<path d="M439.285 399.747C439.935 399.994 440.093 401.227 440.194 403.672C440.272 405.523 440.665 408.764 438.499 409.403C436.334 410.042 433.147 409.728 431.767 407.979C430.028 405.803 428.85 403.874 426.37 401.25C424.227 399.007 421.882 396.764 421.029 393.557C420.244 390.63 420.894 389.363 422.892 388.522C425.641 387.344 429.949 391.168 432.104 391.774C433.944 392.256 438.634 399.512 439.285 399.747Z" fill="#263238"/>
<path d="M439.284 397.482V400.488C438.157 401.209 436.854 401.61 435.516 401.648C434.178 401.686 432.854 401.358 431.688 400.701C431.554 400.409 430.892 396.395 430.892 396.395L439.284 397.482Z" fill="#B16668"/>
<path d="M414.925 417.074C414.925 417.074 415.789 419.687 416.26 421.975C416.631 423.792 417.158 426.831 416.518 428.199C415.879 429.567 413.399 430.442 409.55 430.442C407.06 430.442 403.166 432.113 400.507 433.593C397.848 435.073 392.047 435.735 389.141 435.398C385.707 434.995 382.161 433.01 381.612 431.597C381.062 430.184 381.791 428.703 389.859 425.261C389.937 425.261 401.079 421.605 404.995 417.298L414.925 417.074Z" fill="#263238"/>
<path d="M414.925 413.811C414.925 413.811 414.925 416.053 414.925 417.321C414.925 418.588 413.433 420.494 409.539 420.36C406.801 420.259 404.883 419.519 404.995 417.265V414.012L414.925 413.811Z" fill="#B16668"/>
<path d="M441.237 357.593C440.578 352.255 439.39 346.996 437.691 341.893C437.691 341.893 438.813 328.435 439.284 315.584C439.834 301.745 439.284 284.363 439.509 280.909C439.509 280.909 394.852 271.881 394.055 287.873C393.258 303.865 395.817 344.562 396.299 351.593C396.781 358.624 398.049 364.826 399.497 376.208C400.944 387.591 404.95 413.978 404.95 413.978C406.494 414.764 408.208 415.157 409.94 415.122C411.673 415.087 413.369 414.625 414.88 413.777C414.88 413.777 418.033 381.804 417.696 373.696C417.443 367.693 416.41 361.748 414.622 356.011L416.215 331.34C416.967 319.879 417.752 314.373 417.932 309.382L418.897 308.9C418.897 308.9 419.873 328.693 420.401 335.713C420.928 342.734 422.05 349.473 424.081 362.516C425.842 373.842 431.094 397.785 431.094 397.785C436.199 400.544 439.24 397.426 439.24 397.426C439.24 397.426 442.617 367.416 441.237 357.593Z" fill="#37474F"/>
<path d="M417.977 309.438C417.977 309.438 428.804 304.1 434.235 299.289C434.235 299.289 429.197 306.377 422.588 309.517C422.588 309.517 420.232 334.098 420.254 333.616L418.897 309.393L417.977 309.438Z" fill="#263238"/>
<path d="M408.327 218.49L410.975 233.024L424.114 232.071L421.354 215.597L408.327 218.49Z" fill="#B16668"/>
<path d="M437.994 231.016C436.693 227.068 431.666 222.762 426.65 223.693C419.19 224.96 411.838 226.797 404.658 229.188C400.069 230.825 395.884 234.795 395.502 249.912C395.502 249.912 393.954 285.136 393.932 291.943C405.477 296.519 417.495 296.373 424.115 294.926C437.927 291.91 439.588 286.179 439.588 286.179C439.588 286.179 439.767 260.846 439.352 249.912C439.004 240.604 438.881 233.718 437.994 231.016Z" fill="#E6AB04"/>
<path d="M398.195 200.815C398.195 200.815 394.829 206.12 395.267 206.624C395.704 207.129 398.218 207.533 398.218 207.533L398.195 200.815Z" fill="#B16668"/>
<path d="M407.463 186.159C400.506 187.785 398.565 190.903 398.161 201.994C397.735 213.589 398.992 217.2 400.551 218.726C401.606 219.757 407.283 219.847 410.178 218.961C413.769 217.84 421.848 214.823 425.528 208.868C429.87 201.904 430.835 192.596 425.943 188.895C419.054 183.692 410.279 185.464 407.463 186.159Z" fill="#B16668"/>
<path d="M408.485 219.286C410.841 217.39 410.628 216.168 410.628 216.168C408.933 217.749 402.684 219.106 400.529 218.691C401.416 219.543 405.478 219.734 408.485 219.286Z" fill="#9A4A4D"/>
<path d="M398.217 189.007C400.259 192.495 404.691 194.166 404.691 194.166C406.015 195.68 405.286 201.601 407.631 202.543C407.631 202.543 408.641 198.236 412.254 198.685C415.867 199.134 416.495 203.765 414.274 206.636C412.052 209.507 409.886 208.464 409.886 208.464C409.886 208.464 410.133 214.576 412.927 217.985C412.927 217.985 416.035 218.916 421.69 217.581C425.157 216.751 429.993 212.288 431.968 207.623C436.131 197.754 436.243 188.962 429.948 186.473C429.174 181.987 425.584 180.047 421.522 179.206C412.77 177.411 407.137 182.862 400.405 182.391C396.556 182.121 395.838 184.925 398.217 189.007Z" fill="#263238"/>
<path d="M430.084 187.975L434.213 185.418C433.874 184.871 433.331 184.481 432.704 184.334C432.077 184.187 431.417 184.294 430.869 184.633C430.322 184.973 429.931 185.515 429.784 186.142C429.637 186.769 429.745 187.428 430.084 187.975Z" fill="#263238"/>
<path d="M405.017 229.109C405.017 229.109 398.487 230.321 395.121 235.502C391.755 240.683 376.955 259.164 376.955 259.164C376.955 259.164 355.715 248.544 354.671 247.277C353.628 246.009 354.222 243.475 354.503 242.073C354.783 240.671 355.266 237.587 355.625 236.69C356.175 235.165 353.908 235.569 352.584 237.004C351.26 238.44 350.654 241.221 349.992 241.692C349.33 242.163 344.281 236.365 341.824 233.561C339.366 230.758 338.222 228.807 336.584 229.962C335.394 230.792 336.157 232.451 337.919 234.851C338.727 235.869 339.476 236.933 340.163 238.036C340.376 238.462 339.725 238.81 339.467 239.045C338.996 239.46 338.143 240.167 338.087 240.828C338.101 241.203 338.078 241.579 338.02 241.95C337.795 242.746 336.797 243.127 336.528 243.901C336.326 244.473 336.528 245.101 336.427 245.695C336.359 246.077 336.146 246.424 336.079 246.817C336.053 247.197 336.11 247.578 336.246 247.934C336.381 248.29 336.592 248.613 336.864 248.88C338.581 250.921 340.937 251.706 343.204 252.951C345.078 253.994 347.019 254.443 349.173 255.407C351.327 256.371 376.787 275.167 380.759 272.98C384.731 270.793 405.084 247.019 405.084 247.019C406.807 244.347 407.717 241.233 407.705 238.054C407.693 234.875 406.759 231.769 405.017 229.109Z" fill="#B16668"/>
<path d="M407.295 228.347C404.49 228.672 400.563 228.145 395.053 234.055C390.632 239.114 386.51 244.427 382.711 249.968C383.432 252.882 384.981 255.526 387.171 257.581C389.361 259.637 392.098 261.016 395.053 261.552C395.053 261.552 404.681 251.695 407.396 246.267C410.111 240.84 410.605 232.014 407.295 228.347Z" fill="#E6AB04"/>
<path opacity="0.1" d="M407.295 228.347C404.49 228.672 400.563 228.145 395.053 234.055C390.632 239.114 386.51 244.427 382.711 249.968C383.432 252.882 384.981 255.526 387.171 257.581C389.361 259.637 392.098 261.016 395.053 261.552C395.053 261.552 404.681 251.695 407.396 246.267C410.111 240.84 410.605 232.014 407.295 228.347Z" fill="black"/>
</g>
<defs>
<clipPath id="clip0_888_8264">
<rect width="463" height="502" fill="white" transform="translate(109)"/>
</clipPath>
</defs>
</svg>
