<svg width="641" height="469" viewBox="0 0 641 469" fill="none" xmlns="http://www.w3.org/2000/svg">
<ellipse cx="320.5" cy="405.5" rx="320.5" ry="63.5" fill="black" fill-opacity="0.04"/>
<path d="M515.971 89.9346H164.32C151.774 89.9346 141.604 100.086 141.604 112.608V296.578C141.604 309.1 151.774 319.251 164.32 319.251H515.971C528.517 319.251 538.687 309.1 538.687 296.578V112.608C538.687 100.086 528.517 89.9346 515.971 89.9346Z" fill="#FBF6ED"/>
<path d="M384.673 39.1095L396.771 43.4704H309.785C309.785 43.4704 312.955 39.2891 322.173 39.9178C322.173 37.1136 323.003 33.6108 325.403 32.1339C326.611 31.41 327.981 30.9965 329.389 30.9304C330.797 30.8642 332.2 31.1474 333.471 31.7546C332.991 25.3579 338.63 18.5619 345.029 17.8534C348.245 17.608 351.438 18.5591 353.992 20.5232C356.547 22.4873 358.284 25.3257 358.867 28.4914C359.876 27.6896 361.078 27.1648 362.353 26.9688C363.627 26.7727 364.931 26.9123 366.136 27.3737C367.328 27.8498 368.373 28.6308 369.166 29.6381C369.959 30.6454 370.473 31.8435 370.655 33.1118C376.814 30.7168 381.713 33.2017 384.673 39.1095Z" fill="#FBF6ED"/>
<path d="M619.734 343.541H405.66C395.571 343.541 387.393 351.702 387.393 361.768C387.393 371.835 395.571 379.996 405.66 379.996H619.734C629.822 379.996 638.001 371.835 638.001 361.768C638.001 351.702 629.822 343.541 619.734 343.541Z" fill="#E0E0E0"/>
<path d="M449.592 151.807H445.952V225.045H449.592V151.807Z" fill="#F3964D"/>
<path d="M451.402 151.807H447.762V225.045H451.402V151.807Z" fill="#FFC74D"/>
<path d="M480.437 151.807H476.797V225.045H480.437V151.807Z" fill="#F3964D"/>
<path d="M482.257 151.807H478.617V225.045H482.257V151.807Z" fill="#FFC74D"/>
<path d="M445.552 153.832H482.646C483.724 153.832 484.757 153.405 485.52 152.646C486.283 151.886 486.713 150.856 486.716 149.78C486.716 149.247 486.61 148.72 486.406 148.227C486.201 147.735 485.901 147.288 485.523 146.912C485.145 146.535 484.696 146.237 484.203 146.034C483.709 145.831 483.18 145.727 482.646 145.729H445.552C444.476 145.729 443.443 146.155 442.682 146.915C441.921 147.675 441.493 148.706 441.493 149.78C441.493 150.855 441.921 151.885 442.682 152.645C443.443 153.405 444.476 153.832 445.552 153.832Z" fill="#E3AC0C"/>
<path d="M492.804 360.077C496.52 360.077 499.533 357.07 499.533 353.361C499.533 349.651 496.52 346.645 492.804 346.645C489.088 346.645 486.075 349.651 486.075 353.361C486.075 357.07 489.088 360.077 492.804 360.077Z" fill="#0F2739"/>
<path d="M494.454 360.077C498.171 360.077 501.183 357.07 501.183 353.361C501.183 349.651 498.171 346.645 494.454 346.645C490.738 346.645 487.726 349.651 487.726 353.361C487.726 357.07 490.738 360.077 494.454 360.077Z" fill="#FFC74D"/>
<path d="M473.488 360.077C477.204 360.077 480.217 357.07 480.217 353.361C480.217 349.651 477.204 346.645 473.488 346.645C469.771 346.645 466.759 349.651 466.759 353.361C466.759 357.07 469.771 360.077 473.488 360.077Z" fill="#0F2739"/>
<path d="M475.137 360.077C478.853 360.077 481.866 357.07 481.866 353.361C481.866 349.651 478.853 346.645 475.137 346.645C471.421 346.645 468.408 349.651 468.408 353.361C468.408 357.07 471.421 360.077 475.137 360.077Z" fill="#0F2739"/>
<path d="M447.832 360.077C451.549 360.077 454.561 357.07 454.561 353.361C454.561 349.651 451.549 346.645 447.832 346.645C444.116 346.645 441.104 349.651 441.104 353.361C441.104 357.07 444.116 360.077 447.832 360.077Z" fill="#0F2739"/>
<path d="M449.472 360.077C453.188 360.077 456.201 357.07 456.201 353.361C456.201 349.651 453.188 346.645 449.472 346.645C445.756 346.645 442.743 349.651 442.743 353.361C442.743 357.07 445.756 360.077 449.472 360.077Z" fill="#FFC74D"/>
<path d="M428.515 360.077C432.231 360.077 435.244 357.07 435.244 353.361C435.244 349.651 432.231 346.645 428.515 346.645C424.799 346.645 421.786 349.651 421.786 353.361C421.786 357.07 424.799 360.077 428.515 360.077Z" fill="#0F2739"/>
<path d="M430.155 360.077C433.871 360.077 436.884 357.07 436.884 353.361C436.884 349.651 433.871 346.645 430.155 346.645C426.438 346.645 423.426 349.651 423.426 353.361C423.426 357.07 426.438 360.077 430.155 360.077Z" fill="#0F2739"/>
<path d="M425.385 219.277C422.373 219.277 419.484 220.472 417.354 222.598C415.224 224.724 414.027 227.607 414.027 230.614V336.176C414.03 339.182 415.228 342.064 417.357 344.189C419.486 346.315 422.374 347.51 425.385 347.512H438.163V219.277H425.385Z" fill="#0D442D"/>
<path d="M501.073 219.277H438.164C431.891 219.277 426.806 224.353 426.806 230.614V336.176C426.806 342.437 431.891 347.512 438.164 347.512H501.073C507.346 347.512 512.431 342.437 512.431 336.176V230.614C512.431 224.353 507.346 219.277 501.073 219.277Z" fill="#E3AC0C"/>
<path d="M488.715 252.419H446.982C443.951 252.419 441.493 254.872 441.493 257.898V331.546C441.493 334.571 443.951 337.024 446.982 337.024H488.715C491.747 337.024 494.204 334.571 494.204 331.546V257.898C494.204 254.872 491.747 252.419 488.715 252.419Z" fill="#0D442D"/>
<path d="M496.163 252.419H454.43C451.399 252.419 448.941 254.872 448.941 257.898V331.546C448.941 334.571 451.399 337.024 454.43 337.024H496.163C499.195 337.024 501.653 334.571 501.653 331.546V257.898C501.653 254.872 499.195 252.419 496.163 252.419Z" fill="#D7A004"/>
<path d="M496.964 322.823H482.146V332.194H496.964V322.823Z" fill="#FBF6ED"/>
<path d="M501.283 347.512H426.565V349.108H501.283V347.512Z" fill="#0F2739"/>
<path d="M505.862 62.6506C523.196 62.6506 537.247 48.6258 537.247 31.3253C537.247 14.0248 523.196 0 505.862 0C488.529 0 474.478 14.0248 474.478 31.3253C474.478 48.6258 488.529 62.6506 505.862 62.6506Z" fill="#FFC74D"/>
<path d="M448.452 125.91H458.86L460.07 116.39H447.232L448.452 125.91Z" fill="#FFC74D"/>
<path d="M448.382 118.026L447.232 107.558H448.662L449.812 118.026H448.382ZM458.92 118.026L460.07 107.558H458.651L457.501 118.026H458.92Z" fill="#FFC74D"/>
<path d="M458.651 107.558H460.07L459.93 108.775L458.481 109.045L458.651 107.558ZM448.652 107.558H447.232L447.612 111.04L449.012 110.781L448.652 107.558Z" fill="#0F2739"/>
<path d="M432.444 63.9184C431.794 56.384 432.444 28.7012 453.651 28.7012C417.897 28.7012 416.767 56.384 417.857 63.9184C418.946 71.4529 422.986 80.2746 434.334 89.8648C444.092 98.0879 446.012 106.261 446.332 108.177H449.331C448.481 101.572 446.039 95.2708 442.213 89.8149C436.661 82.228 433.285 73.2756 432.444 63.9184Z" fill="#E3AC0C"/>
<path d="M432.444 63.9184C433.276 73.293 436.653 82.2636 442.213 89.8648C446.035 95.3052 448.481 101.588 449.341 108.177H453.651V28.7012C432.464 28.7012 431.794 56.384 432.444 63.9184Z" fill="#D7A004"/>
<path d="M474.868 63.9179C474.032 73.2914 470.655 82.2609 465.099 89.8643C461.268 95.2962 458.809 101.572 457.931 108.157H460.93C461.3 106.24 463.21 98.0673 472.928 89.8443C484.286 80.2741 488.306 71.4922 489.405 63.8979C490.505 56.3036 489.405 28.6807 453.611 28.6807C474.838 28.7006 475.508 56.3834 474.868 63.9179Z" fill="#D7A004"/>
<path d="M465.099 89.8141C470.655 82.2107 474.032 73.2412 474.868 63.8676C475.508 56.3332 474.868 28.6504 453.651 28.6504V108.106H457.931C458.809 101.521 461.268 95.2459 465.099 89.8141Z" fill="#E3AC0C"/>
<path d="M458.93 76.3922L453.711 79.7653L448.492 76.3922C435.444 67.9796 435.444 61.962 435.444 59.7067C435.447 57.5361 436.186 55.4303 437.541 53.7328C438.897 52.0354 440.788 50.8466 442.908 50.3603C445.027 49.874 447.249 50.1189 449.211 51.0551C451.173 51.9913 452.76 53.5636 453.711 55.5153C454.671 53.5824 456.256 52.029 458.21 51.1061C460.164 50.1832 462.372 49.9448 464.478 50.4294C466.585 50.914 468.466 52.0933 469.817 53.7767C471.169 55.4602 471.913 57.5493 471.928 59.7067C471.928 61.962 471.928 67.9696 458.93 76.3922Z" fill="white"/>
<path d="M551.714 95.9917H556.374L556.924 91.7305H551.164L551.714 95.9917Z" fill="#FFC74D"/>
<path d="M551.684 92.4589L551.164 87.7686H551.804L552.324 92.4589H551.684ZM556.404 92.4589L556.914 87.8185H556.274L555.754 92.5088L556.404 92.4589Z" fill="#FFC74D"/>
<path d="M556.284 87.8184H556.914L556.854 88.3473L556.204 88.467L556.284 87.8184ZM551.804 87.8184H551.164L551.334 89.3751L551.964 89.2654L551.804 87.8184Z" fill="#0F2739"/>
<path d="M544.536 68.1995C544.246 64.8265 544.536 52.4121 554.044 52.4121C538.047 52.4121 537.507 64.8265 537.997 68.1995C538.487 71.5725 540.297 75.5343 545.386 79.8255C549.755 83.5079 550.615 87.1803 550.785 88.0385H552.115C551.725 85.0871 550.627 82.2731 548.915 79.8355C546.42 76.428 544.905 72.4042 544.536 68.1995Z" fill="#F3964D"/>
<path d="M544.536 68.1995C544.905 72.4042 546.42 76.428 548.915 79.8355C550.629 82.276 551.727 85.0936 552.115 88.0485H554.044V52.4121C544.546 52.4121 544.246 64.8664 544.536 68.1995Z" fill="#FFC74D"/>
<path d="M563.552 68.1993C563.183 72.404 561.668 76.4278 559.173 79.8353C557.459 82.2758 556.362 85.0934 555.973 88.0483H557.303C557.473 87.1901 558.303 83.5177 562.702 79.8353C567.791 75.5441 569.601 71.6122 570.091 68.2093C570.581 64.8063 570.091 52.4219 554.094 52.4219C563.542 52.4119 563.842 64.8662 563.552 68.1993Z" fill="#FFC74D"/>
<path d="M559.173 79.8353C561.667 76.4306 563.181 72.4105 563.552 68.2093C563.842 64.8362 563.552 52.4219 554.044 52.4219V88.0483H555.974C556.362 85.0934 557.459 82.2758 559.173 79.8353Z" fill="#F3964D"/>
<path d="M589.918 125.182H524.489V198.351H589.918V125.182Z" fill="#E3AC0C"/>
<path d="M589.918 125.182H524.489V143.813H589.918V125.182Z" fill="#A77E08"/>
<path d="M516.101 198.36H524.489V125.191H516.101V198.36Z" fill="#0F2739"/>
<path d="M533.178 153.403H547.685V163.662H533.178V153.403ZM581.23 188.77H566.722V178.492H581.23V188.77Z" fill="#A77E08"/>
<path d="M549.915 153.403H564.412V163.662H549.915V153.403ZM564.412 176.226H549.915V165.947H564.412V176.226ZM533.138 165.947H547.645V176.226H533.178L533.138 165.947ZM547.645 188.77H533.178V178.491H547.685L547.645 188.77ZM564.412 188.77H549.915V178.491H564.412V188.77ZM581.19 176.226H566.722V165.947H581.23L581.19 176.226ZM566.722 163.662V153.383H581.23V163.662H566.722Z" fill="#EEDBB1"/>
<path d="M536.707 117.108C534.585 117.108 532.551 117.95 531.051 119.447C529.551 120.944 528.708 122.975 528.708 125.092H533.507C533.507 124.46 533.695 123.843 534.046 123.318C534.398 122.793 534.898 122.383 535.482 122.142C536.067 121.9 536.71 121.837 537.331 121.96C537.951 122.083 538.522 122.387 538.969 122.834C539.416 123.28 539.721 123.849 539.845 124.469C539.968 125.088 539.905 125.73 539.663 126.314C539.42 126.897 539.01 127.396 538.484 127.747C537.958 128.098 537.339 128.285 536.707 128.285V133.085C538.828 133.085 540.863 132.244 542.363 130.747C543.863 129.25 544.705 127.219 544.705 125.102C544.705 122.985 543.863 120.954 542.363 119.457C540.863 117.959 538.828 117.118 536.707 117.118V117.108Z" fill="#EEDBB1"/>
<path d="M556.813 117.108C554.692 117.108 552.657 117.95 551.157 119.447C549.657 120.944 548.814 122.975 548.814 125.092H553.624C553.624 124.46 553.811 123.843 554.163 123.318C554.514 122.793 555.014 122.383 555.599 122.142C556.183 121.9 556.827 121.837 557.447 121.96C558.068 122.083 558.638 122.387 559.085 122.834C559.533 123.28 559.838 123.849 559.961 124.469C560.085 125.088 560.021 125.73 559.779 126.314C559.537 126.897 559.127 127.396 558.601 127.747C558.074 128.098 557.456 128.285 556.823 128.285V133.085C558.944 133.085 560.979 132.244 562.479 130.747C563.979 129.25 564.822 127.219 564.822 125.102C564.822 122.985 563.979 120.954 562.479 119.457C560.979 117.959 558.944 117.118 556.823 117.118L556.813 117.108Z" fill="#EEDBB1"/>
<path d="M576.911 117.108C574.789 117.108 572.755 117.95 571.255 119.447C569.755 120.944 568.912 122.975 568.912 125.092H573.711C573.711 124.46 573.899 123.843 574.251 123.318C574.602 122.793 575.102 122.383 575.686 122.142C576.271 121.9 576.914 121.837 577.535 121.96C578.156 122.083 578.726 122.387 579.173 122.834C579.621 123.28 579.925 123.849 580.049 124.469C580.172 125.088 580.109 125.73 579.867 126.314C579.625 126.897 579.214 127.396 578.688 127.747C578.162 128.098 577.544 128.285 576.911 128.285V133.085C579.032 133.085 581.067 132.244 582.567 130.747C584.067 129.25 584.909 127.219 584.909 125.102C584.909 122.985 584.067 120.954 582.567 119.457C581.067 117.959 579.032 117.118 576.911 117.118V117.108Z" fill="#EEDBB1"/>
<path d="M146.773 172.484C191.478 172.484 227.719 136.311 227.719 91.6906C227.719 47.0698 191.478 10.8975 146.773 10.8975C102.067 10.8975 65.8262 47.0698 65.8262 91.6906C65.8262 136.311 102.067 172.484 146.773 172.484Z" fill="#E3AC0C"/>
<path d="M186.216 56.7233C184.409 55.7675 182.343 55.4145 180.32 55.7163C178.298 56.018 176.425 56.9585 174.977 58.3999L160.29 73.0296L112.298 69.6466C111.397 69.5565 110.492 69.7742 109.731 70.2642C108.97 70.7541 108.398 71.4874 108.109 72.3439C107.82 73.2004 107.831 74.1295 108.139 74.9792C108.448 75.8289 109.036 76.5489 109.808 77.0214L137.984 95.3735L126.096 107.229L102.85 102.878C102.058 102.73 101.241 102.839 100.516 103.189C99.7919 103.539 99.1985 104.111 98.8231 104.821C98.4476 105.531 98.3098 106.343 98.4299 107.137C98.5499 107.932 98.9214 108.667 99.4901 109.235L122.686 132.337C123.393 133.042 124.351 133.438 125.351 133.438C126.35 133.438 127.308 133.042 128.015 132.337L152.381 107.967L174.807 85.5438L188.465 71.8521C189.513 70.7979 190.299 69.5145 190.763 68.1038C191.226 66.6931 191.354 65.194 191.136 63.7255C190.917 62.257 190.359 60.8595 189.505 59.644C188.651 58.4285 187.524 57.4285 186.216 56.7233Z" fill="white"/>
<path d="M147.043 268.275H104.97V286.049H147.043V268.275Z" fill="#EEDBB1"/>
<path d="M133.385 262.697H118.607V268.236H133.385V262.697Z" fill="#0F2739"/>
<path d="M146.833 208.399H105.42C104.73 236.042 92.502 237.938 92.502 262.697H159.741C159.741 237.938 147.513 236.042 146.833 208.399Z" fill="#FFC74D"/>
<path d="M105.42 208.399C104.73 236.042 92.502 237.938 92.502 262.697H104.5C104.5 237.938 115.188 236.042 115.788 208.399H105.42Z" fill="#F3964D"/>
<path d="M153.691 272.747V262.697H152.461V272.747C152.041 272.892 151.686 273.181 151.459 273.562C151.233 273.944 151.149 274.393 151.222 274.831C151.296 275.268 151.523 275.665 151.862 275.952C152.202 276.238 152.632 276.396 153.076 276.396C153.521 276.396 153.951 276.238 154.29 275.952C154.63 275.665 154.857 275.268 154.93 274.831C155.004 274.393 154.92 273.944 154.693 273.562C154.466 273.181 154.111 272.892 153.691 272.747Z" fill="#0F2739"/>
<path d="M215.521 362.681H55.6377C48.1058 362.681 42 368.775 42 376.293C42 383.81 48.1058 389.904 55.6377 389.904H215.521C223.053 389.904 229.159 383.81 229.159 376.293C229.159 368.775 223.053 362.681 215.521 362.681Z" fill="#E0E0E0"/>
<path d="M166.439 286.059H84.9323C78.6594 286.059 73.5742 291.134 73.5742 297.395V324.509C73.5742 330.77 78.6594 335.846 84.9323 335.846H166.439C172.712 335.846 177.797 330.77 177.797 324.509V297.395C177.797 291.134 172.712 286.059 166.439 286.059Z" fill="#0F2739"/>
<path d="M103.32 335.836H184.826C191.099 335.836 196.185 330.76 196.185 324.499V297.385C196.185 291.124 191.099 286.049 184.826 286.049H103.32C97.0472 286.049 91.9621 291.124 91.9621 297.385V324.499C91.9621 330.76 97.0472 335.836 103.32 335.836Z" fill="#D7A004"/>
<path d="M94.2314 309.88V297.386C94.2314 294.982 95.1876 292.676 96.8899 290.975C98.5921 289.274 100.901 288.317 103.31 288.314H184.826C187.236 288.317 189.546 289.274 191.25 290.974C192.954 292.675 193.912 294.981 193.915 297.386V309.87L94.2314 309.88Z" fill="#E3AC0C"/>
<path d="M193.915 312.016V324.5C193.912 326.905 192.954 329.211 191.25 330.911C189.546 332.612 187.236 333.568 184.826 333.571H103.31C100.901 333.568 98.5921 332.612 96.8899 330.911C95.1876 329.21 94.2314 326.904 94.2314 324.5V312.016H193.915Z" fill="#E3AC0C"/>
<path d="M135.924 301.068H152.222C152.752 301.068 153.261 300.858 153.636 300.483C154.011 300.109 154.221 299.601 154.221 299.072C154.221 298.543 154.011 298.035 153.636 297.661C153.261 297.286 152.752 297.076 152.222 297.076H135.924C135.394 297.076 134.886 297.286 134.51 297.661C134.135 298.035 133.925 298.543 133.925 299.072C133.925 299.601 134.135 300.109 134.51 300.483C134.886 300.858 135.394 301.068 135.924 301.068Z" fill="white"/>
<path d="M135.924 324.759H152.222C152.752 324.759 153.261 324.549 153.636 324.175C154.011 323.8 154.221 323.293 154.221 322.763C154.221 322.234 154.011 321.726 153.636 321.352C153.261 320.978 152.752 320.768 152.222 320.768H135.924C135.394 320.768 134.886 320.978 134.51 321.352C134.135 321.726 133.925 322.234 133.925 322.763C133.925 323.293 134.135 323.8 134.51 324.175C134.886 324.549 135.394 324.759 135.924 324.759Z" fill="white"/>
<path d="M84.9323 335.836L68.4551 376.292H70.7247L91.9511 335.836H84.9323Z" fill="#0F2739"/>
<path d="M84.9323 335.836L68.4551 376.292H70.7247L91.9511 335.836H84.9323Z" fill="#0F2739"/>
<path d="M103.309 335.836L86.832 376.292H89.1017L110.338 335.836H103.309Z" fill="#FFC74D"/>
<path d="M184.826 335.836L201.303 376.292H199.033L177.797 335.836H184.826Z" fill="#FFC74D"/>
<path d="M560.123 259.773C563.806 259.773 566.792 256.793 566.792 253.117C566.792 249.441 563.806 246.461 560.123 246.461C556.44 246.461 553.454 249.441 553.454 253.117C553.454 256.793 556.44 259.773 560.123 259.773Z" fill="#EEDBB1"/>
<path d="M530.528 236.292C530.528 237.05 530.303 237.791 529.881 238.421C529.459 239.051 528.86 239.542 528.158 239.832C527.457 240.122 526.685 240.198 525.94 240.05C525.195 239.903 524.511 239.538 523.974 239.002C523.437 238.466 523.072 237.783 522.923 237.04C522.775 236.296 522.851 235.526 523.142 234.826C523.432 234.125 523.925 233.527 524.556 233.106C525.187 232.685 525.93 232.46 526.689 232.46C527.707 232.46 528.684 232.864 529.404 233.582C530.124 234.301 530.528 235.276 530.528 236.292Z" fill="#EEDBB1"/>
<path d="M559.704 292.525H551.625V361.373H559.704V292.525Z" fill="#FFAF18"/>
<path d="M559.703 361.373H604.136V292.525H559.703V361.373Z" fill="#D7A004"/>
<path d="M562.822 292.526C562.822 289.667 563.96 286.926 565.985 284.905C568.01 282.884 570.757 281.748 573.621 281.748C576.484 281.748 579.231 282.884 581.256 284.905C583.281 286.926 584.419 289.667 584.419 292.526" stroke="#0F2739" stroke-width="3" stroke-miterlimit="10"/>
<path d="M570.911 292.526C570.997 289.723 572.172 287.063 574.189 285.111C576.206 283.158 578.905 282.066 581.714 282.066C584.524 282.066 587.223 283.158 589.24 285.111C591.256 287.063 592.432 289.723 592.517 292.526" stroke="#0F2739" stroke-width="3" stroke-miterlimit="10"/>
<path d="M539.847 317.165H534.657V361.374H539.847V317.165Z" fill="#F3964D"/>
<path d="M539.847 361.373H568.382V317.164H539.847V361.373Z" fill="#FFC74D"/>
<path d="M561.273 323.192C561.273 325.061 560.529 326.853 559.205 328.174C557.882 329.496 556.086 330.238 554.214 330.238C552.342 330.238 550.547 329.496 549.223 328.174C547.899 326.853 547.155 325.061 547.155 323.192" stroke="white" stroke-width="3" stroke-miterlimit="10" stroke-linecap="round"/>
<path d="M377.983 382.81H255.014C251.088 382.81 247.905 385.986 247.905 389.905C247.905 393.824 251.088 397 255.014 397H377.983C381.91 397 385.092 393.824 385.092 389.905C385.092 385.986 381.91 382.81 377.983 382.81Z" fill="#E0E0E0"/>
<path d="M587.298 104.963C593.08 104.963 597.767 100.285 597.767 94.5148C597.767 88.7443 593.08 84.0664 587.298 84.0664C581.517 84.0664 576.83 88.7443 576.83 94.5148C576.83 100.285 581.517 104.963 587.298 104.963Z" fill="#EEDBB1"/>
<path d="M200.804 276.958C204.399 276.958 207.313 274.049 207.313 270.461C207.313 266.873 204.399 263.965 200.804 263.965C197.209 263.965 194.295 266.873 194.295 270.461C194.295 274.049 197.209 276.958 200.804 276.958Z" fill="white"/>
<path d="M285.28 57.8806C283.78 57.8608 282.298 58.2031 280.96 58.8785L275.571 50.9549H282.75C283.051 50.9822 283.33 51.1208 283.534 51.3433C283.737 51.5657 283.85 51.8561 283.85 52.1574C283.85 52.4587 283.737 52.7491 283.534 52.9715C283.33 53.194 283.051 53.3326 282.75 53.3599H281.96C281.802 53.3451 281.643 53.3634 281.492 53.4135C281.342 53.4637 281.204 53.5447 281.086 53.6513C280.969 53.758 280.875 53.8879 280.811 54.0327C280.747 54.1776 280.714 54.3342 280.714 54.4926C280.714 54.6509 280.747 54.8076 280.811 54.9524C280.875 55.0973 280.969 55.2272 281.086 55.3338C281.204 55.4404 281.342 55.5214 281.492 55.5716C281.643 55.6218 281.802 55.6401 281.96 55.6252H282.82C283.709 55.5776 284.546 55.1915 285.159 54.5464C285.772 53.9012 286.113 53.0462 286.113 52.1574C286.113 51.2686 285.772 50.4136 285.159 49.7684C284.546 49.1233 283.709 48.7372 282.82 48.6896H273.502C273.295 48.6902 273.092 48.7469 272.915 48.8538C272.738 48.9606 272.594 49.1134 272.497 49.296C272.401 49.4785 272.355 49.6838 272.367 49.8899C272.378 50.096 272.446 50.2951 272.562 50.4659L274.671 53.5695H264.063L262.513 50.9549H262.803C262.961 50.9697 263.121 50.9514 263.271 50.9012C263.422 50.8511 263.56 50.7701 263.677 50.6634C263.795 50.5568 263.888 50.4269 263.953 50.2821C264.017 50.1372 264.05 49.9806 264.05 49.8222C264.05 49.6638 264.017 49.5072 263.953 49.3624C263.888 49.2175 263.795 49.0876 263.677 48.981C263.56 48.8744 263.422 48.7934 263.271 48.7432C263.121 48.693 262.961 48.6747 262.803 48.6896H258.564C258.406 48.6747 258.247 48.693 258.096 48.7432C257.946 48.7934 257.807 48.8744 257.69 48.981C257.573 49.0876 257.479 49.2175 257.415 49.3624C257.351 49.5072 257.318 49.6638 257.318 49.8222C257.318 49.9806 257.351 50.1372 257.415 50.2821C257.479 50.4269 257.573 50.5568 257.69 50.6634C257.807 50.7701 257.946 50.8511 258.096 50.9012C258.247 50.9514 258.406 50.9697 258.564 50.9549H259.884L262.073 54.6672L259.274 58.8785C257.491 57.976 255.467 57.6643 253.495 57.9886C251.522 58.313 249.705 59.2564 248.307 60.682C246.908 62.1076 246.002 63.9411 245.719 65.916C245.436 67.891 245.791 69.9046 246.733 71.6643C247.674 73.424 249.154 74.8382 250.956 75.7015C252.758 76.5647 254.789 76.8321 256.753 76.4646C258.718 76.0972 260.514 75.1142 261.881 73.6583C263.247 72.2024 264.114 70.3496 264.353 68.3689H270.792C270.891 68.384 270.993 68.384 271.092 68.3689H271.212L271.362 68.309C271.478 68.2385 271.579 68.1471 271.662 68.0396L271.722 67.9498C271.752 67.9122 271.779 67.8722 271.802 67.83L276.961 56.9924L279.121 60.1758C277.459 61.6157 276.357 63.5923 276.007 65.7604C275.657 67.9286 276.081 70.1505 277.205 72.0384C278.329 73.9263 280.082 75.3602 282.157 76.0897C284.233 76.8193 286.499 76.7981 288.56 76.0299C290.621 75.2617 292.347 73.7954 293.435 71.8868C294.524 69.9782 294.906 67.7487 294.515 65.5875C294.125 63.4263 292.986 61.4707 291.298 60.0621C289.61 58.6535 287.48 57.8814 285.28 57.8806ZM263.353 56.8826L268.802 66.1236H264.353C264.074 63.7988 262.932 61.6627 261.154 60.1359L263.353 56.8826ZM262.064 66.1236H257.154L259.884 62.0619C261.035 63.1297 261.801 64.5469 262.064 66.0936V66.1236ZM255.065 74.3665C253.998 74.3659 252.946 74.1266 251.985 73.6662C251.023 73.2058 250.178 72.536 249.51 71.7062C248.843 70.8764 248.37 69.9077 248.127 68.8714C247.884 67.8352 247.878 66.7578 248.107 65.7185C248.337 64.6793 248.797 63.7047 249.454 62.8666C250.111 62.0284 250.948 61.348 251.904 60.8756C252.859 60.4031 253.909 60.1506 254.975 60.1365C256.041 60.1225 257.097 60.3474 258.064 60.7946L254.155 66.6325C254.044 66.8038 253.981 67.0018 253.972 67.2057C253.964 67.4096 254.011 67.612 254.108 67.7916C254.205 67.9712 254.349 68.1214 254.524 68.2265C254.7 68.3316 254.9 68.3877 255.105 68.3889H262.103C261.824 70.0561 260.959 71.5696 259.664 72.6592C258.369 73.7487 256.728 74.3433 255.035 74.3366L255.065 74.3665ZM270.682 64.8661L265.393 55.8847H274.961L270.682 64.8661ZM285.28 74.3865C283.853 74.3875 282.46 73.961 281.279 73.1621C280.099 72.3632 279.186 71.2289 278.659 69.9061C278.132 68.5833 278.016 67.1331 278.324 65.7434C278.633 64.3536 279.353 63.0885 280.39 62.1118L284.34 67.86C284.445 68.0113 284.586 68.1349 284.749 68.2201C284.913 68.3053 285.095 68.3495 285.28 68.349C285.507 68.3497 285.729 68.2838 285.92 68.1593C286.168 67.9895 286.339 67.7282 286.396 67.4328C286.452 67.1373 286.388 66.8316 286.219 66.5826L282.27 60.7746C283.356 60.267 284.553 60.0413 285.749 60.1186C286.946 60.1959 288.103 60.5735 289.115 61.2166C290.126 61.8596 290.958 62.7471 291.534 63.7969C292.11 64.8466 292.41 66.0245 292.408 67.2213C292.408 69.1084 291.657 70.9182 290.32 72.2526C288.984 73.5869 287.17 74.3366 285.28 74.3366V74.3865Z" fill="#FBF6ED"/>
<path d="M202.453 150.3C198.148 147.371 193.156 145.606 187.963 145.179C182.771 144.753 177.556 145.678 172.83 147.866C168.103 150.053 164.026 153.427 160.997 157.659C157.969 161.89 156.092 166.833 155.551 172.005C173.149 170.108 189.631 162.48 202.453 150.3Z" fill="#0F2739"/>
<path d="M190.395 202.043C207.021 202.043 220.5 188.59 220.5 171.995C220.5 155.4 207.021 141.947 190.395 141.947C173.768 141.947 160.29 155.4 160.29 171.995C160.29 188.59 173.768 202.043 190.395 202.043Z" fill="#FFC74D"/>
<path d="M190.395 195.865C203.604 195.865 214.311 185.178 214.311 171.995C214.311 158.811 203.604 148.124 190.395 148.124C177.187 148.124 166.479 158.811 166.479 171.995C166.479 185.178 177.187 195.865 190.395 195.865Z" stroke="#F3964D" stroke-width="2" stroke-miterlimit="10" stroke-linecap="round"/>
<path d="M188.536 189.209V187.214C186.655 186.976 184.858 186.292 183.297 185.218C181.904 184.289 180.783 183.008 180.047 181.505C179.848 181.116 179.742 180.685 179.737 180.248C179.745 179.991 179.785 179.736 179.857 179.49C180.064 178.953 180.463 178.512 180.977 178.252C181.294 178.059 181.656 177.952 182.027 177.943C182.476 178.006 182.905 178.167 183.285 178.413C183.665 178.66 183.986 178.986 184.227 179.37C184.905 180.43 185.853 181.292 186.973 181.868C188.094 182.445 189.347 182.716 190.605 182.653C191.996 182.685 193.363 182.284 194.515 181.505C195.065 181.162 195.519 180.686 195.836 180.121C196.152 179.555 196.32 178.92 196.325 178.272C196.334 177.651 196.168 177.041 195.844 176.511C195.52 175.981 195.052 175.554 194.495 175.278C193.479 174.758 192.396 174.381 191.275 174.161L190.655 173.991C188.045 173.62 185.56 172.635 183.407 171.117C182.468 170.441 181.705 169.549 181.183 168.518C180.661 167.486 180.395 166.345 180.407 165.189C180.412 163.041 181.268 160.982 182.787 159.461C184.333 157.923 186.329 156.917 188.486 156.587V154.801C188.486 154.53 188.54 154.262 188.647 154.013C188.753 153.765 188.91 153.54 189.106 153.353C189.294 153.162 189.52 153.011 189.769 152.911C190.019 152.812 190.287 152.765 190.555 152.775C190.813 152.769 191.069 152.818 191.307 152.918C191.545 153.017 191.759 153.166 191.935 153.353C192.124 153.544 192.273 153.77 192.373 154.018C192.472 154.267 192.521 154.533 192.515 154.801V156.587C193.926 156.741 195.285 157.205 196.495 157.945C197.705 158.685 198.736 159.683 199.514 160.868C199.684 161.137 199.778 161.448 199.784 161.766C199.784 161.886 199.784 162.026 199.734 162.225C199.613 162.646 199.39 163.03 199.084 163.343C198.675 163.685 198.166 163.883 197.633 163.909C197.1 163.934 196.574 163.784 196.135 163.483C195.388 162.78 194.547 162.186 193.635 161.716C192.634 161.317 191.563 161.123 190.486 161.147C189.164 161.112 187.863 161.489 186.766 162.225C186.275 162.538 185.871 162.971 185.593 163.482C185.315 163.994 185.171 164.567 185.176 165.149C185.183 165.785 185.385 166.404 185.755 166.921C186.125 167.439 186.646 167.831 187.246 168.043C188.795 168.71 190.42 169.183 192.085 169.45C194.304 169.923 196.399 170.854 198.234 172.185C199.12 172.872 199.831 173.758 200.31 174.77C200.789 175.783 201.023 176.893 200.994 178.013C200.986 180.242 200.124 182.385 198.584 184C196.963 185.687 194.83 186.792 192.515 187.144V189.14C192.515 189.669 192.304 190.177 191.929 190.551C191.554 190.925 191.046 191.135 190.515 191.135C190.001 191.131 189.507 190.928 189.138 190.569C188.77 190.21 188.554 189.723 188.536 189.209Z" fill="#FBF6ED"/>
<path d="M414.027 306.217C418.113 301.947 420.393 296.27 420.393 290.365C420.393 284.46 418.113 278.783 414.027 274.513V306.217Z" fill="#0F2739"/>
<path d="M402.365 309.571C414.826 306.746 422.632 294.373 419.801 281.937C416.97 269.5 404.574 261.709 392.114 264.534C379.654 267.36 371.848 279.732 374.679 292.169C377.509 304.605 389.905 312.397 402.365 309.571Z" fill="white"/>
<path d="M388.232 279.204L397.241 288.195L408.379 277.078" stroke="#FFC74D" stroke-width="3" stroke-linecap="round" stroke-linejoin="round"/>
<path d="M397.24 267.697V268.865" stroke="#FBF6ED" stroke-width="2" stroke-linecap="round" stroke-linejoin="round"/>
<path d="M397.24 306.418V305.25" stroke="#FBF6ED" stroke-width="2" stroke-linecap="round" stroke-linejoin="round"/>
<path d="M416.638 287.057H415.468" stroke="#FBF6ED" stroke-width="2" stroke-linecap="round" stroke-linejoin="round"/>
<path d="M377.844 287.057H379.014" stroke="#FBF6ED" stroke-width="2" stroke-linecap="round" stroke-linejoin="round"/>
<path d="M104.17 220.544C107.93 217.528 110.374 213.175 110.989 208.399H105.42C105.344 212.475 104.926 216.538 104.17 220.544Z" fill="#0F2739"/>
<path d="M559.073 39.698C561.58 39.698 563.613 37.6696 563.613 35.1674C563.613 32.6652 561.58 30.6367 559.073 30.6367C556.566 30.6367 554.534 32.6652 554.534 35.1674C554.534 37.6696 556.566 39.698 559.073 39.698Z" fill="#EEDBB1"/>
<path d="M372.055 108.207C371.635 104.275 370.105 100.483 369.965 96.5312C369.685 88.0887 375.674 82.0412 376.604 73.9179C377.194 68.7486 375.334 62.9406 370.785 60.3659C364.366 56.7434 356.477 60.9447 349.099 61.2042C341.97 61.4637 334.541 57.9808 327.932 60.6753C323.933 62.3019 321.083 65.9843 319.494 69.986C317.434 75.1554 318.834 82.6998 315.094 86.8113C311.795 90.4538 306.436 91.1922 302.036 93.4077C298.454 95.2927 295.498 98.1782 293.531 101.712C291.564 105.245 290.67 109.274 290.958 113.307C291.668 121.21 297.137 128.206 304.096 132.038C311.055 135.87 319.314 136.848 327.242 136.199C335.171 135.551 342.87 133.355 350.518 131.21C355.617 129.763 361.826 129.314 365.746 125.451C368.008 123.221 369.748 120.517 370.838 117.536C371.929 114.554 372.345 111.368 372.055 108.207Z" fill="#0F2739"/>
<path d="M271.072 250.213L205.673 231.252L193.765 241.231C193.765 241.231 279.51 280.889 291.748 280.889C303.986 280.889 307.216 253.137 307.216 253.137L271.072 250.213Z" fill="#F39E6E"/>
<path d="M307.185 253.117L271.071 250.213C281.843 256.001 293.792 259.27 306.015 259.773C306.855 255.941 307.185 253.117 307.185 253.117Z" fill="#0F2739"/>
<path d="M366.446 240.124C369.815 249.215 354.448 345.746 354.448 345.746L341.05 337.872L342.61 243.796L366.446 240.124Z" fill="#F39E6E"/>
<path d="M366.446 240.124L342.57 243.796L342.46 250.293L366.446 240.124Z" fill="#0F2739"/>
<path d="M292.458 169.899C273.841 213.759 271.071 250.214 271.071 250.214C271.071 250.214 294.507 261.64 324.722 252.06C355.217 242.39 366.445 240.084 366.445 240.084C361.208 227.921 355.28 216.066 348.688 204.578C338.91 187.982 335.69 178.532 335.69 178.532L292.458 169.899Z" fill="#EEDBB1"/>
<path d="M333.571 106.131L323.473 105.133C320.932 104.882 318.366 105.136 315.924 105.881C313.481 106.626 311.212 107.847 309.246 109.474L288.959 126.289L303.257 146.338L349.889 152.266L356.468 164.031L373.895 155.05L365.616 128.734C364.236 124.303 361.296 120.521 357.338 118.086L344.34 110.103L333.571 106.131Z" fill="#E3AC0C"/>
<path d="M349.838 152.266L354.797 161.138L356.067 137.566L347.769 152.007L349.838 152.266Z" fill="#0F2739"/>
<path d="M335.68 178.542L343.109 161.467C346.069 159.408 348.804 157.043 351.268 154.411C352.027 153.568 352.673 152.628 353.187 151.617C357.437 142.636 355.887 123.885 355.887 123.885L348.678 114.284C348.678 114.284 342.249 110.732 337.81 108.676C334.191 107.009 335.69 107.029 332.151 106.68C330.321 106.5 322.592 107.319 321.153 107.319C318.043 107.319 292.478 169.919 292.478 169.919L335.68 178.542Z" fill="#E3AC0C"/>
<path d="M346.199 108.775C346.199 108.775 349.728 111.589 349.838 113.625C349.948 115.661 347.098 124.433 345.709 124.044C344.319 123.655 340.839 114.972 340.839 114.972C340.839 114.972 332.231 120.96 330.751 120.281C329.271 119.603 329.601 104.554 335.15 104.314C338.95 104.205 346.199 108.775 346.199 108.775Z" fill="#E3AC0C"/>
<path d="M335.181 105.352L339.54 87.4394C339.54 87.4394 332.021 86.8007 333.861 81.2622C335.501 76.2725 340.86 78.2684 342.33 81.5516C342.33 81.5516 345.179 63.0398 360.107 68.0495C375.034 73.0591 366.496 92.7285 364.446 97.4986C360.847 105.901 353.068 107.258 348.539 105.762L346.609 111.031C346.609 111.031 344.959 115.671 340.67 113.975C334.951 111.769 335.181 105.352 335.181 105.352Z" fill="#F39E6E"/>
<path d="M351.298 84.1068C351.124 84.3885 351.036 84.7155 351.048 85.0465C351.059 85.3775 351.169 85.6978 351.362 85.9668C351.556 86.2359 351.825 86.4417 352.136 86.5583C352.446 86.6749 352.784 86.697 353.108 86.6219C353.431 86.5468 353.725 86.3779 353.952 86.1364C354.179 85.8949 354.329 85.5916 354.384 85.2649C354.439 84.9382 354.395 84.6027 354.259 84.3007C354.122 83.9987 353.9 83.7437 353.618 83.568C353.431 83.4507 353.222 83.3717 353.003 83.3354C352.785 83.299 352.562 83.3061 352.346 83.3561C352.13 83.4062 351.927 83.4983 351.747 83.6271C351.567 83.756 351.415 83.919 351.298 84.1068Z" fill="#0F2739"/>
<path d="M358.947 87.9185C358.772 88.2002 358.685 88.5271 358.696 88.8582C358.708 89.1892 358.817 89.5094 359.011 89.7785C359.204 90.0475 359.473 90.2534 359.784 90.3699C360.095 90.4865 360.433 90.5087 360.756 90.4336C361.079 90.3585 361.373 90.1896 361.6 89.948C361.827 89.7065 361.978 89.4033 362.032 89.0766C362.087 88.7499 362.043 88.4144 361.907 88.1123C361.771 87.8103 361.548 87.5554 361.267 87.3796C360.887 87.1456 360.43 87.0709 359.995 87.1718C359.561 87.2728 359.184 87.5412 358.947 87.9185Z" fill="#0F2752"/>
<path d="M354.787 92.9277C354.682 92.884 354.597 92.8018 354.55 92.6978C354.503 92.5939 354.497 92.476 354.534 92.368C354.571 92.2601 354.647 92.1702 354.748 92.1166C354.849 92.063 354.967 92.0497 355.077 92.0795C355.917 92.2491 356.417 92.2092 356.737 91.9198C357.247 91.4708 357.437 90.3231 357.297 88.5967C357.288 88.4776 357.326 88.3597 357.404 88.2689C357.482 88.1782 357.593 88.1219 357.712 88.1127C357.832 88.1034 357.95 88.1419 358.041 88.2195C358.132 88.2972 358.188 88.4077 358.197 88.5268C358.367 90.6325 358.097 91.9298 357.337 92.5984C356.99 92.8498 356.587 93.0145 356.162 93.0788C355.738 93.143 355.304 93.1049 354.897 92.9677L354.787 92.9277Z" fill="#0F2739"/>
<path d="M354.258 95.8026C352.975 94.9706 352.04 93.7004 351.628 92.23C351.6 92.1137 351.618 91.991 351.677 91.8872C351.737 91.7833 351.834 91.706 351.948 91.6712C352.064 91.6407 352.186 91.6573 352.29 91.7172C352.393 91.7771 352.468 91.8754 352.498 91.9905C352.859 93.2439 353.657 94.3271 354.748 95.0442C354.801 95.0741 354.848 95.1144 354.885 95.1628C354.922 95.2112 354.949 95.2665 354.964 95.3255C354.979 95.3846 354.981 95.446 354.972 95.5061C354.962 95.5662 354.94 95.6237 354.908 95.6751C354.875 95.7266 354.832 95.7709 354.782 95.8054C354.732 95.8398 354.675 95.8638 354.615 95.8757C354.556 95.8876 354.494 95.8873 354.434 95.8747C354.375 95.8622 354.318 95.8376 354.268 95.8026H354.258Z" fill="#0F2739"/>
<path d="M339.441 84.8243C339.342 84.7766 339.265 84.6939 339.225 84.5924C339.184 84.4909 339.183 84.3778 339.221 84.2754C339.343 83.9104 339.377 83.5217 339.318 83.1413C339.26 82.7608 339.112 82.3997 338.886 82.0877C338.661 81.7756 338.364 81.5217 338.02 81.3468C337.677 81.172 337.297 81.0812 336.911 81.082C336.792 81.082 336.677 81.0347 336.593 80.9505C336.508 80.8663 336.461 80.7521 336.461 80.633C336.461 80.5139 336.508 80.3996 336.593 80.3154C336.677 80.2312 336.792 80.1839 336.911 80.1839C337.443 80.1767 337.969 80.2977 338.444 80.5365C338.92 80.7754 339.33 81.125 339.641 81.5559C339.952 81.9868 340.155 82.4861 340.231 83.0117C340.308 83.5372 340.256 84.0734 340.081 84.5748C340.042 84.6872 339.961 84.7796 339.854 84.832C339.747 84.8844 339.624 84.8924 339.511 84.8542L339.441 84.8243Z" fill="#0F2752"/>
<path d="M337.72 83.4374C337.638 83.3934 337.569 83.3279 337.52 83.2478C337.463 83.1433 337.45 83.0204 337.484 82.9063C337.518 82.7922 337.596 82.6961 337.7 82.6391L339.15 81.8407C339.256 81.7826 339.379 81.7678 339.495 81.7995C339.611 81.8312 339.71 81.9069 339.77 82.0104C339.828 82.1165 339.841 82.2408 339.807 82.3566C339.774 82.4723 339.696 82.5702 339.59 82.6291L338.14 83.4275C338.076 83.4608 338.004 83.479 337.932 83.4807C337.859 83.4825 337.787 83.4677 337.72 83.4374Z" fill="#0F2752"/>
<path d="M351.948 80.9425C351.846 80.8906 351.763 80.8069 351.712 80.7041C351.662 80.6013 351.646 80.4849 351.668 80.3724C351.689 80.2599 351.746 80.1573 351.831 80.0802C351.916 80.003 352.024 79.9555 352.138 79.9446C353.152 79.8346 354.177 79.9892 355.113 80.3933C356.049 80.7974 356.864 81.4371 357.478 82.2498C357.521 82.3059 357.552 82.3699 357.57 82.4381C357.587 82.5064 357.591 82.5774 357.581 82.6472C357.571 82.7169 357.546 82.7839 357.51 82.8442C357.473 82.9045 357.425 82.9569 357.368 82.9983C357.254 83.0789 357.114 83.1125 356.976 83.092C356.838 83.0715 356.713 82.9986 356.628 82.8885C356.122 82.2272 355.455 81.7064 354.69 81.3762C353.924 81.046 353.087 80.9172 352.258 81.0024C352.151 81.0137 352.043 80.9929 351.948 80.9425Z" fill="#0F2739"/>
<path d="M360.946 82.7195C360.844 82.6783 360.758 82.6064 360.699 82.5138C360.639 82.4212 360.61 82.3125 360.616 82.2028C360.621 82.0931 360.661 81.9878 360.729 81.9015C360.797 81.8153 360.891 81.7524 360.996 81.7215C361.998 81.3794 363.09 81.4196 364.064 81.8343C365.037 82.2489 365.822 83.0087 366.266 83.9669C366.322 84.0992 366.323 84.2482 366.269 84.3811C366.214 84.514 366.109 84.6199 365.976 84.6754C365.844 84.731 365.695 84.7318 365.561 84.6775C365.428 84.6232 365.322 84.5184 365.266 84.386C364.927 83.6805 364.343 83.1217 363.622 82.8134C362.901 82.5051 362.093 82.4682 361.346 82.7095C361.284 82.738 361.216 82.7536 361.147 82.7553C361.079 82.757 361.01 82.7448 360.946 82.7195Z" fill="#231E31"/>
<path d="M348.679 105.781C345.679 104.843 341.08 99.8936 341.08 99.8936C342.248 103.352 344.534 106.325 347.579 108.346L348.679 105.781Z" fill="#B2684B"/>
<path d="M350.349 90.3929C350.035 90.7569 349.62 91.0198 349.156 91.1482C348.693 91.2767 348.202 91.265 347.745 91.1146C347.288 90.9642 346.886 90.6819 346.59 90.3034C346.294 89.9249 346.118 89.4673 346.083 88.9885C346.048 88.5097 346.156 88.0313 346.393 87.6139C346.631 87.1965 346.987 86.8589 347.417 86.6438C347.847 86.4287 348.332 86.3458 348.809 86.4056C349.286 86.4655 349.735 86.6654 350.099 86.98C350.582 87.4017 350.879 87.9964 350.926 88.6352C350.972 89.2741 350.765 89.9056 350.349 90.3929Z" fill="#E87555"/>
<path d="M363.327 96.89C363.012 97.2532 362.596 97.515 362.132 97.6422C361.669 97.7694 361.177 97.7564 360.721 97.6047C360.264 97.453 359.863 97.1695 359.568 96.7901C359.274 96.4108 359.098 95.9526 359.065 95.4737C359.031 94.9947 359.14 94.5166 359.379 94.0999C359.618 93.6831 359.976 93.3465 360.406 93.1327C360.837 92.9189 361.322 92.8375 361.799 92.8988C362.276 92.9601 362.724 93.1614 363.087 93.4771C363.328 93.6852 363.525 93.9386 363.667 94.2229C363.81 94.5072 363.894 94.8168 363.917 95.1338C363.939 95.4509 363.898 95.7693 363.797 96.0707C363.696 96.372 363.536 96.6505 363.327 96.89Z" fill="#E87555"/>
<path d="M342.329 81.5515C342.779 82.9186 340.33 90.2535 341.33 89.9242C342.329 89.5949 347.029 77.1007 347.029 77.1007C347.029 77.1007 354.757 75.6536 357.477 71.4124C357.477 71.4124 357.107 85.4833 368.475 89.6148C368.475 89.6148 374.844 69.7459 359.427 65.5545C344.009 61.3632 339.88 74.7555 339.88 74.7555L342.329 81.5515Z" fill="#0F2739"/>
<path d="M330.741 120.88C331.661 121.17 333.981 120.701 339.82 116.679C340.82 118.465 343.659 123.665 345.469 124.523C345.532 124.555 345.6 124.575 345.671 124.58C345.741 124.586 345.812 124.577 345.879 124.555C345.946 124.532 346.008 124.497 346.062 124.45C346.115 124.404 346.158 124.347 346.189 124.283C346.253 124.156 346.264 124.009 346.222 123.873C346.179 123.737 346.084 123.623 345.959 123.555C344.469 122.806 341.5 117.567 340.49 115.641C340.456 115.572 340.407 115.512 340.346 115.466C340.285 115.419 340.215 115.387 340.14 115.372C340.065 115.352 339.987 115.349 339.911 115.363C339.835 115.377 339.763 115.407 339.7 115.452C335.75 118.216 331.701 120.282 331.111 119.882C330.241 119.084 330.471 117.238 330.631 116.589C330.664 116.45 330.641 116.304 330.566 116.182C330.491 116.061 330.371 115.974 330.231 115.941C330.163 115.923 330.092 115.919 330.022 115.929C329.952 115.939 329.885 115.962 329.824 115.999C329.764 116.035 329.711 116.083 329.669 116.14C329.628 116.197 329.598 116.261 329.582 116.33C329.582 116.449 328.862 119.324 330.381 120.671C330.483 120.768 330.606 120.84 330.741 120.88Z" fill="#EEDBB1"/>
<path d="M337.95 128.415H338.03C338.1 128.426 338.171 128.424 338.24 128.407C338.308 128.391 338.373 128.36 338.43 128.319C338.487 128.277 338.535 128.224 338.571 128.163C338.607 128.103 338.63 128.036 338.64 127.966L340.51 115.991C340.521 115.921 340.519 115.85 340.502 115.782C340.486 115.713 340.455 115.649 340.414 115.592C340.372 115.535 340.319 115.487 340.258 115.451C340.197 115.415 340.13 115.392 340.06 115.382C339.99 115.371 339.918 115.373 339.849 115.39C339.779 115.406 339.714 115.436 339.657 115.478C339.599 115.52 339.55 115.572 339.513 115.633C339.476 115.693 339.451 115.761 339.44 115.831L337.58 127.806C337.555 127.936 337.579 128.07 337.647 128.182C337.716 128.295 337.824 128.378 337.95 128.415Z" fill="#EEDBB1"/>
<path d="M315.264 161.936C315.317 161.985 315.38 162.022 315.45 162.045C315.519 162.067 315.592 162.074 315.664 162.066C324.793 161.358 333.465 157.788 340.44 151.867C340.546 151.772 340.611 151.641 340.623 151.499C340.634 151.358 340.59 151.218 340.5 151.108C340.404 151.001 340.27 150.936 340.127 150.925C339.983 150.913 339.841 150.958 339.73 151.048C332.937 156.834 324.486 160.327 315.584 161.028C315.478 161.036 315.378 161.074 315.294 161.139C315.211 161.204 315.148 161.291 315.114 161.391C315.08 161.491 315.076 161.599 315.102 161.701C315.129 161.803 315.185 161.895 315.264 161.966V161.936Z" fill="#EEDBB1"/>
<path d="M201.044 243.257L194.535 241.381C192.21 240.716 189.763 240.6 187.386 241.042L182.877 241.88C179.498 242.509 176.006 242 172.948 240.433L197.604 227.46L209.052 232.829L201.044 243.257Z" fill="#F39E6E"/>
<path d="M197.184 234.955C199.608 232.943 202.549 231.65 205.673 231.223L197.604 227.44L172.948 240.414C176.006 241.98 179.498 242.489 182.877 241.861L187.386 241.022C189.501 240.634 191.674 240.692 193.765 241.192C194.147 238.781 195.356 236.576 197.184 234.955Z" fill="#E3AC0C"/>
<path d="M197.604 227.44L194.835 225.754L170.179 238.717L172.948 240.434L197.604 227.44Z" fill="#EEDBB1"/>
<path d="M353.948 338.221L354.348 344.967C354.487 347.377 355.189 349.722 356.398 351.813L358.687 355.805C360.411 358.775 361.093 362.234 360.627 365.635L340.15 346.753L341.41 334.189L353.948 338.221Z" fill="#F39E6E"/>
<path d="M347.359 344.608C344.651 343.002 342.451 340.667 341.01 337.872L340.12 346.724L360.597 365.605C361.063 362.204 360.38 358.745 358.657 355.775L356.367 351.783C355.292 349.919 354.611 347.854 354.368 345.716C351.973 346.172 349.495 345.781 347.359 344.608Z" fill="#E3AC0C"/>
<path d="M340.12 346.724L339.45 349.887L359.897 368.778L360.597 365.605L340.12 346.724Z" fill="#EEDBB1"/>
<path d="M415.877 115.272C415.877 115.272 418.507 112.927 417.767 112.128C417.107 110.711 407.029 115.242 406.109 115.691C405.459 116.01 404.879 116.31 404.339 116.589C405.589 114.404 407.338 111.17 407.219 110.601C407.019 109.733 401.659 114.703 400.22 115.591C398.78 116.479 394.551 123.964 394.551 123.964L374.944 159.231L373.884 155.04L356.457 164.021L362.396 174.799C363.531 176.845 365.177 178.564 367.174 179.788C369.171 181.012 371.452 181.7 373.794 181.784C376.684 181.896 379.534 181.086 381.931 179.471C384.327 177.856 386.146 175.52 387.122 172.803L402.019 130.73L401.949 130.67L413.058 125.74C413.058 125.74 415.357 124.313 414.967 123.445C414.624 122.866 414.096 122.42 413.467 122.177C413.926 121.878 414.343 121.519 414.707 121.11C414.948 120.904 415.166 120.674 415.357 120.421C418.207 116.759 415.877 115.272 415.877 115.272Z" fill="#F39E6E"/>
<path d="M301.387 141.957L305.786 138.225L297.817 162.075L298.267 171.057L292.458 169.899L301.387 141.957Z" fill="#0F2739"/>
<path d="M328.272 198.48C327.832 196.833 321.424 190.037 321.424 190.037L301.427 141.957L288.959 126.289L282.87 131.349C280.945 132.95 279.673 135.197 279.292 137.669C278.91 140.141 279.447 142.666 280.8 144.771L313.405 195.506L314.905 207.841C314.905 207.841 315.615 210.445 316.554 210.325C317.209 210.165 317.79 209.789 318.204 209.258C318.361 209.784 318.587 210.287 318.874 210.755C318.998 211.045 319.156 211.319 319.344 211.573C322.023 215.345 324.103 213.569 324.103 213.569C324.103 213.569 325.593 216.752 326.583 216.283C328.132 216.054 326.693 205.116 326.523 204.108C326.403 203.4 326.283 202.751 326.173 202.162C327.912 203.989 330.502 206.603 331.082 206.643C331.952 206.673 328.702 200.117 328.272 198.48Z" fill="#F39E6E"/>
<path d="M271.651 244.974C280.457 248.718 289.946 250.594 299.517 250.483C307.197 250.424 314.84 249.418 322.273 247.489C328.052 246.022 333.751 244.106 339.27 242.26C347.769 239.395 355.937 236.661 364.396 235.424C364.106 234.765 363.786 234.056 363.396 233.288C354.827 234.625 346.569 237.4 338.5 240.104C333.031 241.94 327.372 243.846 321.673 245.283C303.526 249.874 285.679 248.866 271.921 242.599C271.841 243.497 271.741 244.265 271.651 244.974Z" fill="#F3B54D"/>
</svg>
