<svg width="96" height="96" viewBox="0 0 96 96" fill="none" xmlns="http://www.w3.org/2000/svg">
<mask id="mask0_847_6057" style="mask-type:alpha" maskUnits="userSpaceOnUse" x="0" y="0" width="96" height="96">
<rect width="96" height="96" fill="#D9D9D9"/>
</mask>
<g mask="url(#mask0_847_6057)">
<path d="M25.3742 15.0738C25.3742 14.4406 25.355 13.8246 25.3781 13.2123C25.4087 12.3979 25.8403 11.9745 26.5671 12.0012C27.2498 12.026 27.6257 12.4551 27.6411 13.2466C27.6526 13.8398 27.643 14.4349 27.643 15.0853C29.6375 15.0853 31.6052 15.0853 33.6553 15.0853C33.6553 14.4616 33.6457 13.8513 33.6572 13.239C33.6726 12.4437 34.0465 12.0222 34.7312 12.0012C35.4561 11.9783 35.8704 12.396 35.9011 13.2257C35.9241 13.8379 35.9049 14.4521 35.9049 15.1043C45.3501 15.1043 54.7224 15.1043 64.1848 15.1043C64.1848 14.4692 64.1676 13.857 64.1887 13.2486C64.2174 12.4055 64.6144 11.9897 65.3374 12.0012C66.0509 12.0126 66.421 12.4418 66.4363 13.2905C66.4459 13.8379 66.4459 14.3853 66.4536 14.9327C66.4536 14.9747 66.4862 15.0166 66.5207 15.1024C68.4558 15.1024 70.4062 15.1024 72.4487 15.1024C72.4487 14.4902 72.441 13.8799 72.4506 13.2714C72.464 12.4418 72.8591 12.005 73.5744 12.005C74.2917 12.005 74.6906 12.4322 74.7155 13.2657C74.7328 13.8589 74.7193 14.4521 74.7193 15.1463C75.0128 15.1463 75.2659 15.1463 75.5191 15.1463C77.2662 15.1463 79.0133 15.131 80.7604 15.152C82.3675 15.1711 83.6199 16.161 83.9766 17.6944C84.0456 17.9882 83.9421 18.3219 83.921 18.6385C83.9018 18.9208 83.8749 19.205 83.8749 19.4892C83.873 35.2911 83.8749 51.0949 83.8673 66.8967C83.8673 67.4403 83.8558 68.003 83.7234 68.5237C83.338 70.0228 82.0377 70.9326 80.3213 70.9421C78.0237 70.9555 75.7262 70.9459 73.4267 70.9459C73.1698 70.9459 72.9128 70.9459 72.5695 70.9459C72.5695 72.1265 72.5906 73.2366 72.5637 74.3466C72.5311 75.7714 72.6903 77.2533 72.3489 78.6056C71.9366 80.242 71.1177 81.7831 70.4119 83.3376C70.1319 83.9517 69.3514 84.152 68.8087 83.883C68.2506 83.6084 68.0722 83.0648 68.3791 82.3572C68.7569 81.4856 69.2536 80.6597 69.5758 79.769C69.8941 78.8879 70.2509 77.9552 70.2624 77.0416C70.3276 71.9739 70.2988 66.9044 70.2911 61.8348C70.2892 60.2079 69.0618 59.1761 67.5909 59.5365C66.6511 59.7673 65.9454 60.597 65.884 61.5869C65.8533 62.0847 65.8917 62.5882 65.861 63.086C65.8131 63.8546 65.4793 64.1884 64.8254 64.1731C64.0563 64.156 63.7246 63.8089 63.7207 63.004C63.715 61.8386 63.7284 60.6714 63.715 59.506C63.6996 58.2243 62.8002 57.2535 61.6322 57.2325C60.378 57.2115 59.4613 58.1137 59.4287 59.4526C59.4018 60.618 59.4287 61.7852 59.4191 62.9506C59.4114 63.8661 59.049 64.2857 58.2991 64.2838C57.5473 64.2838 57.1925 63.8699 57.1829 62.9487C57.1714 61.7585 57.2098 60.5684 57.1638 59.3801C57.1216 58.2339 56.3928 57.408 55.3955 57.2592C54.3753 57.1066 53.4221 57.6331 53.0424 58.6058C52.9254 58.9052 52.8947 59.2523 52.889 59.5804C52.8698 60.6504 52.8851 61.7223 52.8813 62.7923C52.8775 63.8241 52.5284 64.28 51.7575 64.2838C51.0172 64.2876 50.6125 63.7688 50.6125 62.8018C50.6106 57.305 50.6144 51.8063 50.6106 46.3095C50.6087 44.9286 49.8512 44.0494 48.6218 43.9712C47.3983 43.891 46.4739 44.673 46.3301 45.9223C46.2975 46.2046 46.309 46.4926 46.309 46.7787C46.3071 53.4179 46.3051 60.0591 46.3128 66.6984C46.3128 67.3183 46.3109 67.9305 45.6147 68.1899C44.8879 68.4607 44.4008 68.0736 43.9558 67.5357C42.7246 66.0461 41.4819 64.566 40.2238 63.1012C39.2284 61.9416 37.7268 61.7394 36.4802 62.5596C34.9978 63.5342 34.8117 65.3404 36.0564 66.8472C38.3194 69.5879 40.592 72.3192 42.8588 75.0561C43.4668 75.7904 44.0824 76.5209 44.6769 77.2667C45.9408 78.8535 46.4164 80.6807 46.3032 82.6758C46.263 83.3967 45.7739 83.8678 45.1238 83.8564C44.4525 83.843 43.998 83.3948 44.0498 82.6204C44.1802 80.7093 43.4591 79.1778 42.2126 77.7645C40.3964 75.7103 38.6684 73.578 36.9271 71.459C36.6049 71.068 36.2674 70.9364 35.7687 70.9364C30.5024 70.9535 25.2361 70.9478 19.9718 70.9459C17.2562 70.9459 16 69.71 16 67.0379C16 51.0205 16 35.005 16 18.9876C16 16.4013 17.2696 15.1482 19.8816 15.1463C21.6288 15.1444 23.3759 15.1425 25.123 15.1387C25.1709 15.133 25.215 15.112 25.3742 15.0738ZM44.161 64.0606C44.161 63.5704 44.161 63.3091 44.161 63.0497C44.161 57.4824 44.1553 51.915 44.1649 46.3457C44.1687 43.6221 46.0712 41.6881 48.7101 41.6862C51.1936 41.6843 53.0788 43.687 53.0865 46.3534C53.0942 49.1132 53.0884 51.873 53.0884 54.6329C53.0884 54.8827 53.0884 55.1326 53.0884 55.4931C55.175 54.5719 56.9643 54.898 58.5216 56.3609C61.3752 54.0397 64.0007 54.5509 66.0413 57.7933C66.0854 57.7856 66.1352 57.7895 66.1717 57.7685C69.0925 56.1396 72.9377 58.2091 72.7843 61.9168C72.7114 63.6505 72.7728 65.39 72.7728 67.1275C72.7728 67.6215 72.7728 68.1155 72.7728 68.6515C73.0834 68.6648 73.3155 68.6839 73.5476 68.6839C75.7722 68.6858 77.9988 68.6858 80.2234 68.6858C81.5352 68.6858 81.821 68.4016 81.821 67.0951C81.8229 54.6977 81.821 42.3023 81.821 29.9049C81.821 29.6531 81.821 29.4033 81.821 29.1611C60.5755 29.1611 39.4394 29.1611 18.2918 29.1611C18.2822 29.388 18.2668 29.554 18.2668 29.7199C18.2649 42.1878 18.2649 54.6558 18.2668 67.1237C18.2668 68.249 18.5852 68.558 19.7186 68.558C24.4805 68.5599 29.2424 68.5599 34.0043 68.558C34.2057 68.558 34.4071 68.537 34.6986 68.5218C34.4819 68.2338 34.3227 68.0335 34.1731 67.8275C32.9515 66.1167 32.7923 64.2857 33.7704 62.4509C35.4657 59.2638 39.7156 58.8785 42.1608 61.6517C42.8071 62.3784 43.4054 63.1451 44.161 64.0606ZM66.4747 19.8211C66.7163 19.8382 66.9273 19.8421 67.1344 19.8707C67.7673 19.9622 68.1183 20.3265 68.1394 20.9693C68.1585 21.6063 67.7673 22.0812 67.1037 22.1022C65.9089 22.1403 64.7103 22.1441 63.5155 22.0965C62.8865 22.0717 62.524 21.6711 62.5144 21.0131C62.5029 20.357 62.8616 19.9527 63.5366 19.8668C63.7399 19.8401 63.9451 19.8287 64.1484 19.8096C64.1484 18.9933 64.1484 18.2399 64.1484 17.4579C54.7262 17.4579 45.3405 17.4579 35.9758 17.4579C35.9758 18.2895 35.9758 19.062 35.9758 19.8363C36.229 19.8497 36.4227 19.844 36.6087 19.8745C37.2397 19.9775 37.583 20.3379 37.583 20.9902C37.583 21.6444 37.2358 22.0659 36.6049 22.0927C35.3871 22.1441 34.1635 22.1441 32.9457 22.0927C32.3128 22.0659 31.96 21.6368 31.958 20.9921C31.958 20.3494 32.3033 19.9756 32.9361 19.8726C33.1605 19.8363 33.3907 19.8287 33.5959 19.8096C33.5959 18.9761 33.5959 18.2075 33.5959 17.4541C31.586 17.4541 29.6375 17.4541 27.6948 17.4541C27.6948 18.2838 27.6948 19.0562 27.6948 19.8344C27.9556 19.8497 28.1742 19.8421 28.3852 19.8764C28.9893 19.9737 29.3076 20.3513 29.3441 20.9464C29.3805 21.5376 28.997 22.0602 28.3929 22.085C27.1501 22.1346 25.9035 22.1422 24.6627 22.0869C24.0279 22.0583 23.6961 21.6006 23.7096 20.9597C23.723 20.317 24.074 19.9508 24.7145 19.8668C24.9178 19.8401 25.1249 19.8325 25.3244 19.8173C25.3244 18.9895 25.3244 18.2189 25.3244 17.3969C23.4104 17.3969 21.5463 17.3931 19.6841 17.3988C18.5948 17.4026 18.2784 17.7173 18.2764 18.8026C18.2707 21.2763 18.2745 23.752 18.2764 26.2257C18.2764 26.4088 18.3033 26.5919 18.3167 26.7922C39.4989 26.7922 60.6388 26.7922 81.8171 26.7922C81.8171 23.9618 81.8286 21.181 81.8075 18.4001C81.8018 17.7478 81.3779 17.416 80.7297 17.4045C79.7727 17.3893 78.8158 17.3969 77.8588 17.395C76.8385 17.3931 75.8163 17.395 74.7654 17.395C74.7654 18.2533 74.7654 19.0257 74.7654 19.8268C74.9897 19.8401 75.1777 19.8401 75.3618 19.863C76.033 19.945 76.4108 20.3589 76.3917 21.0055C76.3725 21.6502 76.0234 22.0679 75.3886 22.0927C74.1939 22.1384 72.9952 22.1346 71.8004 22.0984C71.1426 22.0774 70.7284 21.5891 70.7552 20.9693C70.7821 20.336 71.1215 19.9565 71.7621 19.8688C71.9692 19.8401 72.1802 19.8401 72.416 19.8249C72.416 19.02 72.416 18.2456 72.416 17.4598C70.4139 17.4598 68.45 17.4598 66.4785 17.4598C66.4747 18.2819 66.4747 19.0353 66.4747 19.8211Z" fill="black" fill-opacity="0.7"/>
<path d="M67.3387 73.341C67.3655 75.708 67.2332 77.5504 66.6444 79.3337C66.3606 80.1939 65.9233 80.4934 65.2694 80.2817C64.4927 80.0299 64.1762 79.4196 64.4294 78.6052C65.2195 76.0513 65.0795 73.4402 64.9203 70.8272C64.9031 70.5431 64.859 70.2589 64.8532 69.9747C64.8398 69.2442 65.1984 68.8513 65.9003 68.8055C66.6617 68.7559 67.0759 69.0954 67.1277 69.8602C67.2198 71.1896 67.2888 72.5171 67.3387 73.341Z" fill="black" fill-opacity="0.7"/>
<path d="M74.3881 43.8388C74.7928 43.8388 75.2013 43.816 75.604 43.8446C76.2158 43.8884 76.5649 44.2394 76.609 44.844C76.6531 45.4677 76.3903 45.9693 75.7364 46.017C74.8139 46.0837 73.878 46.0818 72.9555 46.0074C72.3342 45.9578 72.1002 45.4639 72.1271 44.8707C72.1558 44.2604 72.4876 43.8961 73.0994 43.8465C73.5251 43.8102 73.9566 43.8388 74.3862 43.8388C74.3881 43.8408 74.3881 43.8408 74.3881 43.8388Z" fill="black" fill-opacity="0.7"/>
<path d="M74.3441 52.8376C74.7488 52.8395 75.1554 52.8205 75.56 52.8434C76.2063 52.8796 76.563 53.2382 76.6091 53.879C76.6551 54.5313 76.3003 55.0024 75.6329 55.0482C74.8025 55.1035 73.9625 55.1016 73.1302 55.0558C72.4494 55.0177 72.1041 54.5752 72.1176 53.9172C72.1329 53.2687 72.5126 52.8796 73.1973 52.8434C73.5809 52.8186 73.9625 52.8357 74.3441 52.8376Z" fill="black" fill-opacity="0.7"/>
<path d="M74.3151 37.0726C73.9334 37.0726 73.5499 37.1031 73.172 37.0669C72.449 36.9963 72.0962 36.5748 72.1268 35.8844C72.1556 35.2416 72.5392 34.8659 73.2392 34.8468C74.0025 34.8277 74.7657 34.8258 75.529 34.8487C76.2022 34.8697 76.6011 35.2817 76.6183 35.9168C76.6356 36.5653 76.2846 36.9887 75.6038 37.0593C75.18 37.1031 74.7466 37.0669 74.317 37.0669C74.3151 37.0688 74.3151 37.0707 74.3151 37.0726Z" fill="black" fill-opacity="0.7"/>
<path d="M25.7212 34.8442C26.1259 34.8442 26.5324 34.8232 26.9352 34.848C27.5738 34.8881 27.9439 35.2753 27.9612 35.8932C27.9785 36.5245 27.7023 36.9918 27.0483 37.0338C26.1738 37.0929 25.2878 37.0986 24.4133 37.03C23.7785 36.9804 23.4064 36.4311 23.4774 35.8188C23.5522 35.1818 23.9357 34.8557 24.5782 34.8404C24.9598 34.8328 25.3396 34.8385 25.7212 34.8385C25.7212 34.8423 25.7212 34.8423 25.7212 34.8442Z" fill="black" fill-opacity="0.7"/>
<path d="M37.9528 34.8413C38.3114 34.8413 38.6681 34.8318 39.0267 34.8433C39.7689 34.868 40.164 35.2419 40.1813 35.9171C40.1985 36.5941 39.8265 37.029 39.0958 37.0672C38.3114 37.1091 37.5193 37.1091 36.735 37.0614C36.0254 37.0176 35.6456 36.5465 35.6821 35.8808C35.7147 35.2552 36.1232 34.8719 36.8078 34.8433C37.1895 34.828 37.5711 34.8413 37.9528 34.8413Z" fill="black" fill-opacity="0.7"/>
<path d="M50.0482 34.8442C50.4548 34.8442 50.8614 34.8232 51.2661 34.848C51.8932 34.8862 52.3055 35.2924 52.3074 35.8951C52.3113 36.515 52.0255 36.9937 51.3715 37.0357C50.4932 37.0929 49.6052 37.0929 48.7269 37.0357C48.0729 36.9937 47.7872 36.5169 47.7891 35.897C47.791 35.2982 48.2072 34.8862 48.8285 34.848C49.2351 34.8232 49.6436 34.8442 50.0482 34.8442Z" fill="black" fill-opacity="0.7"/>
<path d="M25.7677 43.8365C26.1493 43.8365 26.531 43.8213 26.9107 43.8404C27.5551 43.8747 27.9175 44.218 27.9578 44.8646C28 45.5321 27.6701 45.9937 27.0008 46.0414C26.1723 46.1005 25.3343 46.1024 24.5058 46.049C23.8269 46.007 23.428 45.4787 23.4721 44.8398C23.5143 44.2275 23.9285 43.8613 24.6247 43.8365C25.0044 43.8232 25.386 43.8346 25.7677 43.8346V43.8365Z" fill="black" fill-opacity="0.7"/>
<path d="M37.9571 43.8377C38.3387 43.8377 38.7203 43.8262 39.102 43.8396C39.7483 43.8625 40.1203 44.1963 40.1779 44.8428C40.2354 45.5066 39.9036 45.9929 39.2401 46.0368C38.3636 46.0959 37.4738 46.094 36.5973 46.0292C35.9491 45.9815 35.6557 45.5046 35.6902 44.8772C35.7267 44.2401 36.0891 43.8758 36.7393 43.8434C37.1458 43.8205 37.5524 43.8396 37.9571 43.8377Z" fill="black" fill-opacity="0.7"/>
<path d="M25.7333 52.8407C26.1379 52.8407 26.5445 52.8179 26.9472 52.8465C27.5782 52.8903 27.9483 53.289 27.9598 53.9069C27.9733 54.542 27.6799 54.9941 27.0316 55.0398C26.1801 55.099 25.3171 55.1009 24.4656 55.0456C23.8231 55.0036 23.4415 54.4867 23.4703 53.8745C23.4971 53.2527 23.9018 52.8694 24.5922 52.8388C24.9719 52.8217 25.3536 52.835 25.7352 52.835C25.7333 52.8369 25.7333 52.8388 25.7333 52.8407Z" fill="black" fill-opacity="0.7"/>
<path d="M37.9825 52.8367C38.3641 52.8367 38.7477 52.8195 39.1274 52.8405C39.7737 52.8748 40.1323 53.2258 40.1764 53.8704C40.2206 54.5284 39.8734 55.0034 39.2099 55.0453C38.3545 55.0987 37.4915 55.0987 36.6362 55.0396C35.9822 54.9938 35.6236 54.4903 35.6869 53.8475C35.7501 53.2105 36.1184 52.8634 36.7647 52.8386C37.1712 52.8233 37.5759 52.8367 37.9825 52.8367Z" fill="black" fill-opacity="0.7"/>
<path d="M62.1552 37.0669C61.7505 37.0669 61.342 37.1031 60.9431 37.0593C60.2508 36.9811 59.8672 36.5042 59.9094 35.85C59.9497 35.2168 60.3371 34.8602 61.0505 34.8449C61.7889 34.8277 62.5272 34.8277 63.2656 34.8449C63.9541 34.8621 64.3606 35.2416 64.4028 35.8653C64.4469 36.529 64.0691 36.9906 63.3691 37.0631C62.9683 37.105 62.5598 37.0707 62.1571 37.0707C62.1552 37.0688 62.1552 37.0688 62.1552 37.0669Z" fill="black" fill-opacity="0.7"/>
<path d="M62.1513 46.0637C61.7467 46.0637 61.3382 46.0999 60.9393 46.056C60.2508 45.9778 59.8672 45.4991 59.9094 44.843C59.9516 44.2117 60.339 43.8569 61.0543 43.8398C61.7927 43.8226 62.531 43.8207 63.2694 43.8398C63.9579 43.8569 64.3625 44.2403 64.4028 44.864C64.445 45.5277 64.0653 45.9893 63.3653 46.0599C62.9645 46.0999 62.556 46.0675 62.1513 46.0675C62.1513 46.0656 62.1513 46.0637 62.1513 46.0637Z" fill="black" fill-opacity="0.7"/>
</g>
</svg>
