<svg width="641" height="469" viewBox="0 0 641 469" fill="none" xmlns="http://www.w3.org/2000/svg">
<ellipse cx="320.5" cy="405.5" rx="320.5" ry="63.5" fill="black" fill-opacity="0.04"/>
<path d="M558.557 227.721L564.063 218.862L561.345 217.174C560.956 216.931 560.643 216.584 560.44 216.173C560.237 215.762 560.152 215.303 560.196 214.847C560.196 214.327 560.256 213.848 560.246 213.289C560.233 212.83 560.346 212.377 560.574 211.979C560.801 211.581 561.134 211.253 561.535 211.031L564.353 209.523L559.416 200.334L556.608 201.843C556.202 202.057 555.744 202.154 555.285 202.124C554.826 202.094 554.385 201.938 554.01 201.673C553.585 201.377 553.144 201.104 552.691 200.854C552.285 200.638 551.947 200.314 551.716 199.917C551.485 199.519 551.369 199.066 551.382 198.607L551.482 195.41L541.048 195.091L540.948 198.287C540.933 198.746 540.789 199.191 540.533 199.573C540.276 199.954 539.918 200.256 539.499 200.444L538.81 200.794L538.14 201.173C537.75 201.411 537.303 201.536 536.846 201.536C536.39 201.536 535.942 201.411 535.552 201.173L532.814 199.475L527.317 208.345L530.035 210.033C530.425 210.277 530.739 210.625 530.942 211.038C531.145 211.451 531.229 211.912 531.185 212.37C531.185 212.879 531.125 213.368 531.135 213.918C531.148 214.375 531.035 214.827 530.808 215.223C530.58 215.62 530.247 215.946 529.846 216.165L527.027 217.733L531.954 226.932L534.772 225.424C535.176 225.208 535.632 225.108 536.089 225.136C536.546 225.165 536.987 225.319 537.361 225.583C537.788 225.881 538.232 226.154 538.69 226.402C539.094 226.62 539.431 226.945 539.662 227.341C539.893 227.738 540.01 228.191 539.999 228.65L539.899 231.846L550.332 232.175L550.432 228.969C550.452 228.513 550.598 228.07 550.854 227.691C551.109 227.312 551.465 227.011 551.881 226.822C552.111 226.712 552.341 226.602 552.571 226.472C552.801 226.343 553.021 226.223 553.24 226.093C553.632 225.856 554.082 225.73 554.54 225.73C554.998 225.73 555.447 225.856 555.839 226.093L558.557 227.721ZM549.743 221.159C548.251 221.959 546.556 222.299 544.872 222.135C543.187 221.972 541.589 221.313 540.279 220.242C538.97 219.171 538.007 217.735 537.514 216.117C537.021 214.499 537.019 212.771 537.509 211.152C537.998 209.533 538.958 208.096 540.265 207.021C541.572 205.947 543.169 205.285 544.853 205.118C546.537 204.951 548.233 205.287 549.726 206.084C551.219 206.88 552.442 208.102 553.24 209.593C553.771 210.582 554.102 211.666 554.213 212.782C554.325 213.899 554.215 215.026 553.89 216.1C553.565 217.175 553.032 218.174 552.32 219.042C551.608 219.91 550.733 220.629 549.743 221.159Z" fill="#DBDBDB"/>
<path d="M238.304 56.4107L234.646 50.0785L232.708 51.1971C232.429 51.3571 232.111 51.4363 231.79 51.4257C231.468 51.4151 231.156 51.3152 230.889 51.1372C230.567 50.9349 230.233 50.7514 229.889 50.5879C229.596 50.4501 229.347 50.2331 229.17 49.9613C228.994 49.6895 228.897 49.3738 228.89 49.0498V46.8125H221.665V49.0498C221.661 49.3743 221.564 49.691 221.388 49.9632C221.211 50.2355 220.96 50.452 220.665 50.5879C220.336 50.7577 220.026 50.9374 219.666 51.1372C219.398 51.3152 219.086 51.4151 218.765 51.4257C218.444 51.4363 218.126 51.3571 217.847 51.1971L215.958 50.0785L212.301 56.4107L214.249 57.5294C214.527 57.692 214.753 57.9286 214.903 58.2127C215.053 58.4967 215.121 58.817 215.099 59.1374C215.099 59.3172 215.099 59.497 215.099 59.6767C215.099 59.8565 215.099 60.0363 215.099 60.2161C215.123 60.5357 215.057 60.8557 214.909 61.1398C214.76 61.424 214.536 61.661 214.259 61.8241L212.261 62.9527L215.958 69.275L217.957 68.1564C218.237 67.9978 218.555 67.9204 218.876 67.9327C219.198 67.9451 219.509 68.0467 219.776 68.2263C220.076 68.416 220.396 68.6058 220.715 68.7656C221.011 68.9032 221.262 69.1215 221.439 69.3954C221.615 69.6694 221.711 69.9877 221.715 70.3137V72.551H228.95V70.3137C228.956 69.9883 229.052 69.6709 229.229 69.3974C229.406 69.1239 229.655 68.9051 229.949 68.7656C230.272 68.6037 230.586 68.4236 230.889 68.2263C231.157 68.0469 231.47 67.9455 231.793 67.9331C232.116 67.9208 232.436 67.9981 232.718 68.1564L234.656 69.275L238.304 62.9228L236.305 61.8041C236.031 61.6393 235.807 61.402 235.659 61.1183C235.511 60.8345 235.444 60.5154 235.466 60.1961C235.466 60.0163 235.466 59.8365 235.466 59.6468C235.466 59.457 235.466 59.2872 235.466 59.1074C235.444 58.787 235.512 58.4668 235.662 58.1827C235.812 57.8987 236.038 57.662 236.315 57.4994L238.304 56.4107ZM231.308 59.6767C231.308 60.862 230.957 62.0206 230.298 63.0061C229.639 63.9916 228.703 64.7597 227.607 65.2132C226.511 65.6668 225.306 65.7855 224.143 65.5543C222.979 65.323 221.911 64.7523 221.072 63.9142C220.234 63.0761 219.663 62.0083 219.431 60.8459C219.2 59.6834 219.319 58.4785 219.773 57.3835C220.226 56.2884 220.995 55.3525 221.981 54.694C222.967 54.0355 224.126 53.6841 225.312 53.6841C226.101 53.6828 226.881 53.8368 227.61 54.1374C228.339 54.438 229.001 54.8792 229.559 55.4358C230.117 55.9924 230.559 56.6534 230.861 57.3811C231.163 58.1089 231.318 58.8889 231.318 59.6767H231.308Z" fill="#DBDBDB"/>
<path d="M443.902 97.4799L440.244 91.1476L438.305 92.2662C438.027 92.4262 437.709 92.5054 437.387 92.4948C437.066 92.4842 436.754 92.3843 436.487 92.2063C436.181 92.0056 435.864 91.8222 435.537 91.657C435.244 91.5192 434.994 91.3022 434.818 91.0304C434.641 90.7586 434.544 90.4429 434.538 90.1189V87.8916H427.222V90.1289C427.218 90.4534 427.122 90.7701 426.945 91.0424C426.768 91.3146 426.518 91.5311 426.223 91.667C425.903 91.8368 425.584 92.0166 425.224 92.2163C424.956 92.3943 424.644 92.4942 424.323 92.5048C424.002 92.5154 423.684 92.4362 423.405 92.2762L421.466 91.1576L417.809 97.4898L419.757 98.6085C420.034 98.7711 420.261 99.0077 420.411 99.2918C420.561 99.5758 420.629 99.896 420.607 100.217C420.607 100.396 420.607 100.576 420.607 100.756C420.607 100.936 420.607 101.115 420.607 101.295C420.631 101.615 420.565 101.935 420.417 102.219C420.268 102.503 420.043 102.74 419.767 102.903L417.769 104.032L421.426 110.354L423.425 109.235C423.705 109.077 424.023 108.999 424.344 109.012C424.666 109.024 424.977 109.126 425.244 109.305C425.544 109.495 425.863 109.685 426.183 109.845C426.479 109.982 426.73 110.201 426.906 110.475C427.083 110.748 427.179 111.067 427.182 111.393V113.63H434.498V111.393C434.504 111.067 434.6 110.75 434.777 110.476C434.953 110.203 435.203 109.984 435.497 109.845C435.827 109.685 436.137 109.495 436.447 109.305C436.713 109.126 437.025 109.024 437.346 109.012C437.667 108.999 437.986 109.077 438.265 109.235L440.204 110.354L443.862 104.032L441.953 102.873C441.678 102.711 441.455 102.476 441.306 102.193C441.158 101.911 441.091 101.593 441.113 101.275C441.113 101.095 441.113 100.916 441.113 100.726C441.113 100.536 441.113 100.366 441.113 100.187C441.092 99.8661 441.159 99.5459 441.309 99.2618C441.46 98.9778 441.686 98.7411 441.963 98.5785L443.902 97.4799ZM436.906 100.746C436.906 101.931 436.555 103.09 435.896 104.075C435.237 105.061 434.3 105.829 433.205 106.282C432.109 106.736 430.903 106.855 429.74 106.623C428.577 106.392 427.509 105.821 426.67 104.983C425.832 104.145 425.261 103.077 425.029 101.915C424.798 100.753 424.917 99.5476 425.37 98.4526C425.824 97.3575 426.593 96.4216 427.579 95.7631C428.565 95.1047 429.724 94.7532 430.91 94.7532C431.698 94.7519 432.479 94.9059 433.208 95.2065C433.936 95.5071 434.599 95.9483 435.156 96.5049C435.714 97.0615 436.157 97.7225 436.459 98.4503C436.761 99.178 436.916 99.9581 436.916 100.746H436.906Z" fill="#DBDBDB"/>
<path d="M194.832 94.0147C188.728 94.0127 182.76 95.8201 177.683 99.2083C172.607 102.597 168.65 107.413 166.313 113.049C163.976 118.686 163.364 124.888 164.554 130.871C165.745 136.855 168.684 142.352 173.001 146.666C177.317 150.98 182.817 153.917 188.804 155.107C194.791 156.297 200.997 155.685 206.636 153.349C212.276 151.014 217.095 147.059 220.485 141.986C223.876 136.912 225.684 130.948 225.682 124.847C225.682 120.798 224.884 116.789 223.334 113.048C221.783 109.307 219.511 105.908 216.646 103.045C213.782 100.182 210.381 97.9111 206.638 96.3616C202.895 94.8121 198.883 94.0147 194.832 94.0147ZM194.832 139.249C191.982 139.249 189.196 138.405 186.826 136.822C184.456 135.239 182.609 132.99 181.518 130.358C180.428 127.727 180.142 124.831 180.698 122.037C181.254 119.243 182.627 116.677 184.642 114.663C186.657 112.649 189.225 111.277 192.021 110.721C194.816 110.166 197.714 110.451 200.347 111.541C202.98 112.631 205.231 114.477 206.814 116.845C208.398 119.214 209.243 121.998 209.243 124.847C209.243 128.667 207.724 132.33 205.022 135.031C202.319 137.732 198.654 139.249 194.832 139.249Z" fill="#EBEBEB"/>
<path d="M200.768 95.293H188.896L189.555 86.9033H200.108L200.768 95.293Z" fill="#EBEBEB"/>
<path d="M178.182 99.2875L169.788 107.677L164.321 101.275L171.776 93.8242L178.182 99.2875Z" fill="#EBEBEB"/>
<path d="M165.041 118.075V129.931L156.646 129.281V118.734L165.041 118.075Z" fill="#EBEBEB"/>
<path d="M169.039 140.647L177.424 149.027L171.028 154.5L163.562 147.04L169.039 140.647Z" fill="#EBEBEB"/>
<path d="M187.836 153.781H199.698L199.039 162.171H188.486L187.836 153.781Z" fill="#EBEBEB"/>
<path d="M210.412 149.786L218.807 141.396L224.283 147.799L216.818 155.25L210.412 149.786Z" fill="#EBEBEB"/>
<path d="M223.554 130.999V119.144L231.958 119.793V130.34L223.554 130.999Z" fill="#EBEBEB"/>
<path d="M219.555 108.427L211.171 100.048L217.567 94.5742L225.032 102.035L219.555 108.427Z" fill="#EBEBEB"/>
<path d="M518.394 37.5137C512.289 37.5117 506.321 39.3191 501.245 42.7074C496.168 46.0956 492.211 50.9124 489.874 56.5485C487.537 62.1846 486.926 68.3867 488.116 74.3705C489.306 80.3542 492.246 85.8507 496.562 90.1646C500.879 94.4786 506.378 97.4162 512.365 98.606C518.353 99.7957 524.558 99.1841 530.198 96.8485C535.837 94.5129 540.657 90.5582 544.047 85.4847C547.437 80.4112 549.246 74.4468 549.244 68.3459C549.245 64.2966 548.448 60.2867 546.898 56.5454C545.348 52.804 543.076 49.4046 540.211 46.5413C537.346 43.678 533.944 41.407 530.201 39.858C526.457 38.309 522.445 37.5124 518.394 37.5137ZM518.394 82.7483C515.543 82.7483 512.757 81.9036 510.387 80.321C508.018 78.7385 506.17 76.4891 505.08 73.8574C503.989 71.2258 503.704 68.3299 504.26 65.5361C504.816 62.7424 506.188 60.1761 508.204 58.1619C510.219 56.1477 512.787 54.776 515.582 54.2203C518.378 53.6646 521.275 53.9498 523.908 55.0399C526.542 56.1299 528.792 57.9759 530.376 60.3444C531.959 62.7128 532.804 65.4974 532.804 68.3459C532.806 70.2376 532.434 72.111 531.71 73.859C530.986 75.607 529.925 77.1952 528.586 78.5328C527.248 79.8705 525.659 80.9313 523.91 81.6546C522.161 82.3779 520.286 82.7496 518.394 82.7483Z" fill="#EBEBEB"/>
<path d="M524.319 38.7921H512.457L513.117 30.4023H523.67L524.319 38.7921Z" fill="#EBEBEB"/>
<path d="M501.744 42.7875L493.35 51.1773L487.873 44.7751L495.338 37.3242L501.744 42.7875Z" fill="#EBEBEB"/>
<path d="M488.603 61.5742V73.4297L480.198 72.7705V62.2334L488.603 61.5742Z" fill="#EBEBEB"/>
<path d="M492.6 84.1465L500.984 92.5262L494.588 97.9995L487.123 90.5387L492.6 84.1465Z" fill="#EBEBEB"/>
<path d="M511.388 97.2803H523.26L522.6 105.67H512.047L511.388 97.2803Z" fill="#EBEBEB"/>
<path d="M533.974 93.2852L542.368 84.8955L547.835 91.2977L540.38 98.7485L533.974 93.2852Z" fill="#EBEBEB"/>
<path d="M547.115 74.4981V62.6426L555.51 63.2918V73.8389L547.115 74.4981Z" fill="#EBEBEB"/>
<path d="M543.117 51.9263L534.732 43.5465L541.128 38.0732L548.593 45.5341L543.117 51.9263Z" fill="#EBEBEB"/>
<path d="M435.977 180.439C435.977 180.439 488.443 160.254 533.634 177.832C549.204 183.825 512.507 210.622 504.053 237.469L435.977 180.439Z" fill="#E6B11B"/>
<path opacity="0.2" d="M435.977 180.439C435.977 180.439 488.443 160.254 533.634 177.832C549.204 183.825 512.507 210.622 504.053 237.469L435.977 180.439Z" fill="white"/>
<path d="M228.051 239.077C227.951 235.472 227.671 232.256 227.271 228.86C226.87 225.478 226.3 222.117 225.562 218.792C224.801 215.319 223.724 211.922 222.344 208.645C220.847 204.832 218.447 201.439 215.349 198.757C213.439 197.223 211.174 196.193 208.763 195.76C207.577 195.545 206.368 195.481 205.165 195.571C204.051 195.661 202.947 195.855 201.868 196.15C197.891 197.357 194.384 199.76 191.824 203.032C189.517 205.913 187.738 209.18 186.567 212.68C185.315 216.15 184.752 219.831 184.908 223.516C184.973 225.712 185.618 227.852 186.777 229.719C187.572 230.911 188.707 231.836 190.035 232.376C191.308 232.864 192.688 233.002 194.033 232.775C195.415 232.555 196.7 231.925 197.72 230.967C198.603 230.112 199.286 229.072 199.719 227.921C200.361 226.078 200.63 224.126 200.508 222.178C200.324 218.708 199.532 215.297 198.17 212.1C196.913 208.87 194.985 205.943 192.514 203.511C191.19 202.227 189.58 201.276 187.817 200.734C185.996 200.215 184.054 200.32 182.3 201.034C178.932 202.442 176.694 205.139 174.945 207.876C171.75 213.48 169.568 219.603 168.499 225.963C170.198 219.851 172.566 213.798 176.224 208.745C178.063 206.298 180.371 204.03 183.07 203.251C185.768 202.472 188.346 203.651 190.185 205.808C192.056 208.073 193.434 210.702 194.232 213.529C195.111 216.314 195.507 219.229 195.402 222.148C195.368 223.399 195.09 224.63 194.582 225.774C194.421 226.117 194.181 226.418 193.883 226.653C193.7 226.755 193.492 226.803 193.283 226.792C193.031 226.812 192.78 226.752 192.564 226.623C192.436 226.503 192.337 226.356 192.274 226.193C191.918 225.264 191.775 224.268 191.854 223.277C192.305 217.841 194.604 212.723 198.37 208.775C199.905 207.092 201.928 205.933 204.156 205.459C204.628 205.38 205.107 205.35 205.585 205.369C205.978 205.373 206.369 205.433 206.744 205.548C207.464 205.781 208.116 206.186 208.643 206.727C210.168 208.456 211.288 210.503 211.921 212.72C212.785 215.411 213.401 218.176 213.76 220.98C214.163 223.928 214.413 226.895 214.509 229.869C214.609 232.865 214.599 235.991 214.439 238.758L228.051 239.077Z" fill="#E6B11B"/>
<path opacity="0.4" d="M228.051 239.077C227.951 235.472 227.671 232.256 227.271 228.86C226.87 225.478 226.3 222.117 225.562 218.792C224.801 215.319 223.724 211.922 222.344 208.645C220.847 204.832 218.447 201.439 215.349 198.757C213.439 197.223 211.174 196.193 208.763 195.76C207.577 195.545 206.368 195.481 205.165 195.571C204.051 195.661 202.947 195.855 201.868 196.15C197.891 197.357 194.384 199.76 191.824 203.032C189.517 205.913 187.738 209.18 186.567 212.68C185.315 216.15 184.752 219.831 184.908 223.516C184.973 225.712 185.618 227.852 186.777 229.719C187.572 230.911 188.707 231.836 190.035 232.376C191.308 232.864 192.688 233.002 194.033 232.775C195.415 232.555 196.7 231.925 197.72 230.967C198.603 230.112 199.286 229.072 199.719 227.921C200.361 226.078 200.63 224.126 200.508 222.178C200.324 218.708 199.532 215.297 198.17 212.1C196.913 208.87 194.985 205.943 192.514 203.511C191.19 202.227 189.58 201.276 187.817 200.734C185.996 200.215 184.054 200.32 182.3 201.034C178.932 202.442 176.694 205.139 174.945 207.876C171.75 213.48 169.568 219.603 168.499 225.963C170.198 219.851 172.566 213.798 176.224 208.745C178.063 206.298 180.371 204.03 183.07 203.251C185.768 202.472 188.346 203.651 190.185 205.808C192.056 208.073 193.434 210.702 194.232 213.529C195.111 216.314 195.507 219.229 195.402 222.148C195.368 223.399 195.09 224.63 194.582 225.774C194.421 226.117 194.181 226.418 193.883 226.653C193.7 226.755 193.492 226.803 193.283 226.792C193.031 226.812 192.78 226.752 192.564 226.623C192.436 226.503 192.337 226.356 192.274 226.193C191.918 225.264 191.775 224.268 191.854 223.277C192.305 217.841 194.604 212.723 198.37 208.775C199.905 207.092 201.928 205.933 204.156 205.459C204.628 205.38 205.107 205.35 205.585 205.369C205.978 205.373 206.369 205.433 206.744 205.548C207.464 205.781 208.116 206.186 208.643 206.727C210.168 208.456 211.288 210.503 211.921 212.72C212.785 215.411 213.401 218.176 213.76 220.98C214.163 223.928 214.413 226.895 214.509 229.869C214.609 232.865 214.599 235.991 214.439 238.758L228.051 239.077Z" fill="white"/>
<path d="M234.187 381.353C244.46 393.338 242.371 439.571 248.587 444.695C254.803 449.819 318.542 449.279 322.859 446.263C327.177 443.247 325.118 422.412 329.935 420.295C331.824 419.486 234.187 381.353 234.187 381.353Z" fill="#E6B11B"/>
<path opacity="0.4" d="M234.187 381.353C244.46 393.338 242.371 439.571 248.587 444.695C254.803 449.819 318.542 449.279 322.859 446.263C327.177 443.247 325.118 422.412 329.935 420.295C331.824 419.486 234.187 381.353 234.187 381.353Z" fill="white"/>
<path opacity="0.4" d="M329.945 420.275C325.118 422.403 327.147 443.247 322.85 446.243C320.521 447.881 300.724 448.79 282.076 448.461C323.499 448.461 312.327 426.178 310.138 423.122C306.49 418.058 288.042 402.587 288.042 402.587C310.298 411.496 330.815 419.896 329.945 420.275Z" fill="#E6B11B"/>
<path d="M476.961 381.353C466.687 393.338 468.776 439.571 462.57 444.695C456.364 449.819 392.615 449.279 388.298 446.263C383.981 443.247 386.039 422.412 381.212 420.295C379.334 419.486 476.961 381.353 476.961 381.353Z" fill="#E6B11B"/>
<path opacity="0.4" d="M476.961 381.353C466.687 393.338 468.776 439.571 462.57 444.695C456.364 449.819 392.615 449.279 388.298 446.263C383.981 443.247 386.039 422.412 381.212 420.295C379.334 419.486 476.961 381.353 476.961 381.353Z" fill="white"/>
<path opacity="0.4" d="M476.97 381.353C466.687 393.338 468.776 439.561 462.57 444.685C459.192 447.472 438.855 448.59 420.267 448.54C443.002 444.245 449.188 432.27 449.188 423.141C449.188 414.013 438.195 401.168 419.438 404.075C446.12 393.388 476.97 381.353 476.97 381.353Z" fill="#E6B11B"/>
<path d="M546.235 371.066C541.978 374.332 499.326 371.245 486.704 381.483L486.774 381.293C461.6 406.043 420.377 423.142 356.038 423.142C226.951 423.142 200.318 341.871 200.318 294.04C200.318 245.589 237.814 162.801 356.038 162.801C472.823 162.801 519.133 228.64 521.122 288.926C521.122 297.046 541.578 288.347 546.865 292.042C555.2 297.825 553.861 365.243 546.235 371.066Z" fill="#E6B11B"/>
<path opacity="0.4" d="M546.235 371.066C541.978 374.332 499.326 371.245 486.704 381.483L486.774 381.293C461.6 406.043 420.377 423.142 356.038 423.142C226.951 423.142 200.318 341.871 200.318 294.04C200.318 245.589 237.814 162.801 356.038 162.801C472.823 162.801 519.133 228.64 521.122 288.926C521.122 297.046 541.578 288.347 546.865 292.042C555.2 297.825 553.861 365.243 546.235 371.066Z" fill="white"/>
<path opacity="0.4" d="M546.236 371.065C541.978 374.331 499.326 371.245 486.704 381.482L486.774 381.293C461.6 406.042 420.377 423.141 356.038 423.141C286.583 423.141 246.779 399.61 224.843 370.426C242.272 387.056 275.39 410.007 350.932 410.007C433.878 410.007 471.484 364.543 481.547 361.227C497.957 355.824 531.035 361.657 539.42 358.69C546.416 356.213 551.942 338.655 552.492 324.143C552.861 344.637 550.563 367.759 546.236 371.065Z" fill="#E6B11B"/>
<path d="M413.831 174.317C413.831 174.317 460.961 143.684 508.82 151.494C525.299 154.181 494.959 187.96 492.271 215.976L413.831 174.317Z" fill="#E6B11B"/>
<g opacity="0.4">
<path d="M413.831 174.317C413.831 174.317 460.961 143.684 508.82 151.494C525.299 154.181 494.959 187.96 492.271 215.976L413.831 174.317Z" fill="white"/>
</g>
<path d="M477.65 330.924C482.207 331.014 485.534 328.487 487.643 324.702C486.144 329.596 483.356 333.581 478.549 335.688C478.229 335.828 478.279 336.418 478.689 336.358C491.101 333.861 492.51 317.151 490.112 305.965C489.992 305.346 489.872 304.726 489.692 304.127C488.053 297.605 484.205 292.441 478.329 292.332C459.032 291.972 459.741 330.595 477.65 330.924Z" fill="#263238"/>
<path opacity="0.7" d="M547.984 330.426C547.984 347.715 546.246 361.737 544.087 361.737C541.928 361.737 540.189 347.754 540.189 330.426C540.189 313.097 541.938 299.124 544.087 299.124C546.236 299.124 547.984 313.137 547.984 330.426Z" fill="#E6B11B"/>
<path d="M308.339 189.188C308.339 188.919 353.17 174.137 394.393 186.602C396.052 182.673 397.741 178.751 399.46 174.836C352.71 160.593 303.942 176.833 302.522 177.672C304.521 181.501 306.473 185.34 308.379 189.188C307.419 187.264 306.453 185.343 305.481 183.425C306.427 185.343 307.379 187.264 308.339 189.188Z" fill="#E6B11B"/>
<path opacity="0.2" d="M398.151 177.852C396.879 180.769 395.626 183.685 394.394 186.602C353.56 174.257 309.179 188.599 308.339 189.178L307.52 187.53L307.19 186.871L305.901 184.334C305.251 183.066 304.612 181.797 303.952 180.529C312.477 177.653 355.949 165.517 398.151 177.852Z" fill="black"/>
<g opacity="0.5">
<path d="M239.144 348.574C206.595 283.653 250.706 229.34 252.675 227.033C253.966 225.446 254.586 223.419 254.403 221.382C254.219 219.345 253.247 217.461 251.693 216.131C250.139 214.801 248.126 214.13 246.084 214.261C244.043 214.393 242.133 215.317 240.763 216.835C230.916 229.201 223.371 243.233 218.487 258.265C207.584 291.414 210.772 325.262 231.769 353.148C238.105 361.498 243.321 356.864 239.144 348.574Z" fill="white"/>
<path d="M255.273 202.552C254.854 204.184 254.929 205.904 255.487 207.493C256.046 209.083 257.063 210.471 258.411 211.483C259.759 212.494 261.377 213.084 263.06 213.177C264.743 213.27 266.416 212.862 267.867 212.005C269.318 211.148 270.483 209.88 271.213 208.361C271.944 206.843 272.207 205.142 271.97 203.474C271.734 201.806 271.008 200.246 269.884 198.99C268.76 197.735 267.289 196.84 265.657 196.42C264.572 196.139 263.443 196.075 262.333 196.232C261.224 196.388 260.156 196.762 259.191 197.332C258.227 197.902 257.384 198.656 256.712 199.552C256.039 200.448 255.551 201.467 255.273 202.552Z" fill="white"/>
</g>
<path opacity="0.5" d="M431.53 171.58C440.394 163.45 463.979 152.603 495.339 153.382C504.673 153.622 505.462 161.842 492.64 161.493C476.651 161.053 459.962 162.182 435.317 173.797C431.7 175.505 429.071 173.837 431.53 171.58Z" fill="white"/>
<g opacity="0.4">
<path d="M235.086 410.497C238.284 422.013 237.594 440.69 237.594 440.69H157.226C157.226 440.69 156.526 422.013 159.724 410.497C162.922 398.981 191.794 383.86 193.972 378.286C195.017 375.498 195.017 372.426 193.972 369.637C191.824 364.054 162.992 348.932 159.754 337.416C156.516 325.901 157.246 307.233 157.246 307.233H237.594C237.594 307.233 238.294 325.901 235.096 337.416C231.898 348.932 203.026 364.054 200.878 369.637C199.833 372.426 199.833 375.498 200.878 378.286C203.016 383.86 231.888 398.981 235.086 410.497Z" fill="#EBEBEB"/>
<path d="M235.085 410.497C237.594 420.325 237.764 430.602 237.614 440.69C237.554 440.749 157.246 440.749 157.156 440.769C156.996 430.472 157.096 419.975 159.774 410.007C162.662 402.067 174.964 393.827 181.76 388.693C184.518 386.696 187.306 384.648 189.944 382.471C191.493 381.083 193.382 379.764 194.042 377.717C194.993 374.876 194.811 371.777 193.532 369.067C192.502 367.711 191.295 366.499 189.944 365.462C181.62 358.47 163.392 347.813 159.754 337.935C158.818 334.619 158.173 331.227 157.825 327.798C157.111 320.964 156.86 314.09 157.076 307.223V307.073C157.305 307.163 237.614 306.963 237.674 307.223C237.844 316.991 237.674 326.899 235.415 336.457C233.526 345.756 216.247 356.483 208.712 362.365C207.593 363.204 206.484 364.053 205.394 364.942C203.694 366.167 202.217 367.673 201.027 369.397C199.953 372 199.822 374.897 200.658 377.587C201.227 379.644 203.076 380.973 204.595 382.351C206.744 384.139 208.992 385.797 211.241 387.465C218.346 392.908 232.427 402.037 235.075 410.497H235.085ZM235.085 410.497C232.447 402.057 218.316 392.918 211.231 387.525C207.903 384.988 204.325 382.661 201.557 379.485C199.918 377.257 199.828 374.021 200.328 371.384C200.558 369.987 201.222 368.698 202.227 367.699C204.237 365.749 206.388 363.95 208.662 362.316C213.149 358.96 217.717 355.724 222.084 352.228C224.272 350.48 226.411 348.672 228.42 346.735C230.888 344.298 233.326 341.671 234.676 338.435C236.205 333.8 236.674 328.857 237.124 324.012C237.654 318.319 237.464 312.407 237.594 307.343C237.674 307.343 156.566 307.583 157.385 307.253C157.177 314.104 157.434 320.962 158.155 327.778C158.501 331.181 159.133 334.548 160.044 337.846C160.629 339.443 161.466 340.936 162.522 342.27C167.869 348.992 175.074 353.906 181.89 359.03C184.648 361.027 187.436 363.075 190.094 365.262C191.533 366.53 193.162 367.759 194.092 369.527C195.201 372.393 195.201 375.57 194.092 378.436C193.212 380.194 191.583 381.432 190.094 382.691C182.1 389.153 173.245 394.576 165.89 401.817C163.511 404.224 161.133 406.811 159.984 410.087C159.069 413.387 158.437 416.758 158.095 420.165C157.374 426.988 157.117 433.852 157.325 440.71C156.776 440.63 237.854 440.64 237.594 440.71C237.754 430.622 237.594 420.344 235.105 410.517L235.085 410.497Z" fill="#263238"/>
</g>
<g opacity="0.4">
<path d="M162.992 410.058C160.094 420.585 160.734 437.654 160.734 437.654H234.087C234.087 437.654 234.736 420.585 231.808 410.058C228.88 399.531 201.528 385.718 199.559 380.624C197.874 376.343 197.874 371.582 199.559 367.301C201.557 362.207 228.89 348.384 231.808 337.857C234.726 327.33 234.097 310.271 234.097 310.271H160.734C160.734 310.271 160.094 327.34 162.992 337.857C165.89 348.374 193.283 362.207 195.242 367.301C196.122 369.411 196.576 371.676 196.576 373.963C196.576 376.249 196.122 378.514 195.242 380.624C193.313 385.718 165.99 399.511 162.992 410.058Z" fill="#EBEBEB"/>
<path d="M162.993 410.058C160.724 419.047 160.564 428.425 160.714 437.654C160.614 437.654 234.297 437.554 234.007 437.654C234.157 428.665 234.007 419.536 231.878 410.767C231.703 409.968 231.431 409.193 231.069 408.46C229.452 405.607 227.337 403.066 224.823 400.959C217.548 394.297 208.833 389.453 201.358 383.041C200.744 382.484 200.194 381.861 199.719 381.183C199.345 380.443 199.056 379.662 198.86 378.856C197.853 375.244 197.975 371.41 199.209 367.869C199.631 366.695 200.368 365.659 201.338 364.873C202.557 363.755 203.856 362.746 205.165 361.757C212.491 356.044 229.02 346.366 231.678 337.786C233.927 328.797 234.097 319.499 233.957 310.31C234.666 310.45 160.244 310.46 160.764 310.31C160.446 318.417 160.952 326.535 162.273 334.54C162.6 337.228 163.604 339.788 165.191 341.981C168.499 346.276 172.836 349.622 177.124 352.878C182.49 356.983 188.306 360.518 193.393 364.993C194.45 365.854 195.223 367.013 195.612 368.319C196.506 370.882 196.78 373.62 196.411 376.309C196.188 377.817 195.792 379.295 195.232 380.714C195.006 381.172 194.717 381.595 194.372 381.972C191.951 384.333 189.315 386.463 186.498 388.334C182.1 391.481 177.633 394.537 173.416 397.933C171.301 399.608 169.298 401.42 167.42 403.356C165.449 405.221 163.935 407.514 162.993 410.058ZM162.993 410.058C163.927 407.511 165.431 405.212 167.39 403.336C169.266 401.394 171.269 399.579 173.386 397.903C177.603 394.507 182.06 391.441 186.458 388.284C188.646 386.706 190.855 385.128 192.883 383.34C193.811 382.608 194.589 381.702 195.172 380.674C196.795 376.731 196.927 372.332 195.542 368.299C195.363 367.65 195.076 367.035 194.692 366.481C193.368 364.948 191.861 363.583 190.205 362.416C182.63 356.423 166.5 347.115 163.123 338.445C160.564 329.327 160.504 319.679 160.614 310.26C160.614 310.07 233.987 310.26 234.137 310.16V310.26C234.287 319.459 234.137 328.827 231.868 337.796C229.2 346.496 212.621 356.184 205.255 361.917C203.946 362.916 202.647 363.914 201.438 365.013C200.488 365.778 199.768 366.791 199.359 367.939C198.133 371.433 198.008 375.219 198.999 378.786C199.19 379.577 199.469 380.344 199.829 381.073C200.297 381.736 200.837 382.346 201.438 382.891C208.913 389.313 217.607 394.167 224.893 400.869C227.416 402.992 229.538 405.549 231.159 408.42C231.522 409.161 231.797 409.942 231.978 410.747C234.087 419.546 234.237 428.725 234.077 437.714C234.077 437.714 160.674 437.664 160.654 437.664C160.514 428.435 160.654 419.057 162.963 410.068L162.993 410.058Z" fill="#263238"/>
</g>
<path d="M165.221 307.233H174.985C174.985 307.233 174.385 323.973 174.985 331.773C175.485 338.345 181.491 351.12 191.974 359.21C191.974 359.21 174.875 349.162 169.618 340.613C164.362 332.063 165.221 307.233 165.221 307.233Z" fill="white"/>
<path d="M234.086 437.654H160.733C160.733 437.654 177.183 414.812 188.625 405.104C191.092 403.036 194.191 401.873 197.41 401.808C200.628 401.873 203.728 403.036 206.194 405.104C217.637 414.812 234.086 437.654 234.086 437.654Z" fill="#E6B11B"/>
<path d="M207.244 360.158C207.244 360.158 200.349 365.152 199.439 366.64C198.53 368.128 197.82 373.102 197.82 373.102H196.971C196.971 373.102 196.251 368.158 195.352 366.64C194.452 365.122 187.547 360.158 187.547 360.158H207.244Z" fill="#E6B11B"/>
<path d="M197.41 395.805C194.022 395.805 192.973 392.808 193.333 390.032C193.802 386.256 197.41 381.103 197.41 381.103C197.41 381.103 201.028 386.256 201.487 390.032C201.837 392.858 200.798 395.805 197.41 395.805Z" fill="#E6B11B"/>
<g opacity="0.5">
<path d="M234.086 437.654H160.733C160.733 437.654 177.183 414.812 188.625 405.104C191.092 403.036 194.191 401.873 197.41 401.808C200.628 401.873 203.728 403.036 206.194 405.104C217.637 414.812 234.086 437.654 234.086 437.654Z" fill="white"/>
<path d="M207.243 360.158C207.243 360.158 200.348 365.152 199.438 366.64C198.529 368.128 197.819 373.102 197.819 373.102H196.97C196.97 373.102 196.25 368.158 195.351 366.64C194.451 365.122 187.546 360.158 187.546 360.158H207.243Z" fill="white"/>
<path d="M197.41 395.805C194.022 395.805 192.973 392.808 193.333 390.032C193.802 386.256 197.41 381.103 197.41 381.103C197.41 381.103 201.028 386.256 201.487 390.032C201.837 392.858 200.798 395.805 197.41 395.805Z" fill="white"/>
</g>
<path d="M168.369 405.922C168.369 405.922 170.368 401.808 179.472 395.206C185.048 391.151 192.534 386.356 193.733 383.81C193.733 383.81 191.254 390.631 182.02 396.704C176.504 400.339 170.468 403.146 168.369 405.922Z" fill="white"/>
<path d="M243.82 299.373H151V307.223H243.82V299.373Z" fill="#E6B11B"/>
<path opacity="0.5" d="M243.82 299.373H151V307.223H243.82V299.373Z" fill="black"/>
<path d="M243.82 440.69H151V448.541H243.82V440.69Z" fill="#E6B11B"/>
<path opacity="0.5" d="M243.82 440.69H151V448.541H243.82V440.69Z" fill="black"/>
<path d="M482.777 428.522C489.851 411.862 482.069 392.631 465.396 385.569C448.722 378.507 429.472 386.289 422.398 402.949C415.324 419.609 423.106 438.84 439.78 445.902C456.453 452.964 475.704 445.183 482.777 428.522Z" fill="#455A64"/>
<path opacity="0.1" d="M454.085 447.772C471.366 447.772 485.375 433.771 485.375 416.5C485.375 399.229 471.366 385.229 454.085 385.229C436.804 385.229 422.795 399.229 422.795 416.5C422.795 433.771 436.804 447.772 454.085 447.772Z" fill="black"/>
<path d="M482.969 421.51C485.738 405.57 475.053 390.404 459.104 387.636C443.154 384.869 427.98 395.547 425.211 411.487C422.441 427.428 433.126 442.593 449.075 445.361C465.025 448.129 480.199 437.45 482.969 421.51Z" fill="white"/>
<path opacity="0.5" d="M482.785 410.277C469.434 418.367 447.498 431.621 435.236 438.892C431.778 435.966 429.042 432.281 427.241 428.125L467.735 390.521C471.537 392.514 474.855 395.316 477.455 398.729C480.055 402.143 481.875 406.085 482.785 410.277Z" fill="#EBEBEB"/>
<path opacity="0.5" d="M483.386 417.489C483.276 420.748 482.62 423.965 481.447 427.008L444.881 444.296C443.287 443.765 441.742 443.097 440.264 442.299C451.307 435.957 471.494 424.361 483.386 417.489Z" fill="#EBEBEB"/>
<path d="M454.375 389.323H453.805V393.768H454.375V389.323Z" fill="#263238"/>
<path d="M440.75 392.807L440.257 393.092L442.481 396.942L442.974 396.657L440.75 392.807Z" fill="#263238"/>
<path d="M430.683 402.635L430.398 403.128L434.25 405.35L434.535 404.857L430.683 402.635Z" fill="#263238"/>
<path d="M431.349 416.21H426.902V416.78H431.349V416.21Z" fill="#263238"/>
<path d="M434.245 427.642L430.394 429.864L430.678 430.357L434.53 428.135L434.245 427.642Z" fill="#263238"/>
<path d="M442.469 436.045L440.248 439.896L440.742 440.181L442.963 436.33L442.469 436.045Z" fill="#263238"/>
<path d="M454.375 439.232H453.805V443.677H454.375V439.232Z" fill="#263238"/>
<path d="M465.704 436.047L465.21 436.332L467.434 440.182L467.927 439.897L465.704 436.047Z" fill="#263238"/>
<path d="M473.927 427.585L473.643 428.078L477.494 430.3L477.779 429.807L473.927 427.585Z" fill="#263238"/>
<path d="M481.277 416.21H476.83V416.78H481.277V416.21Z" fill="#263238"/>
<path d="M477.473 402.695L473.621 404.917L473.906 405.41L477.758 403.188L477.473 402.695Z" fill="#263238"/>
<path d="M467.433 392.815L465.211 396.666L465.705 396.951L467.927 393.1L467.433 392.815Z" fill="#263238"/>
<path d="M466.926 394.846L454.314 418.907L451.916 417.499L466.267 394.467L466.926 394.846Z" fill="#E6B11B"/>
<path d="M444.061 399.491L456.303 417.359L453.904 418.758L443.411 399.871L444.061 399.491Z" fill="#455A64"/>
<path d="M455.034 416.49C455.044 416.69 454.994 416.887 454.89 417.058C454.786 417.229 454.634 417.364 454.453 417.448C454.271 417.531 454.069 417.558 453.872 417.525C453.675 417.493 453.492 417.402 453.347 417.264C453.202 417.127 453.102 416.949 453.059 416.754C453.017 416.559 453.033 416.356 453.107 416.17C453.181 415.985 453.309 415.826 453.474 415.714C453.639 415.602 453.835 415.542 454.034 415.541C454.163 415.535 454.292 415.554 454.413 415.599C454.534 415.643 454.645 415.712 454.738 415.801C454.832 415.89 454.906 415.997 454.957 416.115C455.008 416.234 455.034 416.361 455.034 416.49Z" fill="#C7C7C7"/>
<path d="M555.808 407.549C559.78 389.891 548.678 372.359 531.01 368.389C513.342 364.42 495.799 375.516 491.828 393.174C487.856 410.831 498.958 428.364 516.626 432.333C534.294 436.303 551.836 425.206 555.808 407.549Z" fill="#455A64"/>
<path opacity="0.1" d="M525.339 432.39C542.62 432.39 556.629 418.389 556.629 401.118C556.629 383.847 542.62 369.847 525.339 369.847C508.058 369.847 494.049 383.847 494.049 401.118C494.049 418.389 508.058 432.39 525.339 432.39Z" fill="black"/>
<path d="M525.338 430.413C541.527 430.413 554.65 417.298 554.65 401.119C554.65 384.941 541.527 371.825 525.338 371.825C509.15 371.825 496.027 384.941 496.027 401.119C496.027 417.298 509.15 430.413 525.338 430.413Z" fill="white"/>
<path opacity="0.5" d="M553.99 394.906C540.638 402.986 518.702 416.25 506.44 423.521C502.978 420.599 500.241 416.913 498.445 412.754L538.999 375.19C542.786 377.185 546.09 379.983 548.68 383.389C551.269 386.795 553.082 390.726 553.99 394.906Z" fill="#EBEBEB"/>
<path opacity="0.5" d="M554.63 402.147C554.524 405.407 553.869 408.625 552.691 411.666L516.135 428.945C514.54 428.415 512.995 427.747 511.518 426.947C522.56 420.585 542.747 408.979 554.63 402.147Z" fill="#EBEBEB"/>
<path d="M525.629 373.952H525.059V378.397H525.629V373.952Z" fill="#263238"/>
<path d="M512.007 377.438L511.514 377.723L513.738 381.572L514.231 381.288L512.007 377.438Z" fill="#263238"/>
<path d="M501.934 387.26L501.649 387.753L505.501 389.975L505.786 389.482L501.934 387.26Z" fill="#263238"/>
<path d="M502.603 400.839H498.156V401.409H502.603V400.839Z" fill="#263238"/>
<path d="M505.487 412.269L501.636 414.491L501.921 414.984L505.772 412.762L505.487 412.269Z" fill="#263238"/>
<path d="M515.47 419.567L513.246 423.435L513.742 423.719L515.966 419.852L515.47 419.567Z" fill="#263238"/>
<path d="M525.629 423.851H525.059V428.295H525.629V423.851Z" fill="#263238"/>
<path d="M538.494 422.34L537.998 422.625L540.222 426.492L540.718 426.208L538.494 422.34Z" fill="#263238"/>
<path d="M545.174 412.216L544.89 412.709L548.741 414.931L549.026 414.438L545.174 412.216Z" fill="#263238"/>
<path d="M552.531 400.839H548.084V401.409H552.531V400.839Z" fill="#263238"/>
<path d="M548.729 387.335L544.877 389.557L545.162 390.05L549.013 387.828L548.729 387.335Z" fill="#263238"/>
<path d="M538.709 377.49L536.486 381.341L536.98 381.625L539.203 377.775L538.709 377.49Z" fill="#263238"/>
<path d="M534.273 424.65L523.31 399.801L525.908 398.802L534.982 424.37L534.273 424.65Z" fill="#E6B11B"/>
<path d="M505.671 403.046L527.047 399.471L527.317 402.237L505.751 403.805L505.671 403.046Z" fill="#455A64"/>
<path d="M526.287 401.119C526.287 401.306 526.232 401.49 526.127 401.646C526.023 401.802 525.875 401.924 525.701 401.995C525.528 402.067 525.337 402.086 525.153 402.049C524.969 402.013 524.8 401.922 524.667 401.79C524.534 401.657 524.444 401.488 524.407 401.304C524.37 401.12 524.389 400.929 524.461 400.756C524.533 400.582 524.654 400.434 524.811 400.33C524.967 400.226 525.15 400.17 525.338 400.17C525.59 400.17 525.831 400.27 526.009 400.448C526.187 400.626 526.287 400.867 526.287 401.119Z" fill="#C7C7C7"/>
<path d="M556.629 433.18H491.041V438.303H556.629V433.18Z" fill="#455A64"/>
<path d="M556.629 438.303H491.041V435.736L556.629 436.655V438.303Z" fill="#37474F"/>
<path d="M559.637 438.304H494.049V443.427H559.637V438.304Z" fill="#455A64"/>
<path d="M559.637 443.417H494.049V440.86L559.637 441.769V443.417Z" fill="#37474F"/>
<path d="M551.492 443.427H485.904V448.55H551.492V443.427Z" fill="#455A64"/>
<path d="M551.492 448.541H485.904V445.984L551.492 446.893V448.541Z" fill="#37474F"/>
<path d="M151 448.541C285.214 447.932 435.816 447.922 570 448.541C435.776 449.16 285.184 449.15 151 448.541Z" fill="#263238"/>
<path d="M353.46 448.541H346.744L311.257 184.134H244.4L258.391 448.541H251.765L237.435 178.002H317.153L353.46 448.541Z" fill="#E6B11B"/>
<path opacity="0.6" d="M353.46 448.541H346.744L311.257 184.134H244.4L258.391 448.541H251.765L237.435 178.002H317.153L353.46 448.541Z" fill="black"/>
<path d="M320.771 171.989H233.477L232.997 178.931H320.291L320.771 171.989Z" fill="#E6B11B"/>
<path opacity="0.4" d="M320.771 171.989H233.477L232.997 178.931H320.291L320.771 171.989Z" fill="black"/>
<path d="M317.163 178.931L304.101 448.54H297.466L310.218 185.523H243.331L209.133 448.54H202.417L237.474 178.931H317.163Z" fill="#E6B11B"/>
<path d="M313.485 243.482H236.265L235.915 236.89H313.135L313.485 243.482Z" fill="#E6B11B"/>
<path d="M305.621 296.945H228.401L228.051 290.354H305.271L305.621 296.945Z" fill="#E6B11B"/>
<path d="M303.182 350.41H219.836L219.486 343.818H302.843L303.182 350.41Z" fill="#E6B11B"/>
<path d="M301.943 403.875H213.89L213.54 397.273H301.593L301.943 403.875Z" fill="#E6B11B"/>
<g opacity="0.4">
<path d="M317.163 178.931L304.101 448.54H297.466L310.218 185.523H243.331L209.133 448.54H202.417L237.474 178.931H317.163Z" fill="black"/>
<path d="M313.485 243.482H236.265L235.915 236.89H313.135L313.485 243.482Z" fill="black"/>
<path d="M305.621 296.946H228.401L228.051 290.354H305.271L305.621 296.946Z" fill="black"/>
<path d="M303.182 350.41H219.836L219.486 343.818H302.843L303.182 350.41Z" fill="black"/>
<path d="M301.943 403.875H213.89L213.54 397.273H301.593L301.943 403.875Z" fill="black"/>
</g>
<path d="M263.448 72.5107C263.448 72.5107 269.604 76.8954 271.273 83.3874C272.942 89.8795 274.271 122.22 275.7 128.872C277.129 135.524 294.348 168.214 294.348 168.214C294.348 168.214 284.544 176.863 281.776 178.561C277.909 180.928 264.467 183.974 264.467 183.974C264.467 183.974 257.922 136.902 257.382 132.038C256.842 127.174 263.448 72.5107 263.448 72.5107Z" fill="#E6B11B"/>
<g opacity="0.1">
<path d="M263.448 72.5107C263.448 72.5107 269.604 76.8954 271.273 83.3874C272.942 89.8795 274.271 122.22 275.7 128.872C277.129 135.524 294.348 168.214 294.348 168.214C294.348 168.214 284.544 176.863 281.776 178.561C277.909 180.928 264.467 183.974 264.467 183.974C264.467 183.974 257.922 136.902 257.382 132.038C256.842 127.174 263.448 72.5107 263.448 72.5107Z" fill="black"/>
</g>
<path d="M231.948 264.565C231.948 264.565 208.963 307.822 208.963 307.852C207.624 316.032 206.595 323.224 206.405 326.989V327.049C206.266 327.927 206.331 328.826 206.595 329.676C206.595 329.676 206.595 329.676 206.595 329.736C208.763 331.783 273.801 344.408 276.22 344.078C278.638 343.748 277.909 336.847 275.77 334.35C273.631 331.853 250.886 315.873 250.886 315.873L273.472 272.576L231.948 264.565Z" fill="#AD6359"/>
<path d="M213.25 299.223L208.963 307.852C207.624 316.032 206.595 323.223 206.405 326.989V327.049C206.366 327.929 206.429 328.81 206.595 329.675C206.595 329.675 206.595 329.675 206.595 329.735C208.763 331.783 273.801 344.407 276.22 344.078C278.638 343.748 277.909 336.847 275.77 334.35C273.631 331.853 250.886 315.872 250.886 315.872L255.313 307.133L213.25 299.223Z" fill="#EBEBEB"/>
<path d="M255.573 316.911C251.405 315.263 245.999 314.914 242.101 317.331C241.941 317.421 242.101 317.631 242.231 317.621C246.619 317.09 251.052 317.033 255.453 317.451C255.519 317.455 255.585 317.435 255.638 317.395C255.691 317.355 255.729 317.297 255.743 317.232C255.758 317.167 255.748 317.099 255.717 317.04C255.686 316.982 255.635 316.936 255.573 316.911Z" fill="#263238"/>
<path d="M258.321 319.399C254.164 317.751 248.747 317.401 244.85 319.818C244.7 319.908 244.85 320.118 244.98 320.108C249.368 319.577 253.801 319.52 258.201 319.938C258.268 319.942 258.333 319.923 258.387 319.882C258.44 319.842 258.477 319.785 258.492 319.72C258.506 319.655 258.497 319.587 258.466 319.528C258.434 319.469 258.383 319.423 258.321 319.399Z" fill="#263238"/>
<path d="M261.079 321.875C256.911 320.227 251.505 319.878 247.598 322.295C247.448 322.395 247.598 322.604 247.737 322.584C252.123 322.057 256.552 322.003 260.949 322.425C261.014 322.425 261.078 322.403 261.13 322.363C261.181 322.322 261.217 322.265 261.232 322.202C261.248 322.138 261.241 322.071 261.213 322.012C261.185 321.952 261.138 321.904 261.079 321.875Z" fill="#263238"/>
<path d="M276.429 344.178C274.001 344.498 208.883 331.813 206.714 329.756C205.875 328.997 207.174 319.399 209.073 307.863L209.133 307.493L251.445 315.244L251.296 315.953C251.296 315.953 273.831 331.933 275.99 334.43C278.148 336.927 278.848 343.869 276.429 344.178Z" fill="#263238"/>
<path d="M276.18 341.511C265.257 339.104 220.955 330.425 209.962 328.877C209.882 328.877 209.862 328.877 209.962 328.947C220.735 331.564 265.097 339.883 276.14 341.691C276.379 341.731 276.409 341.581 276.18 341.511Z" fill="white"/>
<path d="M277.918 341.581C278.997 342.241 278.028 346.116 277.129 346.276C276.229 346.436 205.145 333.162 203.966 332.672C202.786 332.183 204.046 327.928 205.485 327.958C206.924 327.988 277.918 341.581 277.918 341.581Z" fill="#E6B11B"/>
<path opacity="0.2" d="M277.918 341.581C278.997 342.241 278.028 346.116 277.129 346.276C276.229 346.436 205.145 333.162 203.966 332.672C202.786 332.183 204.046 327.928 205.485 327.958C206.924 327.988 277.918 341.581 277.918 341.581Z" fill="black"/>
<path d="M222.584 317.131C217.327 316.023 215.588 324.193 220.865 325.301C226.142 326.41 227.86 318.24 222.584 317.131Z" fill="white"/>
<path d="M214.959 293.121L263.138 298.684C263.138 298.684 314.265 220.15 309.109 193.004C306.28 178.022 255.463 154.611 255.463 154.611L250.327 144.283H214.46C214.46 144.283 199.849 165.797 210.342 186.032C217.468 199.765 256.632 210.252 258.082 214.667C259.98 220.49 214.959 293.121 214.959 293.121Z" fill="#37474F"/>
<path d="M221.165 286.819C222.439 286.799 223.713 286.849 224.982 286.969C226.401 287.038 227.82 287.108 229.229 287.218C231.958 287.428 234.666 287.708 237.384 288.017C242.851 288.656 248.307 289.356 253.744 290.185C256.842 290.654 259.93 291.183 263.018 291.703C263.138 291.703 263.108 291.902 263.018 291.902C257.581 291.443 252.145 290.904 246.718 290.324C241.292 289.745 235.855 289.236 230.459 288.477C228.91 288.257 227.361 288.057 225.812 287.788C224.263 287.518 222.674 287.408 221.185 286.998C221.065 286.979 221.045 286.819 221.165 286.819Z" fill="#263238"/>
<path d="M258.931 286.079C263.198 279.577 286.093 238.208 289.521 231.246C291.24 227.771 292.889 224.255 294.388 220.679C295.94 217.138 297.275 213.506 298.385 209.803C299.385 206.127 300.384 202.252 299.575 198.596C299.161 196.76 298.423 195.011 297.396 193.433C296.898 192.624 296.35 191.847 295.757 191.106C295.147 190.376 294.538 189.637 293.868 188.948C288.492 183.435 281.786 179.35 275.05 175.575C268.315 171.799 261.189 168.583 254.134 165.297C252.375 164.458 250.616 163.619 248.887 162.73C248.018 162.281 247.158 161.821 246.319 161.312C245.425 160.849 244.667 160.16 244.12 159.315C242.284 155.862 241.2 152.06 240.942 148.158C241.279 152.018 242.43 155.762 244.32 159.145C244.858 159.924 245.592 160.548 246.449 160.953C247.288 161.432 248.158 161.871 249.027 162.291C250.776 163.13 252.545 163.929 254.324 164.718C261.419 167.894 268.545 171.05 275.43 174.706C278.886 176.523 282.242 178.523 285.484 180.698C288.763 182.864 291.813 185.357 294.588 188.139C295.277 188.838 295.917 189.607 296.587 190.357C297.205 191.132 297.779 191.942 298.305 192.784C300.586 196.156 301.47 200.279 300.774 204.289C300.594 205.288 300.464 206.237 300.234 207.196C300.004 208.155 299.784 209.114 299.505 210.052C298.374 213.794 297.016 217.463 295.437 221.039C293.918 224.635 292.239 228.16 290.5 231.646C287.013 238.707 263.368 279.657 258.931 286.079Z" fill="#263238"/>
<path d="M253.214 328.697C253.214 328.697 249.517 372.014 249.517 372.044C249.517 380.324 249.716 387.585 250.156 391.331C250.152 391.35 250.152 391.371 250.156 391.39C250.157 392.28 250.37 393.156 250.776 393.947L250.826 394.007C253.294 395.665 319.531 397.383 321.86 396.664C324.188 395.945 322.33 389.253 319.861 387.136C317.393 385.018 292.269 373.023 292.269 373.023L295.547 329.736L253.214 328.697Z" fill="#AD6359"/>
<path d="M250.276 363.175C250.276 363.175 249.517 372.014 249.517 372.044C249.517 380.324 249.716 387.585 250.156 391.33C250.152 391.35 250.152 391.371 250.156 391.39C250.26 392.264 250.468 393.123 250.776 393.947L250.826 394.007C253.294 395.665 319.531 397.383 321.86 396.664C324.188 395.945 322.33 389.253 319.861 387.135C317.393 385.018 292.269 373.023 292.269 373.023L292.959 364.034L250.276 363.175Z" fill="#EBEBEB"/>
<path d="M296.706 372.862C292.319 371.974 286.923 372.553 283.505 375.619C283.375 375.739 283.505 375.929 283.685 375.889C287.914 374.604 292.27 373.777 296.676 373.422C296.751 373.426 296.823 373.4 296.879 373.35C296.934 373.301 296.967 373.231 296.971 373.157C296.975 373.083 296.949 373.01 296.9 372.955C296.85 372.9 296.78 372.866 296.706 372.862Z" fill="#263238"/>
<path d="M299.844 374.84C295.457 373.941 290.07 374.521 286.653 377.597C286.513 377.707 286.653 377.896 286.833 377.856C291.063 376.576 295.418 375.749 299.824 375.389C299.889 375.38 299.948 375.348 299.991 375.299C300.035 375.251 300.06 375.188 300.062 375.123C300.065 375.058 300.044 374.994 300.004 374.942C299.964 374.891 299.908 374.855 299.844 374.84Z" fill="#263238"/>
<path d="M302.992 376.808C298.605 375.909 293.209 376.488 289.791 379.565C289.661 379.684 289.791 379.864 289.971 379.824C294.201 378.543 298.557 377.716 302.962 377.357C303.027 377.349 303.087 377.318 303.132 377.27C303.176 377.222 303.203 377.16 303.206 377.095C303.21 377.03 303.191 376.965 303.151 376.913C303.112 376.86 303.056 376.823 302.992 376.808Z" fill="#263238"/>
<path d="M321.99 396.095C319.662 396.834 253.324 395.665 250.826 394.017C249.827 393.408 249.477 383.74 249.337 372.044V371.675L292.309 371.954V372.674C292.309 372.674 317.293 384.469 319.851 386.577C322.41 388.684 324.319 395.366 321.99 396.095Z" fill="#263238"/>
<path d="M321.28 393.518C310.107 393.048 264.986 392.199 253.894 392.589C253.804 392.589 253.804 392.649 253.894 392.659C264.966 393.368 310.097 393.847 321.28 393.707C321.52 393.687 321.52 393.518 321.28 393.518Z" fill="white"/>
<path d="M323.019 393.288C324.208 393.757 323.928 397.742 323.069 398.052C322.209 398.362 249.876 397.643 248.647 397.363C247.418 397.083 247.897 392.669 249.326 392.449C250.756 392.229 323.019 393.288 323.019 393.288Z" fill="#E6B11B"/>
<path opacity="0.2" d="M323.019 393.288C324.208 393.757 323.928 397.742 323.069 398.052C322.209 398.362 249.876 397.643 248.647 397.363C247.418 397.083 247.897 392.669 249.326 392.449C250.756 392.229 323.019 393.288 323.019 393.288Z" fill="black"/>
<path d="M264.257 378.816C258.89 378.646 258.601 386.996 263.987 387.166C269.374 387.336 269.643 378.996 264.257 378.816Z" fill="white"/>
<path d="M235.256 190.137C235.256 190.137 254.913 252.061 255.243 263.457C255.543 273.165 246.788 358.8 246.788 358.8L295.087 359.09C295.087 359.09 299.874 271.487 299.085 261.37C297.635 242.463 281.096 190.537 269.194 144.283H215.568C215.568 144.283 216.038 168.514 227.061 186.032C227.061 186.032 232.058 188.339 235.256 190.137Z" fill="#37474F"/>
<path d="M252.385 348.134C257.452 347.944 262.708 347.754 267.775 347.804C272.842 347.854 277.838 347.864 282.865 348.064C285.713 348.184 288.551 348.233 291.4 348.443C291.5 348.443 291.49 348.573 291.4 348.573C286.333 348.893 281.256 348.903 276.179 348.923C271.103 348.943 266.116 348.923 261.089 348.803C258.241 348.723 255.403 348.633 252.555 348.493C252.245 348.483 252.075 348.144 252.385 348.134Z" fill="#263238"/>
<path d="M247.558 191.325C245.082 191.312 242.611 191.088 240.173 190.656C237.752 190.111 235.361 189.444 233.008 188.658C230.703 188.125 228.366 187.742 226.012 187.51C223.635 187.181 221.319 186.508 219.137 185.512C219.027 185.462 218.947 185.612 219.047 185.662C221.159 186.801 223.366 187.757 225.642 188.518C228.001 189.267 230.469 189.367 232.868 189.957C235.285 190.673 237.745 191.237 240.233 191.644C242.688 191.949 245.174 191.909 247.618 191.525C247.688 191.475 247.648 191.335 247.558 191.325Z" fill="#263238"/>
<path d="M295.137 240.046C293.288 233.663 291.54 227.251 289.801 220.849L284.654 201.613L279.587 182.346C278.748 179.144 277.885 175.941 276.999 172.738C276.1 169.542 275.28 166.326 274.091 163.22C276.759 169.322 278.528 175.764 280.457 182.107C282.385 188.449 284.054 194.901 285.793 201.313C287.532 207.725 289.121 214.167 290.67 220.629C292.219 227.091 293.758 233.544 295.137 240.046Z" fill="#263238"/>
<path d="M235.256 190.137C239.693 203.75 243.94 217.413 247.937 231.166C250.816 241.534 254.113 251.811 255.652 262.508C255.772 266.124 255.393 269.699 255.183 273.295C254.073 287.577 252.734 301.83 251.325 316.082C250.266 326.709 247.987 348.183 246.778 358.8L250.546 316.013C251.955 298.214 254.133 280.416 254.713 262.578C253.244 252.021 249.926 241.694 247.218 231.366C243.354 217.583 239.356 203.84 235.226 190.137H235.256Z" fill="#263238"/>
<path d="M261.829 148.158C262.659 154.281 262.689 160.613 264.637 166.506L266.536 172.418C274.841 199.655 284.245 228.35 290.79 255.946C291.66 259.542 290.93 264.745 290.89 268.441C290.261 282.903 288.892 303.398 287.972 318.04L286.233 342.82C287.083 326.14 289.231 284.461 289.981 268.401C289.981 264.715 290.701 259.701 289.851 256.136C283.245 228.62 274.021 199.825 266.076 172.568L264.298 166.576C262.459 160.643 262.539 154.261 261.829 148.118V148.158Z" fill="#263238"/>
<path d="M208.373 143.714C208.493 143.904 275.39 156.628 276.099 156.099C276.159 156.099 278.757 154.381 278.947 149.267C278.997 147.869 276.669 142.026 276.279 137.611C274.91 122.11 273.281 93.2556 267.834 78.1142C266.375 74.0392 257.051 69.9742 252.364 73.39C231.278 88.7212 208.233 143.464 208.373 143.714Z" fill="#EBEBEB"/>
<path d="M258.741 71.0526C258.741 71.0526 264.047 92.1568 265.287 103.013C265.596 105.76 268.445 139.968 271.553 159.644C272.742 167.195 273.711 182.466 273.711 182.466C273.711 182.466 224.543 175.005 217.188 170.79C212.96 168.363 202.967 157.197 202.967 157.197C202.967 157.197 214.889 124.008 222.144 111.343C229.4 98.6788 245.659 77.6845 252.355 73.3898C256.622 70.6531 258.741 71.0526 258.741 71.0526Z" fill="#E6B11B"/>
<path d="M267.605 87.4131C263.837 86.8138 259.96 77.3454 259.37 72.1418C259.37 71.7822 260.589 69.9544 262.488 66.3489C263.637 64.1515 264.867 61.6746 265.826 59.3574L279.027 68.9157C276.997 71.495 275.288 74.3124 273.941 77.3054C273.811 77.6278 273.714 77.9624 273.651 78.3042C273.648 78.3574 273.648 78.4108 273.651 78.464C273.151 80.4016 271.242 87.9824 267.605 87.4131Z" fill="#AD6359"/>
<path d="M272.172 80.6208C272.432 80.7407 272.692 80.8406 272.942 80.9305C273.262 79.9317 273.492 78.9329 273.612 78.4535V78.2837C273.679 77.9418 273.779 77.6073 273.911 77.2849C275.256 74.2905 276.965 71.4727 278.998 68.8952L265.787 59.3369C265.587 59.8263 265.377 60.3357 265.157 60.8251C264.158 66.0986 263.328 76.7855 272.172 80.6208Z" fill="#263238"/>
<path d="M268.335 44.6245C265.087 49.5185 263.338 65.9085 266.076 70.5128C270.134 77.1946 279.068 80.3807 285.334 74.9873C291.4 69.7637 293.329 48.36 290.031 43.9354C285.124 37.4234 273.132 37.4034 268.335 44.6245Z" fill="#AD6359"/>
<path d="M280.727 59.0971C280.727 59.0472 280.627 59.0971 280.627 59.177C280.467 60.2757 280.107 61.5142 279.058 61.704V61.7639C280.287 61.8038 280.757 60.1558 280.727 59.0971Z" fill="#263238"/>
<path d="M279.917 57.7792C278.178 57.3398 277.428 60.8455 279.037 61.255C280.646 61.6645 281.406 58.1488 279.917 57.7792Z" fill="#263238"/>
<path d="M286.973 60.4756C286.973 60.4756 287.043 60.5455 287.033 60.5855C286.763 61.6641 286.643 62.9526 287.553 63.5219C287.553 63.5219 287.553 63.5918 287.553 63.5818C286.363 63.1523 286.543 61.4544 286.973 60.4756Z" fill="#263238"/>
<path d="M288.182 59.5462C289.96 59.7859 289.351 63.3216 287.702 63.1019C286.053 62.8822 286.693 59.3465 288.182 59.5462Z" fill="#263238"/>
<path d="M278.998 55.2218C279.49 55.2005 279.98 55.1538 280.467 55.082C280.991 55.0951 281.506 54.9412 281.936 54.6425C282.052 54.5214 282.123 54.3651 282.14 54.1986C282.156 54.0321 282.116 53.8649 282.026 53.7237C281.811 53.4687 281.532 53.2752 281.218 53.1629C280.904 53.0507 280.565 53.0236 280.237 53.0845C279.55 53.1077 278.897 53.3895 278.408 53.8735C278.3 53.9874 278.228 54.1307 278.201 54.2853C278.174 54.4399 278.193 54.599 278.256 54.7428C278.319 54.8867 278.423 55.0088 278.555 55.094C278.687 55.1791 278.841 55.2236 278.998 55.2218Z" fill="#263238"/>
<path d="M290.161 56.9295C289.709 56.7339 289.269 56.5138 288.842 56.2703C288.346 56.1037 287.921 55.7768 287.632 55.3414C287.566 55.1873 287.552 55.0154 287.594 54.8528C287.636 54.6901 287.73 54.5458 287.862 54.4425C288.156 54.2806 288.488 54.1999 288.823 54.2087C289.159 54.2174 289.486 54.3154 289.771 54.4924C290.406 54.7585 290.916 55.2544 291.2 55.8807C291.256 56.0263 291.269 56.1849 291.237 56.3376C291.205 56.4902 291.13 56.6304 291.02 56.7412C290.91 56.852 290.771 56.9288 290.618 56.9621C290.466 56.9955 290.307 56.9842 290.161 56.9295Z" fill="#263238"/>
<path d="M279.078 65.4498C279.26 65.9386 279.543 66.3839 279.908 66.7571C280.273 67.1304 280.712 67.4233 281.197 67.6171C281.613 67.7986 282.054 67.9165 282.506 67.9667C282.592 67.9812 282.679 67.9812 282.765 67.9667H283.015C283.076 67.9671 283.135 67.9478 283.184 67.9118C283.232 67.8758 283.268 67.8249 283.285 67.767C283.29 67.7305 283.29 67.6936 283.285 67.6571V67.5672C283.485 66.7282 283.675 65.4398 283.675 65.4398C283.945 65.6595 285.354 66.6983 285.424 66.2488C286.148 62.4609 286.483 58.6089 286.423 54.7529C286.416 54.7305 286.402 54.711 286.383 54.6971C286.364 54.6833 286.342 54.6758 286.318 54.6758C286.295 54.6758 286.272 54.6833 286.253 54.6971C286.234 54.711 286.22 54.7305 286.213 54.7529C285.544 58.2486 285.484 61.8442 284.864 65.3699C284.368 64.9918 283.819 64.6889 283.235 64.471C283.105 64.471 282.905 66.9679 282.785 67.3275C282.085 67.2532 281.407 67.0378 280.792 66.6945C280.177 66.3512 279.638 65.887 279.208 65.3299C279.128 65.29 279.028 65.3499 279.078 65.4498Z" fill="#263238"/>
<path d="M264.268 57.0298C268.365 58.2383 271.623 53.7638 271.533 49.5689C271.533 49.5689 282.256 53.4742 284.754 44.7249C285.366 46.1508 286.291 47.4209 287.46 48.4409C288.629 49.461 290.014 50.205 291.51 50.6177L291.63 53.8137C292.839 53.7338 294.688 50.8174 292.469 47.6613C292.874 44.9068 292.201 42.1025 290.591 39.8309C289.877 38.8768 288.904 38.1482 287.788 37.732C286.672 37.3158 285.459 37.2296 284.295 37.4837C282.674 35.6717 280.414 34.5582 277.989 34.3775C276.718 34.3098 275.449 34.5464 274.288 35.0675C273.127 35.5887 272.107 36.3794 271.313 37.3739C271.313 37.3739 265.607 37.2141 263.818 40.8896C263.289 41.9237 262.983 43.0574 262.921 44.2172C262.859 45.377 263.042 46.5368 263.458 47.6213C263.458 47.6213 261.749 48.8398 261.709 52.3056C261.689 54.5029 263.048 56.6603 264.268 57.0298Z" fill="#263238"/>
<path d="M284.674 43.8857C284.605 44.6226 284.454 45.3495 284.224 46.0531C284.016 46.7498 283.727 47.4201 283.365 48.0506C282.642 49.3013 281.476 50.2352 280.097 50.6674C278.693 51.0425 277.222 51.0835 275.799 50.7873C275.09 50.6075 274.36 50.4777 273.651 50.2579C272.941 50.0382 272.252 49.7785 271.532 49.5588C272.202 49.8884 272.891 50.178 273.531 50.4976C274.171 50.8173 274.96 50.9471 275.68 51.1868C277.168 51.5664 278.728 51.5664 280.217 51.1868C281.702 50.701 282.939 49.6545 283.664 48.2704C284.372 46.9198 284.72 45.4097 284.674 43.8857Z" fill="#263238"/>
<path d="M271.313 37.3344C269.905 37.0448 268.453 37.0448 267.046 37.3344C265.586 37.6074 264.268 38.381 263.318 39.5217C262.88 40.1297 262.542 40.8042 262.319 41.5192C262.076 42.2094 261.951 42.9352 261.949 43.6666C261.928 45.1375 262.459 46.5629 263.438 47.6617C262.646 46.4858 262.267 45.0809 262.359 43.6666C262.439 42.2945 262.911 40.9741 263.718 39.8613C264.128 39.3244 264.637 38.8703 265.217 38.5229C265.815 38.186 266.453 37.9244 267.116 37.7439C268.485 37.3893 269.901 37.2511 271.313 37.3344Z" fill="#263238"/>
<path d="M284.294 37.4839C285.418 37.3367 286.558 37.3704 287.672 37.5838C288.776 37.7691 289.811 38.2448 290.67 38.9621C291.492 39.7013 292.114 40.6356 292.479 41.6788C292.856 42.75 293.074 43.8704 293.128 45.0047C293.276 43.8504 293.188 42.678 292.868 41.5589C292.551 40.4019 291.905 39.3614 291.01 38.5626C290.09 37.7935 288.964 37.3138 287.772 37.1843C286.604 37.0327 285.418 37.1349 284.294 37.4839Z" fill="#263238"/>
<path d="M289.241 50.2677C288.106 49.593 287.092 48.732 286.243 47.7208C285.84 47.2241 285.504 46.6768 285.244 46.0928C284.988 45.4859 284.801 44.8529 284.684 44.2051C284.606 44.8762 284.668 45.5561 284.864 46.2026C285.076 46.8706 285.415 47.4913 285.863 48.0304C286.299 48.5659 286.814 49.0308 287.392 49.4087C287.955 49.7984 288.58 50.0889 289.241 50.2677Z" fill="#263238"/>
<path d="M277.189 65.3492C276.301 65.1469 275.489 64.6996 274.844 64.0583C274.199 63.417 273.747 62.6074 273.54 61.7219C273.332 60.8364 273.378 59.9105 273.672 59.0498C273.966 58.1891 274.496 57.4282 275.201 56.8537C275.906 56.2793 276.759 55.9144 277.662 55.8008C278.565 55.6871 279.481 55.8292 280.307 56.2108C281.133 56.5925 281.835 57.1983 282.333 57.9593C282.832 58.7203 283.106 59.6059 283.125 60.5151C283.143 61.1543 283.035 61.7908 282.807 62.3881C282.579 62.9855 282.235 63.5319 281.795 63.9959C281.355 64.4599 280.827 64.8325 280.242 65.0922C279.658 65.3518 279.027 65.4935 278.388 65.509C277.983 65.5071 277.58 65.4534 277.189 65.3492ZM279.187 56.53C278.86 56.4515 278.524 56.4146 278.188 56.4201C277.113 56.4308 276.083 56.8512 275.308 57.5956C274.533 58.3399 274.071 59.3519 274.018 60.4249C273.964 61.4978 274.323 62.5507 275.02 63.3684C275.717 64.1861 276.7 64.7069 277.769 64.8243C278.837 64.9418 279.91 64.6471 280.768 64.0004C281.627 63.3537 282.206 62.4039 282.387 61.3449C282.568 60.286 282.338 59.1979 281.743 58.303C281.148 57.4081 280.234 56.7739 279.187 56.53Z" fill="#E6B11B"/>
<path d="M288.262 66.5081C286.453 66.0886 285.264 63.8613 285.514 61.3444C285.627 60.1393 286.116 59.0003 286.913 58.0884C287.225 57.6705 287.642 57.3415 288.121 57.134C288.6 56.9264 289.125 56.8475 289.644 56.905C290.163 56.9625 290.658 57.1545 291.08 57.4619C291.502 57.7693 291.836 58.1815 292.049 58.6577C292.626 59.7192 292.854 60.9354 292.699 62.1334C292.409 64.7902 290.56 66.7777 288.582 66.558L288.262 66.5081ZM289.811 57.609H289.571C289.152 57.5851 288.734 57.6635 288.353 57.8376C287.972 58.0116 287.638 58.276 287.382 58.6077C286.685 59.4194 286.259 60.4286 286.163 61.4942C285.903 63.8014 287.013 65.8189 288.652 65.9987C290.29 66.1785 291.799 64.4506 292.049 62.1434C292.192 61.0815 291.996 60.0017 291.49 59.0572C291.331 58.7088 291.099 58.399 290.809 58.149C290.519 57.8989 290.179 57.7147 289.811 57.609Z" fill="#E6B11B"/>
<path d="M282.915 61.0546L282.556 60.5153C283.355 59.976 285.134 59.3367 286.173 60.725L285.654 61.1146C284.714 59.8661 282.975 61.0047 282.915 61.0546Z" fill="#E6B11B"/>
<path d="M261.279 59.9258L260.739 59.5663C260.909 59.3166 262.418 57.0993 263.887 57.0294C265.356 56.9594 273.811 58.7273 274.171 58.7972L274.041 59.4364C271.582 58.927 264.977 57.6186 263.917 57.6786C262.858 57.7385 261.689 59.3166 261.279 59.9258Z" fill="#E6B11B"/>
<path d="M267.925 58.7977C267.925 58.7977 265.786 52.805 263.138 53.3943C260.489 53.9836 261.139 62.0836 263.548 63.8315C263.842 64.0758 264.184 64.2581 264.551 64.3675C264.918 64.477 265.303 64.5113 265.684 64.4684C266.065 64.4255 266.433 64.3063 266.766 64.1179C267.1 63.9295 267.392 63.6759 267.625 63.3721L267.925 58.7977Z" fill="#AD6359"/>
<path d="M263.397 55.7012V55.7611C265.076 57.0495 265.586 59.077 265.776 61.0846C265.714 60.8688 265.606 60.6688 265.46 60.4981C265.314 60.3275 265.133 60.1901 264.93 60.0954C264.726 60.0007 264.504 59.9509 264.279 59.9492C264.055 59.9476 263.832 59.9941 263.627 60.0858C263.567 60.0858 263.627 60.1957 263.627 60.2057C263.989 60.1902 264.348 60.2877 264.652 60.4845C264.956 60.6813 265.192 60.9678 265.326 61.3043C265.548 61.8675 265.705 62.4538 265.796 63.0522C265.796 63.2419 266.166 63.2319 266.156 63.0522V62.9223C266.855 60.5452 265.926 56.66 263.397 55.7012Z" fill="#263238"/>
<path d="M250.137 86.6336C250.986 106.02 258.891 140.438 263.468 145.631C267.526 150.246 288.762 157.017 300.814 160.403C304.732 161.512 312.067 131.868 307.81 130.919C302.023 129.631 280.907 123.928 280.077 122.869C279.248 121.811 269.314 97.2406 261.929 83.7571C255.144 71.5321 249.817 79.3026 250.137 86.6336Z" fill="#AD6359"/>
<path d="M311.187 130.171C319.891 130.4 322.089 131.789 329.535 128.093C334.422 125.656 338.069 127.734 334.741 132.338C329.315 139.859 318.022 141.916 313.905 141.507L311.187 130.171Z" fill="#AD6359"/>
<path d="M384.932 159.265C392.002 142.603 384.218 123.368 367.547 116.302C350.875 109.236 331.629 117.015 324.559 133.677C317.489 150.339 325.273 169.575 341.945 176.64C358.616 183.706 377.863 175.927 384.932 159.265Z" fill="#455A64"/>
<path opacity="0.1" d="M356.248 178.491C373.529 178.491 387.538 164.49 387.538 147.219C387.538 129.948 373.529 115.947 356.248 115.947C338.967 115.947 324.958 129.948 324.958 147.219C324.958 164.49 338.967 178.491 356.248 178.491Z" fill="black"/>
<path d="M356.248 176.513C372.436 176.513 385.559 163.398 385.559 147.219C385.559 131.04 372.436 117.925 356.248 117.925C340.06 117.925 326.937 131.04 326.937 147.219C326.937 163.398 340.06 176.513 356.248 176.513Z" fill="white"/>
<path opacity="0.5" d="M384.9 140.997C371.548 149.087 349.612 162.341 337.35 169.612C333.886 166.691 331.149 163.005 329.355 158.845L369.859 121.281C373.654 123.271 376.967 126.068 379.565 129.474C382.164 132.88 383.984 136.813 384.9 140.997Z" fill="#EBEBEB"/>
<path opacity="0.5" d="M385.539 148.238C385.433 151.498 384.778 154.716 383.6 157.757L347.044 175.045C345.449 174.516 343.904 173.847 342.427 173.048C353.47 166.676 373.647 155.08 385.539 148.238Z" fill="#EBEBEB"/>
<path d="M356.538 120.043H355.968V124.488H356.538V120.043Z" fill="#263238"/>
<path d="M342.897 123.542L342.403 123.827L344.627 127.677L345.121 127.392L342.897 123.542Z" fill="#263238"/>
<path d="M332.833 133.371L332.548 133.864L336.399 136.087L336.684 135.594L332.833 133.371Z" fill="#263238"/>
<path d="M333.503 146.93H329.056V147.5H333.503V146.93Z" fill="#263238"/>
<path d="M336.41 158.347L332.559 160.569L332.843 161.062L336.695 158.84L336.41 158.347Z" fill="#263238"/>
<path d="M344.624 166.738L342.403 170.59L342.897 170.874L345.118 167.023L344.624 166.738Z" fill="#263238"/>
<path d="M356.538 169.951H355.968V174.396H356.538V169.951Z" fill="#263238"/>
<path d="M367.868 166.757L367.374 167.042L369.598 170.892L370.092 170.607L367.868 166.757Z" fill="#263238"/>
<path d="M376.082 158.323L375.797 158.816L379.648 161.039L379.933 160.546L376.082 158.323Z" fill="#263238"/>
<path d="M383.44 146.93H378.993V147.5H383.44V146.93Z" fill="#263238"/>
<path d="M379.651 133.407L375.799 135.629L376.084 136.122L379.935 133.9L379.651 133.407Z" fill="#263238"/>
<path d="M369.602 123.551L367.38 127.402L367.874 127.687L370.096 123.836L369.602 123.551Z" fill="#263238"/>
<path d="M356.677 122.06L357.637 149.197L354.858 149.157L355.918 122.05L356.677 122.06Z" fill="#E6B11B"/>
<path d="M336.49 146.959L358.127 145.761L358.087 148.547L336.48 147.718L336.49 146.959Z" fill="#455A64"/>
<path d="M357.198 147.219C357.198 147.471 357.098 147.712 356.92 147.89C356.742 148.068 356.5 148.168 356.248 148.168C355.996 148.168 355.755 148.068 355.577 147.89C355.399 147.712 355.299 147.471 355.299 147.219C355.299 146.968 355.399 146.726 355.577 146.548C355.755 146.37 355.996 146.271 356.248 146.271C356.5 146.271 356.742 146.37 356.92 146.548C357.098 146.726 357.198 146.968 357.198 147.219Z" fill="#C7C7C7"/>
<path d="M287.242 134.594C287.242 134.594 297.675 130.879 306.969 130.21C313.405 129.74 327.496 130.29 338.449 146.1C341.038 149.856 342.077 157.037 335.611 152.453C331.024 149.197 329.095 145.741 326.077 144.333C326.077 144.333 326.307 153.621 322.449 156.078C319.071 158.232 315.545 160.145 311.896 161.801C311.442 161.201 311.025 160.574 310.647 159.923C310.647 159.923 306.83 161.871 300.524 160.193L287.242 134.594Z" fill="#AD6359"/>
<path d="M313.175 130.739C315.873 132.737 321.53 137.171 324.888 142.385C328.635 148.158 334.272 160.303 329.974 163.02C326.826 165.017 324.258 160.563 324.258 160.563C324.258 160.563 325.537 166.076 322.259 167.255C319.261 168.323 317.532 164.768 317.532 164.768C317.532 164.768 317.732 168.243 314.684 168.763C311.027 169.342 311.216 161.961 306.999 159.354C306.08 158.725 313.175 130.739 313.175 130.739Z" fill="#AD6359"/>
<path d="M318.122 145.312C321.681 149.609 323.846 154.887 324.328 160.444C324.328 160.583 324.229 160.663 324.199 160.533C322.775 155.24 320.714 150.139 318.062 145.342C318.062 145.342 318.092 145.282 318.122 145.312Z" fill="#263238"/>
<path d="M312.386 149.257C314.105 151.454 317.613 158.406 317.682 164.728C317.682 164.868 317.573 164.938 317.553 164.808C316.4 159.455 314.65 154.249 312.336 149.287L312.386 149.257Z" fill="#263238"/>
<path d="M261.529 144.193C267.805 153.182 297.755 161.682 297.755 161.682L303.022 128.153C303.022 128.153 281.036 123.159 280.317 122.16C278.798 119.993 268.724 92.5664 260.529 80.651C253.644 70.6633 248.797 77.6547 249.536 89.8198C250.456 104.522 259.31 141.007 261.529 144.193Z" fill="#E6B11B"/>
<path d="M295.427 129.421C294.717 131.658 293.198 140.967 292.829 143.334C292.459 145.701 291.409 155.139 291.14 157.497C291.14 157.596 291.33 157.596 291.35 157.497C291.799 155.139 295.587 131.768 295.547 129.441C295.547 129.391 295.447 129.361 295.427 129.421Z" fill="#263238"/>
<path d="M249.937 95.3926C253.324 110.214 256.482 127.983 261.129 142.335C262.059 145.521 265.297 146.88 267.825 148.667C270.543 150.375 273.371 151.923 276.24 153.382C279.108 154.84 282.016 156.228 284.994 157.447C278.927 155.228 273.08 152.453 267.525 149.157C264.867 147.429 261.429 145.831 260.53 142.575C257.342 133.406 255.533 123.868 253.534 114.409C252.535 109.695 250.796 100.137 249.996 95.4325L249.937 95.3926Z" fill="#263238"/>
<path d="M249.457 96.7812C249.881 98.1083 250.375 99.4119 250.937 100.686C250.066 99.5608 249.55 98.2011 249.457 96.7812Z" fill="#263238"/>
<path d="M266.706 91.5375C271.023 100.177 275.92 111.863 279.917 120.722C280.095 121.132 280.302 121.529 280.537 121.91C283.335 122.979 286.323 123.618 289.211 124.437L302.992 128.103L302.702 129.631L302.892 128.083V128.143C295.897 126.634 288.901 125.086 282.076 123.149C281.395 122.969 280.727 122.742 280.077 122.47C279.972 122.408 279.883 122.323 279.817 122.22C274.82 112.232 270.993 101.715 266.556 91.4775L266.706 91.5375Z" fill="#263238"/>
<path d="M352.241 26.3569C352.236 31.1994 350.886 35.9454 348.341 40.0662C345.797 44.1869 342.157 47.5204 337.827 49.6952C333.498 51.8699 328.65 52.8004 323.823 52.383C318.995 51.9656 314.379 50.2167 310.488 47.3312L297.666 50.5972L303.003 38.6718C301.129 35.1668 300.078 31.281 299.932 27.3096C299.786 23.3382 300.548 19.3858 302.159 15.7526C303.77 12.1194 306.189 8.90112 309.231 6.3422C312.273 3.78328 315.859 1.95109 319.716 0.98485C323.574 0.0186052 327.6 -0.0562712 331.491 0.76591C335.381 1.58809 339.033 3.2857 342.168 5.72974C345.303 8.17378 347.84 11.2999 349.586 14.8707C351.331 18.4415 352.239 22.3628 352.241 26.3369V26.3569Z" fill="white"/>
<path d="M352.241 26.3572C352.111 48.4502 326.907 60.0959 310.578 47.6911L297.776 51.047L296.896 51.2767L297.266 50.4377L302.573 38.4524V38.9518C296.577 28.2449 299.475 13.7926 308.979 6.10203C326.188 -8.06062 352.171 4.10448 352.231 26.3872L352.241 26.3572ZM352.241 26.3572C352.331 9.6377 335.961 -3.13666 319.782 1.27794C315.994 2.25667 312.478 4.08151 309.498 6.61506C306.517 9.14861 304.151 12.3248 302.577 15.9046C301.003 19.4844 300.263 23.3744 300.411 27.2817C300.559 31.189 301.592 35.0119 303.432 38.4624L303.542 38.6721L303.442 38.8819L298.076 50.7973L297.566 50.198L310.398 47.0019C327.887 59.6464 351.871 48.1705 352.241 26.3572Z" fill="#263238"/>
<path d="M321.841 41.9178L310.108 30.0523L314.056 26.1671L320.901 33.0886L335.132 10.7959L339.799 13.7723L321.841 41.9178Z" fill="#E6B11B"/>
</svg>
