<svg width="169" height="30" viewBox="0 0 169 30" fill="none" xmlns="http://www.w3.org/2000/svg">
<path d="M5.83105 0C16.747 0 27.4412 0 38.4087 0C37.5732 1.5637 36.8125 2.98385 36.0569 4.40656C31.6962 12.6096 27.3406 20.8177 22.9644 29.0131C22.7659 29.3848 22.4074 29.6719 22.1238 30C21.8427 29.6539 21.4997 29.3412 21.2934 28.9567C17.4149 21.6893 13.5596 14.4091 9.6889 7.1392C8.44851 4.80646 7.17975 2.49423 5.83105 0Z" fill="#2A2728"/>
<path d="M153.597 3.75515C156.892 3.75515 160.113 3.59365 163.313 3.80129C166.31 3.99611 167.955 5.63416 168.252 8.12326C168.525 10.4201 166.957 12.799 164.487 13.8141C164.015 14.0064 163.528 14.155 162.937 14.3627C164.376 16.9902 166.48 18.9359 169 20.9789C166.934 20.9789 165.235 21.0148 163.54 20.9482C163.187 20.9354 162.715 20.6149 162.53 20.2996C161.454 18.4873 160.446 16.6339 159.414 14.7933C159.505 14.7216 159.597 14.6498 159.688 14.578C159.273 14.578 158.855 14.578 158.303 14.578C158.303 16.6775 158.303 18.7487 158.303 20.8995C156.686 20.8995 155.201 20.8995 153.597 20.8995C153.597 15.2291 153.597 9.53828 153.597 3.75515ZM158.321 12.781C160.09 12.8861 161.8 13.104 162.751 11.3147C163.6 9.71772 163.842 7.97458 162.738 6.45189C161.653 4.95484 159.938 5.34961 158.321 5.42908C158.321 7.89768 158.321 10.274 158.321 12.781Z" fill="#2A2728"/>
<path d="M110.472 24.6709C109.781 24.2787 109.265 23.9839 109.007 23.8378C109.67 20.9232 110.516 18.1854 110.861 15.3887C111.14 13.1303 110.977 10.7822 110.714 8.50581C110.451 6.21922 109.043 5.1272 107.148 5.26306C105.626 5.37329 104.708 6.22948 104.239 7.60092C103.45 9.91828 103.765 12.2997 103.716 14.776C105.508 14.776 107.127 14.776 108.845 14.776C108.845 15.4143 108.845 15.9449 108.845 16.6524C107.241 16.6524 105.593 16.6524 103.762 16.6524C103.762 18.1546 103.762 19.4902 103.762 20.9026C102.094 20.9026 100.611 20.9026 98.9114 20.9026C98.9114 20.4361 98.9036 19.9465 98.9114 19.4594C98.9681 16.3884 98.736 13.2764 99.1564 10.2541C99.7624 5.90135 103.027 3.31228 107.223 3.28921C111.264 3.26613 114.665 6.03466 115.408 10.2438C116.401 15.8629 114.229 20.4899 110.472 24.6709Z" fill="#2A2728"/>
<path d="M71.5253 21.297C68.534 21.2277 65.3105 20.0076 63.6317 16.429C62.0329 13.0222 62.2366 9.58458 64.6039 6.51614C67.6159 2.60688 74.8391 2.0865 78.8413 5.41129C82.4464 8.4054 82.8616 14.6474 79.6923 18.2644C77.9774 20.2203 75.427 21.2662 71.5253 21.297ZM67.3761 12.0506C67.6572 13.5041 67.8171 15.0422 68.2709 16.4879C68.8382 18.2952 70.2024 19.218 72.1597 19.2539C74.1325 19.2924 75.4683 18.3439 76.1439 16.5982C77.2605 13.7066 77.2605 10.7484 76.1723 7.84401C75.5302 6.13162 74.1299 5.3267 72.2422 5.30875C70.3571 5.29081 68.9569 6.10086 68.3328 7.84913C67.8635 9.15905 67.6984 10.5715 67.3761 12.0506Z" fill="#2A2728"/>
<path d="M134.56 7.96225C133.89 8.23654 133.305 8.4775 132.65 8.74666C132.492 8.46211 132.35 8.21603 132.219 7.96481C130.46 4.5785 126.12 4.32985 124.088 7.56235C122.262 10.4667 122.221 13.5557 123.709 16.5985C124.532 18.2801 125.968 19.244 127.936 19.2491C129.362 19.2517 129.792 18.8671 129.831 17.4496C129.864 16.2114 129.833 14.9733 129.841 13.7351C129.844 13.3198 129.877 12.9071 129.903 12.3586C131.056 12.3586 132.121 12.3586 133.183 12.3586C133.604 12.3586 134.024 12.3586 134.519 12.3586C134.519 15.2937 134.519 18.0853 134.519 21.3793C133.573 20.7692 132.907 20.3411 132.172 19.8669C126.29 23.3019 120.429 20.2232 118.577 16.0038C116.542 11.3691 118.673 5.87561 123.376 3.91713C127.781 2.08171 132.977 3.90432 134.56 7.96225Z" fill="#2A2728"/>
<path d="M138.083 20.8896C138.083 15.2038 138.083 9.53606 138.083 3.75293C142.196 3.75293 146.286 3.75293 150.446 3.75293C150.446 4.43224 150.446 5.09105 150.446 5.85496C147.918 5.85496 145.443 5.85496 142.882 5.85496C142.882 7.64681 142.882 9.33612 142.882 11.1792C144.765 11.1792 146.673 11.1792 148.664 11.1792C148.664 11.9457 148.664 12.5609 148.664 13.3479C146.771 13.3479 144.863 13.3479 142.88 13.3479C142.88 15.1961 142.88 16.8803 142.88 18.6901C145.373 18.6901 147.844 18.6901 150.415 18.6901C150.415 19.4694 150.415 20.1282 150.415 20.887C146.358 20.8896 142.261 20.8896 138.083 20.8896Z" fill="#2A2728"/>
<path d="M44.9814 3.77093C45.1929 3.70684 45.2342 3.68634 45.2754 3.68377C49.6954 3.35309 49.6903 3.35565 51.1086 7.52125C52.086 10.3872 53.0788 13.248 54.0716 16.1088C54.1902 16.4497 54.3424 16.7804 54.6106 17.4444C55.4023 14.9527 56.0934 12.784 56.7768 10.6102C57.3518 8.7799 57.9914 6.96242 58.4581 5.10648C58.7495 3.95293 59.2601 3.40435 60.485 3.6325C60.8873 3.70684 61.3077 3.68377 61.8956 3.71453C59.8197 9.54124 57.7954 15.2295 55.7891 20.8665C55.6215 20.9178 55.5415 20.9588 55.4564 20.964C51.4671 21.2177 51.4645 21.2177 50.0591 17.4956C48.4937 13.3454 46.9362 9.19262 45.3812 5.03727C45.2393 4.64763 45.131 4.24517 44.9814 3.77093Z" fill="#2A2728"/>
<path d="M92.5012 20.923C90.8328 20.923 89.3474 20.923 87.7099 20.923C87.7099 18.9107 87.7563 16.9574 87.6841 15.0041C87.6583 14.3145 87.4623 13.5711 87.14 12.961C85.5231 9.9156 83.8365 6.90869 82.0469 3.65312C83.6818 3.65312 85.1182 3.60698 86.5443 3.69413C86.8202 3.71208 87.1477 4.2222 87.305 4.56826C88.254 6.66516 89.1591 8.78257 90.0823 10.8897C90.2474 11.2666 90.4382 11.6331 90.7348 12.2509C91.8411 9.89511 92.8468 7.75975 93.8525 5.62184C94.9021 3.39164 95.2244 3.24553 98.0379 3.83512C96.8774 5.90382 95.8588 8.01098 94.572 9.94381C92.919 12.4278 92.1273 15.0348 92.4832 18.0058C92.5941 18.9287 92.5012 19.8746 92.5012 20.923Z" fill="#2A2728"/>
<path d="M0 3.89868C1.42864 3.89868 2.43436 3.76281 3.37304 3.95251C3.88106 4.05505 4.42002 4.63952 4.69595 5.14195C6.98074 9.33062 9.2088 13.5501 11.4523 17.7618C12.342 19.4332 13.1724 21.1378 14.1317 22.7682C14.6681 23.6782 14.6655 24.4396 14.1214 25.3188C13.5669 26.216 13.1156 27.1799 12.471 28.395C8.23145 20.0663 4.18793 12.1222 0 3.89868Z" fill="#2A2728"/>
</svg>
